<?xml version="1.0" encoding="UTF-8"?>
<svg width="609px" height="342px" viewBox="0 0 609 342" version="1.1" xmlns="http://www.w3.org/2000/svg" xmlns:xlink="http://www.w3.org/1999/xlink">
    <!-- Generator: Sketch 49.3 (51167) - http://www.bohemiancoding.com/sketch -->
    <title>partenariats</title>
    <desc>Created with Sketch.</desc>
    <defs></defs>
    <g id="Partenariats" stroke="none" stroke-width="1" fill="none" fill-rule="evenodd">
        <g id="Partenariats2" transform="translate(-137.000000, -2044.000000)">
            <g id="partenariats" transform="translate(137.000000, 2044.000000)">
                <path d="M499.86,10 L497.662,6.248 L495.352,6.248 L495.352,10 L494.05,10 L494.05,0.2 L497.97,0.2 C498.810004,0.2 499.528664,0.49633037 500.126,1.089 C500.723336,1.68166963 501.022,2.3979958 501.022,3.238 C501.022,3.87266984 500.833002,4.45133072 500.455,4.974 C500.076998,5.49666928 499.589336,5.86533226 498.992,6.08 L501.302,10 L499.86,10 Z M495.352,1.418 L495.352,5.072 L497.97,5.072 C498.455336,5.072 498.868332,4.89233513 499.209,4.533 C499.549668,4.17366487 499.72,3.74200252 499.72,3.238 C499.72,2.73399748 499.549668,2.30466844 499.209,1.95 C498.868332,1.59533156 498.455336,1.418 497.97,1.418 L495.352,1.418 Z M510.535,8.698 C509.554995,9.68733828 508.355674,10.182 506.937,10.182 C505.518326,10.182 504.319005,9.68733828 503.339,8.698 C502.358995,7.70866172 501.869,6.50934038 501.869,5.1 C501.869,3.68132624 502.358995,2.47967159 503.339,1.495 C504.319005,0.51032841 505.518326,0.018 506.937,0.018 C508.355674,0.018 509.557328,0.51032841 510.542,1.495 C511.526672,2.47967159 512.019,3.68132624 512.019,5.1 C512.019,6.50934038 511.524338,7.70866172 510.535,8.698 Z M504.235,7.816 C504.963004,8.54400364 505.863661,8.908 506.937,8.908 C508.010339,8.908 508.908663,8.54167033 509.632,7.809 C510.355337,7.07632967 510.717,6.1733387 510.717,5.1 C510.717,4.01732792 510.355337,3.10967033 509.632,2.377 C508.908663,1.64432967 508.010339,1.278 506.937,1.278 C505.863661,1.278 504.965337,1.64432967 504.242,2.377 C503.518663,3.10967033 503.157,4.01732792 503.157,5.1 C503.157,6.1733387 503.51633,7.07866298 504.235,7.816 Z M519.012,4.918 C519.460002,5.13266774 519.816999,5.44066466 520.083,5.842 C520.349001,6.24333534 520.482,6.70533072 520.482,7.228 C520.482,8.01200392 520.206669,8.66999734 519.656,9.202 C519.105331,9.73400266 518.433337,10 517.64,10 L513.412,10 L513.412,0.2 L517.332,0.2 C518.097337,0.2 518.745997,0.4566641 519.278,0.97 C519.810003,1.4833359 520.076,2.11799622 520.076,2.874 C520.076,3.74200434 519.721337,4.42333086 519.012,4.918 Z M517.332,1.418 L514.714,1.418 L514.714,4.414 L517.332,4.414 C517.742669,4.414 518.087999,4.26933478 518.368,3.98 C518.648001,3.69066522 518.788,3.3360021 518.788,2.916 C518.788,2.50533128 518.645668,2.15300147 518.361,1.859 C518.076332,1.56499853 517.733335,1.418 517.332,1.418 Z M517.64,8.782 C518.078669,8.782 518.447332,8.62800154 518.746,8.32 C519.044668,8.01199846 519.194,7.63400224 519.194,7.186 C519.194,6.74733114 519.042335,6.37400154 518.739,6.066 C518.435665,5.75799846 518.069335,5.604 517.64,5.604 L514.714,5.604 L514.714,8.782 L517.64,8.782 Z M529.995,8.698 C529.014995,9.68733828 527.815674,10.182 526.397,10.182 C524.978326,10.182 523.779005,9.68733828 522.799,8.698 C521.818995,7.70866172 521.329,6.50934038 521.329,5.1 C521.329,3.68132624 521.818995,2.47967159 522.799,1.495 C523.779005,0.51032841 524.978326,0.018 526.397,0.018 C527.815674,0.018 529.017328,0.51032841 530.002,1.495 C530.986672,2.47967159 531.479,3.68132624 531.479,5.1 C531.479,6.50934038 530.984338,7.70866172 529.995,8.698 Z M523.695,7.816 C524.423004,8.54400364 525.323661,8.908 526.397,8.908 C527.470339,8.908 528.368663,8.54167033 529.092,7.809 C529.815337,7.07632967 530.177,6.1733387 530.177,5.1 C530.177,4.01732792 529.815337,3.10967033 529.092,2.377 C528.368663,1.64432967 527.470339,1.278 526.397,1.278 C525.323661,1.278 524.425337,1.64432967 523.702,2.377 C522.978663,3.10967033 522.617,4.01732792 522.617,5.1 C522.617,6.1733387 522.97633,7.07866298 523.695,7.816 Z M538.962,0.2 L540.264,0.2 L540.264,10 L539.214,10 L534.174,2.678 L534.174,10 L532.872,10 L532.872,0.2 L533.922,0.2 L538.962,7.508 L538.962,0.2 Z M548.391,9.244 C547.709663,9.86933646 546.827672,10.182 545.745,10.182 C544.662328,10.182 543.778003,9.86700315 543.092,9.237 C542.405997,8.60699685 542.063,7.76467194 542.063,6.71 L542.063,0.2 L543.365,0.2 L543.365,6.654 C543.365,7.34467012 543.570331,7.89299797 543.981,8.299 C544.391669,8.70500203 544.979663,8.908 545.745,8.908 C546.510337,8.908 547.098331,8.70500203 547.509,8.299 C547.919669,7.89299797 548.125,7.34467012 548.125,6.654 L548.125,0.2 L549.413,0.2 L549.413,6.71 C549.413,7.76467194 549.072337,8.60933016 548.391,9.244 Z M560.396,0.2 L560.396,10 L559.108,10 L559.108,2.342 L555.902,7.676 L555.734,7.676 L552.528,2.356 L552.528,10 L551.226,10 L551.226,0.2 L552.696,0.2 L555.818,5.38 L558.926,0.2 L560.396,0.2 Z M563.623,8.768 L568.173,8.768 L568.173,10 L562.321,10 L562.321,0.2 L568.103,0.2 L568.103,1.432 L563.623,1.432 L563.623,4.442 L567.753,4.442 L567.753,5.66 L563.623,5.66 L563.623,8.768 Z M575.376,10 L573.178,6.248 L570.868,6.248 L570.868,10 L569.566,10 L569.566,0.2 L573.486,0.2 C574.326004,0.2 575.044664,0.49633037 575.642,1.089 C576.239336,1.68166963 576.538,2.3979958 576.538,3.238 C576.538,3.87266984 576.349002,4.45133072 575.971,4.974 C575.592998,5.49666928 575.105336,5.86533226 574.508,6.08 L576.818,10 L575.376,10 Z M570.868,1.418 L570.868,5.072 L573.486,5.072 C573.971336,5.072 574.384332,4.89233513 574.725,4.533 C575.065668,4.17366487 575.236,3.74200252 575.236,3.238 C575.236,2.73399748 575.065668,2.30466844 574.725,1.95 C574.384332,1.59533156 573.971336,1.418 573.486,1.418 L570.868,1.418 Z M577.945,0.2 L579.247,0.2 L579.247,10 L577.945,10 L577.945,0.2 Z M590.804,5.1 C590.804,6.44400672 590.342005,7.6059951 589.418,8.586 L590.496,9.664 L589.6,10.476 L588.494,9.356 C587.644662,9.90666942 586.720672,10.182 585.722,10.182 C584.321993,10.182 583.127338,9.68733828 582.138,8.698 C581.148662,7.70866172 580.654,6.50934038 580.654,5.1 C580.654,3.69065962 581.148662,2.49133828 582.138,1.502 C583.127338,0.51266172 584.321993,0.018 585.722,0.018 C587.122007,0.018 588.318995,0.51266172 589.313,1.502 C590.307005,2.49133828 590.804,3.69065962 590.804,5.1 Z M585.722,8.908 C586.394003,8.908 587.009997,8.74933492 587.57,8.432 L585.61,6.458 L586.506,5.66 L588.522,7.676 C589.175337,6.96666312 589.502,6.10800504 589.502,5.1 C589.502,4.0266613 589.13567,3.12133702 588.403,2.384 C587.67033,1.64666298 586.776672,1.278 585.722,1.278 C584.667328,1.278 583.77367,1.64666298 583.041,2.384 C582.30833,3.12133702 581.942,4.0266613 581.942,5.1 C581.942,6.16400532 582.30833,7.06466298 583.041,7.802 C583.77367,8.53933702 584.667328,8.908 585.722,8.908 Z M598.399,9.244 C597.717663,9.86933646 596.835672,10.182 595.753,10.182 C594.670328,10.182 593.786003,9.86700315 593.1,9.237 C592.413997,8.60699685 592.071,7.76467194 592.071,6.71 L592.071,0.2 L593.373,0.2 L593.373,6.654 C593.373,7.34467012 593.578331,7.89299797 593.989,8.299 C594.399669,8.70500203 594.987663,8.908 595.753,8.908 C596.518337,8.908 597.106331,8.70500203 597.517,8.299 C597.927669,7.89299797 598.133,7.34467012 598.133,6.654 L598.133,0.2 L599.421,0.2 L599.421,6.71 C599.421,7.76467194 599.080337,8.60933016 598.399,9.244 Z M602.536,8.768 L607.086,8.768 L607.086,10 L601.234,10 L601.234,0.2 L607.016,0.2 L607.016,1.432 L602.536,1.432 L602.536,4.442 L606.666,4.442 L606.666,5.66 L602.536,5.66 L602.536,8.768 Z" id="ROBONUMERIQUE" fill="#FFFFFF"></path>
                <path d="M499.86,156.214689 L497.662,152.462689 L495.352,152.462689 L495.352,156.214689 L494.05,156.214689 L494.05,146.414689 L497.97,146.414689 C498.810004,146.414689 499.528664,146.71102 500.126,147.303689 C500.723336,147.896359 501.022,148.612685 501.022,149.452689 C501.022,150.087359 500.833002,150.66602 500.455,151.188689 C500.076998,151.711359 499.589336,152.080022 498.992,152.294689 L501.302,156.214689 L499.86,156.214689 Z M495.352,147.632689 L495.352,151.286689 L497.97,151.286689 C498.455336,151.286689 498.868332,151.107025 499.209,150.747689 C499.549668,150.388354 499.72,149.956692 499.72,149.452689 C499.72,148.948687 499.549668,148.519358 499.209,148.164689 C498.868332,147.810021 498.455336,147.632689 497.97,147.632689 L495.352,147.632689 Z M510.535,154.912689 C509.554995,155.902028 508.355674,156.396689 506.937,156.396689 C505.518326,156.396689 504.319005,155.902028 503.339,154.912689 C502.358995,153.923351 501.869,152.72403 501.869,151.314689 C501.869,149.896016 502.358995,148.694361 503.339,147.709689 C504.319005,146.725018 505.518326,146.232689 506.937,146.232689 C508.355674,146.232689 509.557328,146.725018 510.542,147.709689 C511.526672,148.694361 512.019,149.896016 512.019,151.314689 C512.019,152.72403 511.524338,153.923351 510.535,154.912689 Z M504.235,154.030689 C504.963004,154.758693 505.863661,155.122689 506.937,155.122689 C508.010339,155.122689 508.908663,154.75636 509.632,154.023689 C510.355337,153.291019 510.717,152.388028 510.717,151.314689 C510.717,150.232017 510.355337,149.32436 509.632,148.591689 C508.908663,147.859019 508.010339,147.492689 506.937,147.492689 C505.863661,147.492689 504.965337,147.859019 504.242,148.591689 C503.518663,149.32436 503.157,150.232017 503.157,151.314689 C503.157,152.388028 503.51633,153.293352 504.235,154.030689 Z M519.012,151.132689 C519.460002,151.347357 519.816999,151.655354 520.083,152.056689 C520.349001,152.458025 520.482,152.92002 520.482,153.442689 C520.482,154.226693 520.206669,154.884687 519.656,155.416689 C519.105331,155.948692 518.433337,156.214689 517.64,156.214689 L513.412,156.214689 L513.412,146.414689 L517.332,146.414689 C518.097337,146.414689 518.745997,146.671354 519.278,147.184689 C519.810003,147.698025 520.076,148.332686 520.076,149.088689 C520.076,149.956694 519.721337,150.63802 519.012,151.132689 Z M517.332,147.632689 L514.714,147.632689 L514.714,150.628689 L517.332,150.628689 C517.742669,150.628689 518.087999,150.484024 518.368,150.194689 C518.648001,149.905355 518.788,149.550692 518.788,149.130689 C518.788,148.720021 518.645668,148.367691 518.361,148.073689 C518.076332,147.779688 517.733335,147.632689 517.332,147.632689 Z M517.64,154.996689 C518.078669,154.996689 518.447332,154.842691 518.746,154.534689 C519.044668,154.226688 519.194,153.848692 519.194,153.400689 C519.194,152.962021 519.042335,152.588691 518.739,152.280689 C518.435665,151.972688 518.069335,151.818689 517.64,151.818689 L514.714,151.818689 L514.714,154.996689 L517.64,154.996689 Z M529.995,154.912689 C529.014995,155.902028 527.815674,156.396689 526.397,156.396689 C524.978326,156.396689 523.779005,155.902028 522.799,154.912689 C521.818995,153.923351 521.329,152.72403 521.329,151.314689 C521.329,149.896016 521.818995,148.694361 522.799,147.709689 C523.779005,146.725018 524.978326,146.232689 526.397,146.232689 C527.815674,146.232689 529.017328,146.725018 530.002,147.709689 C530.986672,148.694361 531.479,149.896016 531.479,151.314689 C531.479,152.72403 530.984338,153.923351 529.995,154.912689 Z M523.695,154.030689 C524.423004,154.758693 525.323661,155.122689 526.397,155.122689 C527.470339,155.122689 528.368663,154.75636 529.092,154.023689 C529.815337,153.291019 530.177,152.388028 530.177,151.314689 C530.177,150.232017 529.815337,149.32436 529.092,148.591689 C528.368663,147.859019 527.470339,147.492689 526.397,147.492689 C525.323661,147.492689 524.425337,147.859019 523.702,148.591689 C522.978663,149.32436 522.617,150.232017 522.617,151.314689 C522.617,152.388028 522.97633,153.293352 523.695,154.030689 Z M538.584,146.414689 L538.584,147.646689 L535.686,147.646689 L535.686,156.214689 L534.398,156.214689 L534.398,147.646689 L531.514,147.646689 L531.514,146.414689 L538.584,146.414689 Z M539.697,146.414689 L540.999,146.414689 L540.999,156.214689 L539.697,156.214689 L539.697,146.414689 Z M547.53,156.396689 C546.045993,156.396689 544.821005,155.906694 543.855,154.926689 C542.888995,153.946685 542.406,152.742697 542.406,151.314689 C542.406,149.886682 542.888995,148.682694 543.855,147.702689 C544.821005,146.722685 546.045993,146.232689 547.53,146.232689 C548.426004,146.232689 549.249663,146.447354 550.001,146.876689 C550.752337,147.306025 551.337998,147.884686 551.758,148.612689 L550.624,149.270689 C550.343999,148.729353 549.926336,148.297691 549.371,147.975689 C548.815664,147.653688 548.202003,147.492689 547.53,147.492689 C546.400661,147.492689 545.479004,147.856686 544.765,148.584689 C544.050996,149.312693 543.694,150.222684 543.694,151.314689 C543.694,152.397361 544.050996,153.302686 544.765,154.030689 C545.479004,154.758693 546.400661,155.122689 547.53,155.122689 C548.202003,155.122689 548.815664,154.961691 549.371,154.639689 C549.926336,154.317688 550.343999,153.890692 550.624,153.358689 L551.758,154.002689 C551.347331,154.730693 550.764004,155.311687 550.008,155.745689 C549.251996,156.179692 548.426004,156.396689 547.53,156.396689 Z M556.217,156.396689 C555.302329,156.396689 554.52067,156.182025 553.872,155.752689 C553.22333,155.323354 552.768335,154.73536 552.507,153.988689 L553.627,153.344689 C554.009669,154.530029 554.882327,155.122689 556.245,155.122689 C556.917003,155.122689 557.430332,154.985024 557.785,154.709689 C558.139668,154.434355 558.317,154.068025 558.317,153.610689 C558.317,153.14402 558.139668,152.794024 557.785,152.560689 C557.430332,152.327355 556.837671,152.080024 556.007,151.818689 C555.596331,151.688022 555.283668,151.583023 555.069,151.503689 C554.854332,151.424356 554.586002,151.303024 554.264,151.139689 C553.941998,150.976355 553.701667,150.808357 553.543,150.635689 C553.384333,150.463022 553.242001,150.236691 553.116,149.956689 C552.989999,149.676688 552.927,149.359358 552.927,149.004689 C552.927,148.155352 553.225664,147.481025 553.823,146.981689 C554.420336,146.482354 555.148329,146.232689 556.007,146.232689 C556.781671,146.232689 557.455997,146.428687 558.03,146.820689 C558.604003,147.212691 559.035665,147.730686 559.325,148.374689 L558.233,149.004689 C557.812998,147.996684 557.071005,147.492689 556.007,147.492689 C555.474997,147.492689 555.045668,147.623355 554.719,147.884689 C554.392332,148.146024 554.229,148.500687 554.229,148.948689 C554.229,149.378025 554.382998,149.704688 554.691,149.928689 C554.999002,150.152691 555.530996,150.386022 556.287,150.628689 C556.557668,150.71269 556.748999,150.773356 556.861,150.810689 C556.973001,150.848023 557.147999,150.913356 557.386,151.006689 C557.624001,151.100023 557.798999,151.174689 557.911,151.230689 C558.023001,151.28669 558.174666,151.366022 558.366,151.468689 C558.557334,151.571357 558.699666,151.669356 558.793,151.762689 C558.886334,151.856023 558.995999,151.970355 559.122,152.105689 C559.248001,152.241023 559.339,152.378689 559.395,152.518689 C559.451,152.65869 559.5,152.819688 559.542,153.001689 C559.584,153.18369 559.605,153.377355 559.605,153.582689 C559.605,154.44136 559.292336,155.12502 558.667,155.633689 C558.041664,156.142359 557.225005,156.396689 556.217,156.396689 Z M566.857,156.214689 L563.357,146.414689 L564.757,146.414689 L567.599,154.590689 L570.427,146.414689 L571.841,146.414689 L568.327,156.214689 L566.857,156.214689 Z M578.708,156.214689 L577.91,154.016689 L573.5,154.016689 L572.702,156.214689 L571.316,156.214689 L574.97,146.414689 L576.44,146.414689 L580.094,156.214689 L578.708,156.214689 Z M573.948,152.798689 L577.462,152.798689 L575.698,147.968689 L573.948,152.798689 Z M582.383,154.982689 L586.611,154.982689 L586.611,156.214689 L581.081,156.214689 L581.081,146.414689 L582.383,146.414689 L582.383,154.982689 Z M589.04,154.982689 L593.268,154.982689 L593.268,156.214689 L587.738,156.214689 L587.738,146.414689 L589.04,146.414689 L589.04,154.982689 Z M595.697,154.982689 L600.247,154.982689 L600.247,156.214689 L594.395,156.214689 L594.395,146.414689 L600.177,146.414689 L600.177,147.646689 L595.697,147.646689 L595.697,150.656689 L599.827,150.656689 L599.827,151.874689 L595.697,151.874689 L595.697,154.982689 Z M608.934,146.414689 L605.462,152.252689 L605.462,156.214689 L604.16,156.214689 L604.16,152.238689 L600.702,146.414689 L602.158,146.414689 L604.818,151.006689 L607.478,146.414689 L608.934,146.414689 Z" id="ROBOTICS-VALLEY" fill="#FFFFFF"></path>
                <path d="M4.606,141.414689 C5.51133786,141.414689 6.26499699,141.715686 6.867,142.317689 C7.46900301,142.919692 7.77,143.668685 7.77,144.564689 C7.77,145.451361 7.46900301,146.19802 6.867,146.804689 C6.26499699,147.411359 5.51133786,147.714689 4.606,147.714689 L2.352,147.714689 L2.352,151.214689 L1.05,151.214689 L1.05,141.414689 L4.606,141.414689 Z M4.606,146.496689 C5.14733604,146.496689 5.59533156,146.312358 5.95,145.943689 C6.30466844,145.575021 6.482,145.115359 6.482,144.564689 C6.482,144.004687 6.30466844,143.542691 5.95,143.178689 C5.59533156,142.814688 5.14733604,142.632689 4.606,142.632689 L2.352,142.632689 L2.352,146.496689 L4.606,146.496689 Z M14.945,151.214689 L12.747,147.462689 L10.437,147.462689 L10.437,151.214689 L9.135,151.214689 L9.135,141.414689 L13.055,141.414689 C13.8950042,141.414689 14.6136637,141.71102 15.211,142.303689 C15.8083363,142.896359 16.107,143.612685 16.107,144.452689 C16.107,145.087359 15.9180019,145.66602 15.54,146.188689 C15.1619981,146.711359 14.6743363,147.080022 14.077,147.294689 L16.387,151.214689 L14.945,151.214689 Z M10.437,142.632689 L10.437,146.286689 L13.055,146.286689 C13.5403358,146.286689 13.9533316,146.107025 14.294,145.747689 C14.6346684,145.388354 14.805,144.956692 14.805,144.452689 C14.805,143.948687 14.6346684,143.519358 14.294,143.164689 C13.9533316,142.810021 13.5403358,142.632689 13.055,142.632689 L10.437,142.632689 Z M25.62,149.912689 C24.6399951,150.902028 23.4406738,151.396689 22.022,151.396689 C20.6033262,151.396689 19.4040049,150.902028 18.424,149.912689 C17.4439951,148.923351 16.954,147.72403 16.954,146.314689 C16.954,144.896016 17.4439951,143.694361 18.424,142.709689 C19.4040049,141.725018 20.6033262,141.232689 22.022,141.232689 C23.4406738,141.232689 24.6423284,141.725018 25.627,142.709689 C26.6116716,143.694361 27.104,144.896016 27.104,146.314689 C27.104,147.72403 26.6093383,148.923351 25.62,149.912689 Z M19.32,149.030689 C20.0480036,149.758693 20.9486613,150.122689 22.022,150.122689 C23.0953387,150.122689 23.9936631,149.75636 24.717,149.023689 C25.440337,148.291019 25.802,147.388028 25.802,146.314689 C25.802,145.232017 25.440337,144.32436 24.717,143.591689 C23.9936631,142.859019 23.0953387,142.492689 22.022,142.492689 C20.9486613,142.492689 20.050337,142.859019 19.327,143.591689 C18.6036631,144.32436 18.242,145.232017 18.242,146.314689 C18.242,147.388028 18.6013297,148.293352 19.32,149.030689 Z M35.007,151.214689 L33.523,151.214689 L31.115,147.350689 L28.707,151.214689 L27.237,151.214689 L30.387,146.174689 L27.419,141.414689 L28.889,141.414689 L31.115,144.984689 L33.341,141.414689 L34.811,141.414689 L31.857,146.160689 L35.007,151.214689 Z M36.12,141.414689 L37.422,141.414689 L37.422,151.214689 L36.12,151.214689 L36.12,141.414689 Z M45.437,141.414689 L46.739,141.414689 L46.739,151.214689 L45.689,151.214689 L40.649,143.892689 L40.649,151.214689 L39.347,151.214689 L39.347,141.414689 L40.397,141.414689 L45.437,148.722689 L45.437,141.414689 Z M54.754,141.414689 L56.056,141.414689 L56.056,151.214689 L55.006,151.214689 L49.966,143.892689 L49.966,151.214689 L48.664,151.214689 L48.664,141.414689 L49.714,141.414689 L54.754,148.722689 L54.754,141.414689 Z M66.129,149.912689 C65.1489951,150.902028 63.9496738,151.396689 62.531,151.396689 C61.1123263,151.396689 59.9130049,150.902028 58.933,149.912689 C57.9529951,148.923351 57.463,147.72403 57.463,146.314689 C57.463,144.896016 57.9529951,143.694361 58.933,142.709689 C59.9130049,141.725018 61.1123263,141.232689 62.531,141.232689 C63.9496738,141.232689 65.1513284,141.725018 66.136,142.709689 C67.1206716,143.694361 67.613,144.896016 67.613,146.314689 C67.613,147.72403 67.1183383,148.923351 66.129,149.912689 Z M59.829,149.030689 C60.5570037,149.758693 61.4576613,150.122689 62.531,150.122689 C63.6043387,150.122689 64.5026631,149.75636 65.226,149.023689 C65.949337,148.291019 66.311,147.388028 66.311,146.314689 C66.311,145.232017 65.949337,144.32436 65.226,143.591689 C64.5026631,142.859019 63.6043387,142.492689 62.531,142.492689 C61.4576613,142.492689 60.559337,142.859019 59.836,143.591689 C59.1126631,144.32436 58.751,145.232017 58.751,146.314689 C58.751,147.388028 59.1103298,148.293352 59.829,149.030689 Z M71.134,151.214689 L67.634,141.414689 L69.034,141.414689 L71.876,149.590689 L74.704,141.414689 L76.118,141.414689 L72.604,151.214689 L71.134,151.214689 Z" id="Proxinnov" fill="#FFFFFF"></path>
                <path d="M6.86,281 L4.662,277.248 L2.352,277.248 L2.352,281 L1.05,281 L1.05,271.2 L4.97,271.2 C5.8100042,271.2 6.52866368,271.49633 7.126,272.089 C7.72333632,272.68167 8.022,273.397996 8.022,274.238 C8.022,274.87267 7.83300189,275.451331 7.455,275.974 C7.07699811,276.496669 6.58933632,276.865332 5.992,277.08 L8.302,281 L6.86,281 Z M2.352,272.418 L2.352,276.072 L4.97,276.072 C5.45533576,276.072 5.86833163,275.892335 6.209,275.533 C6.54966837,275.173665 6.72,274.742003 6.72,274.238 C6.72,273.733997 6.54966837,273.304668 6.209,272.95 C5.86833163,272.595332 5.45533576,272.418 4.97,272.418 L2.352,272.418 Z M17.535,279.698 C16.5549951,280.687338 15.3556738,281.182 13.937,281.182 C12.5183262,281.182 11.3190049,280.687338 10.339,279.698 C9.3589951,278.708662 8.869,277.50934 8.869,276.1 C8.869,274.681326 9.3589951,273.479672 10.339,272.495 C11.3190049,271.510328 12.5183262,271.018 13.937,271.018 C15.3556738,271.018 16.5573284,271.510328 17.542,272.495 C18.5266716,273.479672 19.019,274.681326 19.019,276.1 C19.019,277.50934 18.5243383,278.708662 17.535,279.698 Z M11.235,278.816 C11.9630036,279.544004 12.8636613,279.908 13.937,279.908 C15.0103387,279.908 15.9086631,279.54167 16.632,278.809 C17.355337,278.07633 17.717,277.173339 17.717,276.1 C17.717,275.017328 17.355337,274.10967 16.632,273.377 C15.9086631,272.64433 15.0103387,272.278 13.937,272.278 C12.8636613,272.278 11.965337,272.64433 11.242,273.377 C10.5186631,274.10967 10.157,275.017328 10.157,276.1 C10.157,277.173339 10.5163297,278.078663 11.235,278.816 Z M26.012,275.918 C26.4600022,276.132668 26.8169987,276.440665 27.083,276.842 C27.3490013,277.243335 27.482,277.705331 27.482,278.228 C27.482,279.012004 27.2066694,279.669997 26.656,280.202 C26.1053306,280.734003 25.4333373,281 24.64,281 L20.412,281 L20.412,271.2 L24.332,271.2 C25.0973372,271.2 25.7459973,271.456664 26.278,271.97 C26.8100027,272.483336 27.076,273.117996 27.076,273.874 C27.076,274.742004 26.7213369,275.423331 26.012,275.918 Z M24.332,272.418 L21.714,272.418 L21.714,275.414 L24.332,275.414 C24.7426687,275.414 25.0879986,275.269335 25.368,274.98 C25.6480014,274.690665 25.788,274.336002 25.788,273.916 C25.788,273.505331 25.6456681,273.153001 25.361,272.859 C25.0763319,272.564999 24.7333353,272.418 24.332,272.418 Z M24.64,279.782 C25.0786689,279.782 25.4473318,279.628002 25.746,279.32 C26.0446682,279.011998 26.194,278.634002 26.194,278.186 C26.194,277.747331 26.0423349,277.374002 25.739,277.066 C25.4356652,276.757998 25.0693355,276.604 24.64,276.604 L21.714,276.604 L21.714,279.782 L24.64,279.782 Z M36.995,279.698 C36.0149951,280.687338 34.8156738,281.182 33.397,281.182 C31.9783262,281.182 30.7790049,280.687338 29.799,279.698 C28.8189951,278.708662 28.329,277.50934 28.329,276.1 C28.329,274.681326 28.8189951,273.479672 29.799,272.495 C30.7790049,271.510328 31.9783262,271.018 33.397,271.018 C34.8156738,271.018 36.0173284,271.510328 37.002,272.495 C37.9866716,273.479672 38.479,274.681326 38.479,276.1 C38.479,277.50934 37.9843383,278.708662 36.995,279.698 Z M30.695,278.816 C31.4230036,279.544004 32.3236613,279.908 33.397,279.908 C34.4703387,279.908 35.3686631,279.54167 36.092,278.809 C36.815337,278.07633 37.177,277.173339 37.177,276.1 C37.177,275.017328 36.815337,274.10967 36.092,273.377 C35.3686631,272.64433 34.4703387,272.278 33.397,272.278 C32.3236613,272.278 31.425337,272.64433 30.702,273.377 C29.9786631,274.10967 29.617,275.017328 29.617,276.1 C29.617,277.173339 29.9763297,278.078663 30.695,278.816 Z M45.584,271.2 L45.584,272.432 L42.686,272.432 L42.686,281 L41.398,281 L41.398,272.432 L38.514,272.432 L38.514,271.2 L45.584,271.2 Z M46.697,271.2 L47.999,271.2 L47.999,281 L46.697,281 L46.697,271.2 Z M54.53,281.182 C53.0459926,281.182 51.8210048,280.692005 50.855,279.712 C49.8889952,278.731995 49.406,277.528007 49.406,276.1 C49.406,274.671993 49.8889952,273.468005 50.855,272.488 C51.8210048,271.507995 53.0459926,271.018 54.53,271.018 C55.4260045,271.018 56.2496629,271.232665 57.001,271.662 C57.7523371,272.091335 58.3379979,272.669996 58.758,273.398 L57.624,274.056 C57.3439986,273.514664 56.9263361,273.083002 56.371,272.761 C55.8156639,272.438998 55.2020034,272.278 54.53,272.278 C53.400661,272.278 52.4790036,272.641996 51.765,273.37 C51.0509964,274.098004 50.694,275.007995 50.694,276.1 C50.694,277.182672 51.0509964,278.087996 51.765,278.816 C52.4790036,279.544004 53.400661,279.908 54.53,279.908 C55.2020034,279.908 55.8156639,279.747002 56.371,279.425 C56.9263361,279.102998 57.3439986,278.676003 57.624,278.144 L58.758,278.788 C58.3473313,279.516004 57.7640038,280.096998 57.008,280.531 C56.2519962,280.965002 55.4260045,281.182 54.53,281.182 Z M63.217,281.182 C62.3023288,281.182 61.5206699,280.967335 60.872,280.538 C60.2233301,280.108665 59.7683347,279.52067 59.507,278.774 L60.627,278.13 C61.0096686,279.315339 61.8823265,279.908 63.245,279.908 C63.9170034,279.908 64.4303316,279.770335 64.785,279.495 C65.1396685,279.219665 65.317,278.853336 65.317,278.396 C65.317,277.929331 65.1396685,277.579335 64.785,277.346 C64.4303316,277.112665 63.8376708,276.865335 63.007,276.604 C62.5963313,276.473333 62.2836678,276.368334 62.069,276.289 C61.8543323,276.209666 61.5860016,276.088334 61.264,275.925 C60.9419984,275.761666 60.7016675,275.593668 60.543,275.421 C60.3843326,275.248332 60.2420007,275.022001 60.116,274.742 C59.9899994,274.461999 59.927,274.144668 59.927,273.79 C59.927,272.940662 60.2256637,272.266336 60.823,271.767 C61.4203363,271.267664 62.1483291,271.018 63.007,271.018 C63.7816706,271.018 64.4559972,271.213998 65.03,271.606 C65.6040029,271.998002 66.0356652,272.515997 66.325,273.16 L65.233,273.79 C64.8129979,272.781995 64.0710053,272.278 63.007,272.278 C62.4749974,272.278 62.0456683,272.408665 61.719,272.67 C61.3923317,272.931335 61.229,273.285998 61.229,273.734 C61.229,274.163335 61.3829985,274.489999 61.691,274.714 C61.9990016,274.938001 62.5309962,275.171332 63.287,275.414 C63.557668,275.498 63.7489995,275.558666 63.861,275.596 C63.9730006,275.633334 64.1479988,275.698666 64.386,275.792 C64.6240012,275.885334 64.7989995,275.96 64.911,276.016 C65.0230006,276.072 65.1746657,276.151333 65.366,276.254 C65.5573343,276.356667 65.6996662,276.454666 65.793,276.548 C65.8863338,276.641334 65.9959994,276.755666 66.122,276.891 C66.2480007,277.026334 66.3389997,277.163999 66.395,277.304 C66.4510003,277.444001 66.4999998,277.604999 66.542,277.787 C66.5840002,277.969001 66.605,278.162666 66.605,278.368 C66.605,279.226671 66.2923365,279.910331 65.667,280.419 C65.0416636,280.927669 64.2250051,281.182 63.217,281.182 Z M4.606,285.2 C5.51133786,285.2 6.26499699,285.500997 6.867,286.103 C7.46900301,286.705003 7.77,287.453996 7.77,288.35 C7.77,289.236671 7.46900301,289.98333 6.867,290.59 C6.26499699,291.19667 5.51133786,291.5 4.606,291.5 L2.352,291.5 L2.352,295 L1.05,295 L1.05,285.2 L4.606,285.2 Z M4.606,290.282 C5.14733604,290.282 5.59533156,290.097669 5.95,289.729 C6.30466844,289.360331 6.482,288.900669 6.482,288.35 C6.482,287.789997 6.30466844,287.328002 5.95,286.964 C5.59533156,286.599998 5.14733604,286.418 4.606,286.418 L2.352,286.418 L2.352,290.282 L4.606,290.282 Z M10.437,293.768 L14.665,293.768 L14.665,295 L9.135,295 L9.135,285.2 L10.437,285.2 L10.437,293.768 Z M22.526,295 L21.728,292.802 L17.318,292.802 L16.52,295 L15.134,295 L18.788,285.2 L20.258,285.2 L23.912,295 L22.526,295 Z M17.766,291.584 L21.28,291.584 L19.516,286.754 L17.766,291.584 Z M29.155,295.182 C27.6709926,295.182 26.4460048,294.692005 25.48,293.712 C24.5139952,292.731995 24.031,291.528007 24.031,290.1 C24.031,288.671993 24.5139952,287.468005 25.48,286.488 C26.4460048,285.507995 27.6709926,285.018 29.155,285.018 C30.0510045,285.018 30.8746629,285.232665 31.626,285.662 C32.3773371,286.091335 32.9629979,286.669996 33.383,287.398 L32.249,288.056 C31.9689986,287.514664 31.5513361,287.083002 30.996,286.761 C30.4406639,286.438998 29.8270034,286.278 29.155,286.278 C28.025661,286.278 27.1040036,286.641996 26.39,287.37 C25.6759964,288.098004 25.319,289.007995 25.319,290.1 C25.319,291.182672 25.6759964,292.087996 26.39,292.816 C27.1040036,293.544004 28.025661,293.908 29.155,293.908 C29.8270034,293.908 30.4406639,293.747002 30.996,293.425 C31.5513361,293.102998 31.9689986,292.676003 32.249,292.144 L33.383,292.788 C32.9723313,293.516004 32.3890038,294.096998 31.633,294.531 C30.8769962,294.965002 30.0510045,295.182 29.155,295.182 Z M35.98,293.768 L40.53,293.768 L40.53,295 L34.678,295 L34.678,285.2 L40.46,285.2 L40.46,286.432 L35.98,286.432 L35.98,289.442 L40.11,289.442 L40.11,290.66 L35.98,290.66 L35.98,293.768 Z" id="Robotics-place" fill="#FFFFFF"></path>
                <path d="M7.504,216.647856 L6.706,214.449856 L2.296,214.449856 L1.498,216.647856 L0.112,216.647856 L3.766,206.847856 L5.236,206.847856 L8.89,216.647856 L7.504,216.647856 Z M2.744,213.231856 L6.258,213.231856 L4.494,208.401856 L2.744,213.231856 Z M14.133,216.829856 C12.6489926,216.829856 11.4240048,216.33986 10.458,215.359856 C9.49199517,214.379851 9.009,213.175863 9.009,211.747856 C9.009,210.319848 9.49199517,209.11586 10.458,208.135856 C11.4240048,207.155851 12.6489926,206.665856 14.133,206.665856 C15.0290045,206.665856 15.8526629,206.88052 16.604,207.309856 C17.3553371,207.739191 17.9409979,208.317852 18.361,209.045856 L17.227,209.703856 C16.9469986,209.16252 16.5293361,208.730857 15.974,208.408856 C15.4186639,208.086854 14.8050034,207.925856 14.133,207.925856 C13.003661,207.925856 12.0820036,208.289852 11.368,209.017856 C10.6539964,209.745859 10.297,210.65585 10.297,211.747856 C10.297,212.830528 10.6539964,213.735852 11.368,214.463856 C12.0820036,215.191859 13.003661,215.555856 14.133,215.555856 C14.8050034,215.555856 15.4186639,215.394857 15.974,215.072856 C16.5293361,214.750854 16.9469986,214.323858 17.227,213.791856 L18.361,214.435856 C17.9503313,215.163859 17.3670038,215.744853 16.611,216.178856 C15.8549962,216.612858 15.0290045,216.829856 14.133,216.829856 Z M29.26,211.747856 C29.26,213.091862 28.7980046,214.253851 27.874,215.233856 L28.952,216.311856 L28.056,217.123856 L26.95,216.003856 C26.1006624,216.554525 25.1766717,216.829856 24.178,216.829856 C22.777993,216.829856 21.5833383,216.335194 20.594,215.345856 C19.6046617,214.356517 19.11,213.157196 19.11,211.747856 C19.11,210.338515 19.6046617,209.139194 20.594,208.149856 C21.5833383,207.160517 22.777993,206.665856 24.178,206.665856 C25.578007,206.665856 26.774995,207.160517 27.769,208.149856 C28.763005,209.139194 29.26,210.338515 29.26,211.747856 Z M24.178,215.555856 C24.8500034,215.555856 25.4659972,215.39719 26.026,215.079856 L24.066,213.105856 L24.962,212.307856 L26.978,214.323856 C27.6313366,213.614519 27.958,212.755861 27.958,211.747856 C27.958,210.674517 27.5916703,209.769193 26.859,209.031856 C26.1263297,208.294519 25.2326719,207.925856 24.178,207.925856 C23.1233281,207.925856 22.2296703,208.294519 21.497,209.031856 C20.7643297,209.769193 20.398,210.674517 20.398,211.747856 C20.398,212.811861 20.7643297,213.712519 21.497,214.449856 C22.2296703,215.187193 23.1233281,215.555856 24.178,215.555856 Z M36.855,215.891856 C36.1736633,216.517192 35.2916721,216.829856 34.209,216.829856 C33.1263279,216.829856 32.2420034,216.514859 31.556,215.884856 C30.8699966,215.254852 30.527,214.412527 30.527,213.357856 L30.527,206.847856 L31.829,206.847856 L31.829,213.301856 C31.829,213.992526 32.0343313,214.540854 32.445,214.946856 C32.8556687,215.352858 33.4436628,215.555856 34.209,215.555856 C34.9743372,215.555856 35.5623313,215.352858 35.973,214.946856 C36.3836687,214.540854 36.589,213.992526 36.589,213.301856 L36.589,206.847856 L37.877,206.847856 L37.877,213.357856 C37.877,214.412527 37.5363367,215.257186 36.855,215.891856 Z M39.69,206.847856 L40.992,206.847856 L40.992,216.647856 L39.69,216.647856 L39.69,206.847856 Z M49.189,206.847856 L49.189,208.079856 L46.291,208.079856 L46.291,216.647856 L45.003,216.647856 L45.003,208.079856 L42.119,208.079856 L42.119,206.847856 L49.189,206.847856 Z M56.042,216.647856 L55.244,214.449856 L50.834,214.449856 L50.036,216.647856 L48.65,216.647856 L52.304,206.847856 L53.774,206.847856 L57.428,216.647856 L56.042,216.647856 Z M51.282,213.231856 L54.796,213.231856 L53.032,208.401856 L51.282,213.231856 Z M58.415,206.847856 L59.717,206.847856 L59.717,216.647856 L58.415,216.647856 L58.415,206.847856 Z M67.732,206.847856 L69.034,206.847856 L69.034,216.647856 L67.984,216.647856 L62.944,209.325856 L62.944,216.647856 L61.642,216.647856 L61.642,206.847856 L62.692,206.847856 L67.732,214.155856 L67.732,206.847856 Z M72.261,215.415856 L76.811,215.415856 L76.811,216.647856 L70.959,216.647856 L70.959,206.847856 L76.741,206.847856 L76.741,208.079856 L72.261,208.079856 L72.261,211.089856 L76.391,211.089856 L76.391,212.307856 L72.261,212.307856 L72.261,215.415856 Z M6.86,230.647856 L4.662,226.895856 L2.352,226.895856 L2.352,230.647856 L1.05,230.647856 L1.05,220.847856 L4.97,220.847856 C5.8100042,220.847856 6.52866368,221.144186 7.126,221.736856 C7.72333632,222.329525 8.022,223.045851 8.022,223.885856 C8.022,224.520525 7.83300189,225.099186 7.455,225.621856 C7.07699811,226.144525 6.58933632,226.513188 5.992,226.727856 L8.302,230.647856 L6.86,230.647856 Z M2.352,222.065856 L2.352,225.719856 L4.97,225.719856 C5.45533576,225.719856 5.86833163,225.540191 6.209,225.180856 C6.54966837,224.82152 6.72,224.389858 6.72,223.885856 C6.72,223.381853 6.54966837,222.952524 6.209,222.597856 C5.86833163,222.243187 5.45533576,222.065856 4.97,222.065856 L2.352,222.065856 Z M17.535,229.345856 C16.5549951,230.335194 15.3556738,230.829856 13.937,230.829856 C12.5183262,230.829856 11.3190049,230.335194 10.339,229.345856 C9.3589951,228.356517 8.869,227.157196 8.869,225.747856 C8.869,224.329182 9.3589951,223.127527 10.339,222.142856 C11.3190049,221.158184 12.5183262,220.665856 13.937,220.665856 C15.3556738,220.665856 16.5573284,221.158184 17.542,222.142856 C18.5266716,223.127527 19.019,224.329182 19.019,225.747856 C19.019,227.157196 18.5243383,228.356517 17.535,229.345856 Z M11.235,228.463856 C11.9630036,229.191859 12.8636613,229.555856 13.937,229.555856 C15.0103387,229.555856 15.9086631,229.189526 16.632,228.456856 C17.355337,227.724185 17.717,226.821194 17.717,225.747856 C17.717,224.665183 17.355337,223.757526 16.632,223.024856 C15.9086631,222.292185 15.0103387,221.925856 13.937,221.925856 C12.8636613,221.925856 11.965337,222.292185 11.242,223.024856 C10.5186631,223.757526 10.157,224.665183 10.157,225.747856 C10.157,226.821194 10.5163297,227.726519 11.235,228.463856 Z M26.012,225.565856 C26.4600022,225.780523 26.8169987,226.08852 27.083,226.489856 C27.3490013,226.891191 27.482,227.353186 27.482,227.875856 C27.482,228.659859 27.2066694,229.317853 26.656,229.849856 C26.1053306,230.381858 25.4333373,230.647856 24.64,230.647856 L20.412,230.647856 L20.412,220.847856 L24.332,220.847856 C25.0973372,220.847856 25.7459973,221.10452 26.278,221.617856 C26.8100027,222.131191 27.076,222.765852 27.076,223.521856 C27.076,224.38986 26.7213369,225.071186 26.012,225.565856 Z M24.332,222.065856 L21.714,222.065856 L21.714,225.061856 L24.332,225.061856 C24.7426687,225.061856 25.0879986,224.91719 25.368,224.627856 C25.6480014,224.338521 25.788,223.983858 25.788,223.563856 C25.788,223.153187 25.6456681,222.800857 25.361,222.506856 C25.0763319,222.212854 24.7333353,222.065856 24.332,222.065856 Z M24.64,229.429856 C25.0786689,229.429856 25.4473318,229.275857 25.746,228.967856 C26.0446682,228.659854 26.194,228.281858 26.194,227.833856 C26.194,227.395187 26.0423349,227.021857 25.739,226.713856 C25.4356652,226.405854 25.0693355,226.251856 24.64,226.251856 L21.714,226.251856 L21.714,229.429856 L24.64,229.429856 Z M36.995,229.345856 C36.0149951,230.335194 34.8156738,230.829856 33.397,230.829856 C31.9783262,230.829856 30.7790049,230.335194 29.799,229.345856 C28.8189951,228.356517 28.329,227.157196 28.329,225.747856 C28.329,224.329182 28.8189951,223.127527 29.799,222.142856 C30.7790049,221.158184 31.9783262,220.665856 33.397,220.665856 C34.8156738,220.665856 36.0173284,221.158184 37.002,222.142856 C37.9866716,223.127527 38.479,224.329182 38.479,225.747856 C38.479,227.157196 37.9843383,228.356517 36.995,229.345856 Z M30.695,228.463856 C31.4230036,229.191859 32.3236613,229.555856 33.397,229.555856 C34.4703387,229.555856 35.3686631,229.189526 36.092,228.456856 C36.815337,227.724185 37.177,226.821194 37.177,225.747856 C37.177,224.665183 36.815337,223.757526 36.092,223.024856 C35.3686631,222.292185 34.4703387,221.925856 33.397,221.925856 C32.3236613,221.925856 31.425337,222.292185 30.702,223.024856 C29.9786631,223.757526 29.617,224.665183 29.617,225.747856 C29.617,226.821194 29.9763297,227.726519 30.695,228.463856 Z M45.584,220.847856 L45.584,222.079856 L42.686,222.079856 L42.686,230.647856 L41.398,230.647856 L41.398,222.079856 L38.514,222.079856 L38.514,220.847856 L45.584,220.847856 Z M46.697,220.847856 L47.999,220.847856 L47.999,230.647856 L46.697,230.647856 L46.697,220.847856 Z M54.53,230.829856 C53.0459926,230.829856 51.8210048,230.33986 50.855,229.359856 C49.8889952,228.379851 49.406,227.175863 49.406,225.747856 C49.406,224.319848 49.8889952,223.11586 50.855,222.135856 C51.8210048,221.155851 53.0459926,220.665856 54.53,220.665856 C55.4260045,220.665856 56.2496629,220.88052 57.001,221.309856 C57.7523371,221.739191 58.3379979,222.317852 58.758,223.045856 L57.624,223.703856 C57.3439986,223.16252 56.9263361,222.730857 56.371,222.408856 C55.8156639,222.086854 55.2020034,221.925856 54.53,221.925856 C53.400661,221.925856 52.4790036,222.289852 51.765,223.017856 C51.0509964,223.745859 50.694,224.65585 50.694,225.747856 C50.694,226.830528 51.0509964,227.735852 51.765,228.463856 C52.4790036,229.191859 53.400661,229.555856 54.53,229.555856 C55.2020034,229.555856 55.8156639,229.394857 56.371,229.072856 C56.9263361,228.750854 57.3439986,228.323858 57.624,227.791856 L58.758,228.435856 C58.3473313,229.163859 57.7640038,229.744853 57.008,230.178856 C56.2519962,230.612858 55.4260045,230.829856 54.53,230.829856 Z M63.217,230.829856 C62.3023288,230.829856 61.5206699,230.615191 60.872,230.185856 C60.2233301,229.75652 59.7683347,229.168526 59.507,228.421856 L60.627,227.777856 C61.0096686,228.963195 61.8823265,229.555856 63.245,229.555856 C63.9170034,229.555856 64.4303316,229.41819 64.785,229.142856 C65.1396685,228.867521 65.317,228.501191 65.317,228.043856 C65.317,227.577187 65.1396685,227.22719 64.785,226.993856 C64.4303316,226.760521 63.8376708,226.51319 63.007,226.251856 C62.5963313,226.121188 62.2836678,226.016189 62.069,225.936856 C61.8543323,225.857522 61.5860016,225.73619 61.264,225.572856 C60.9419984,225.409521 60.7016675,225.241523 60.543,225.068856 C60.3843326,224.896188 60.2420007,224.669857 60.116,224.389856 C59.9899994,224.109854 59.927,223.792524 59.927,223.437856 C59.927,222.588518 60.2256637,221.914191 60.823,221.414856 C61.4203363,220.91552 62.1483291,220.665856 63.007,220.665856 C63.7816706,220.665856 64.4559972,220.861854 65.03,221.253856 C65.6040029,221.645858 66.0356652,222.163852 66.325,222.807856 L65.233,223.437856 C64.8129979,222.429851 64.0710053,221.925856 63.007,221.925856 C62.4749974,221.925856 62.0456683,222.056521 61.719,222.317856 C61.3923317,222.57919 61.229,222.933853 61.229,223.381856 C61.229,223.811191 61.3829985,224.137854 61.691,224.361856 C61.9990016,224.585857 62.5309962,224.819188 63.287,225.061856 C63.557668,225.145856 63.7489995,225.206522 63.861,225.243856 C63.9730006,225.281189 64.1479988,225.346522 64.386,225.439856 C64.6240012,225.533189 64.7989995,225.607855 64.911,225.663856 C65.0230006,225.719856 65.1746657,225.799188 65.366,225.901856 C65.5573343,226.004523 65.6996662,226.102522 65.793,226.195856 C65.8863338,226.289189 65.9959994,226.403522 66.122,226.538856 C66.2480007,226.67419 66.3389997,226.811855 66.395,226.951856 C66.4510003,227.091856 66.4999998,227.252855 66.542,227.434856 C66.5840002,227.616856 66.605,227.810521 66.605,228.015856 C66.605,228.874527 66.2923365,229.558186 65.667,230.066856 C65.0416636,230.575525 64.2250051,230.829856 63.217,230.829856 Z" id="Acquitaine-robotics" fill="#FFFFFF"></path>
                <path d="M498.656,217.829856 C497.171993,217.829856 495.947005,217.33986 494.981,216.359856 C494.014995,215.379851 493.532,214.175863 493.532,212.747856 C493.532,211.319848 494.014995,210.11586 494.981,209.135856 C495.947005,208.155851 497.171993,207.665856 498.656,207.665856 C499.552004,207.665856 500.375663,207.88052 501.127,208.309856 C501.878337,208.739191 502.463998,209.317852 502.884,210.045856 L501.75,210.703856 C501.469999,210.16252 501.052336,209.730857 500.497,209.408856 C499.941664,209.086854 499.328003,208.925856 498.656,208.925856 C497.526661,208.925856 496.605004,209.289852 495.891,210.017856 C495.176996,210.745859 494.82,211.65585 494.82,212.747856 C494.82,213.830528 495.176996,214.735852 495.891,215.463856 C496.605004,216.191859 497.526661,216.555856 498.656,216.555856 C499.328003,216.555856 499.941664,216.394857 500.497,216.072856 C501.052336,215.750854 501.469999,215.323858 501.75,214.791856 L502.884,215.435856 C502.473331,216.163859 501.890004,216.744853 501.134,217.178856 C500.377996,217.612858 499.552004,217.829856 498.656,217.829856 Z M512.299,216.345856 C511.318995,217.335194 510.119674,217.829856 508.701,217.829856 C507.282326,217.829856 506.083005,217.335194 505.103,216.345856 C504.122995,215.356517 503.633,214.157196 503.633,212.747856 C503.633,211.329182 504.122995,210.127527 505.103,209.142856 C506.083005,208.158184 507.282326,207.665856 508.701,207.665856 C510.119674,207.665856 511.321328,208.158184 512.306,209.142856 C513.290672,210.127527 513.783,211.329182 513.783,212.747856 C513.783,214.157196 513.288338,215.356517 512.299,216.345856 Z M505.999,215.463856 C506.727004,216.191859 507.627661,216.555856 508.701,216.555856 C509.774339,216.555856 510.672663,216.189526 511.396,215.456856 C512.119337,214.724185 512.481,213.821194 512.481,212.747856 C512.481,211.665183 512.119337,210.757526 511.396,210.024856 C510.672663,209.292185 509.774339,208.925856 508.701,208.925856 C507.627661,208.925856 506.729337,209.292185 506.006,210.024856 C505.282663,210.757526 504.921,211.665183 504.921,212.747856 C504.921,213.821194 505.28033,214.726519 505.999,215.463856 Z M520.776,212.565856 C521.224002,212.780523 521.580999,213.08852 521.847,213.489856 C522.113001,213.891191 522.246,214.353186 522.246,214.875856 C522.246,215.659859 521.970669,216.317853 521.42,216.849856 C520.869331,217.381858 520.197337,217.647856 519.404,217.647856 L515.176,217.647856 L515.176,207.847856 L519.096,207.847856 C519.861337,207.847856 520.509997,208.10452 521.042,208.617856 C521.574003,209.131191 521.84,209.765852 521.84,210.521856 C521.84,211.38986 521.485337,212.071186 520.776,212.565856 Z M519.096,209.065856 L516.478,209.065856 L516.478,212.061856 L519.096,212.061856 C519.506669,212.061856 519.851999,211.91719 520.132,211.627856 C520.412001,211.338521 520.552,210.983858 520.552,210.563856 C520.552,210.153187 520.409668,209.800857 520.125,209.506856 C519.840332,209.212854 519.497335,209.065856 519.096,209.065856 Z M519.404,216.429856 C519.842669,216.429856 520.211332,216.275857 520.51,215.967856 C520.808668,215.659854 520.958,215.281858 520.958,214.833856 C520.958,214.395187 520.806335,214.021857 520.503,213.713856 C520.199665,213.405854 519.833335,213.251856 519.404,213.251856 L516.478,213.251856 L516.478,216.429856 L519.404,216.429856 Z M531.759,216.345856 C530.778995,217.335194 529.579674,217.829856 528.161,217.829856 C526.742326,217.829856 525.543005,217.335194 524.563,216.345856 C523.582995,215.356517 523.093,214.157196 523.093,212.747856 C523.093,211.329182 523.582995,210.127527 524.563,209.142856 C525.543005,208.158184 526.742326,207.665856 528.161,207.665856 C529.579674,207.665856 530.781328,208.158184 531.766,209.142856 C532.750672,210.127527 533.243,211.329182 533.243,212.747856 C533.243,214.157196 532.748338,215.356517 531.759,216.345856 Z M525.459,215.463856 C526.187004,216.191859 527.087661,216.555856 528.161,216.555856 C529.234339,216.555856 530.132663,216.189526 530.856,215.456856 C531.579337,214.724185 531.941,213.821194 531.941,212.747856 C531.941,211.665183 531.579337,210.757526 530.856,210.024856 C530.132663,209.292185 529.234339,208.925856 528.161,208.925856 C527.087661,208.925856 526.189337,209.292185 525.466,210.024856 C524.742663,210.757526 524.381,211.665183 524.381,212.747856 C524.381,213.821194 524.74033,214.726519 525.459,215.463856 Z M540.348,207.847856 L540.348,209.079856 L537.45,209.079856 L537.45,217.647856 L536.162,217.647856 L536.162,209.079856 L533.278,209.079856 L533.278,207.847856 L540.348,207.847856 Z M542.763,216.415856 L547.313,216.415856 L547.313,217.647856 L541.461,217.647856 L541.461,207.847856 L547.243,207.847856 L547.243,209.079856 L542.763,209.079856 L542.763,212.089856 L546.893,212.089856 L546.893,213.307856 L542.763,213.307856 L542.763,216.415856 Z M555.314,217.647856 L554.516,215.449856 L550.106,215.449856 L549.308,217.647856 L547.922,217.647856 L551.576,207.847856 L553.046,207.847856 L556.7,217.647856 L555.314,217.647856 Z M550.554,214.231856 L554.068,214.231856 L552.304,209.401856 L550.554,214.231856 Z M566.857,207.847856 L566.857,217.647856 L565.569,217.647856 L565.569,209.989856 L562.363,215.323856 L562.195,215.323856 L558.989,210.003856 L558.989,217.647856 L557.687,217.647856 L557.687,207.847856 L559.157,207.847856 L562.279,213.027856 L565.387,207.847856 L566.857,207.847856 Z" id="coboteam" fill="#FFFFFF"></path>
                <g id="Page-1" transform="translate(99.909626, 4.460559)" stroke="#FFFFFF">
                    <polyline id="Stroke-1" stroke-width="1.5" stroke-linecap="round" stroke-linejoin="round" points="289.420053 168.111207 289.94252 166.425829 296.742729 160.149249 296.277797 154.511951 301.217697 151.083079 308.075441 142.65619 307.958627 141.028929 309.295888 139.808483 306.796298 137.71629 307.319927 135.972795 307.43616 135.856562 309.528353 133.531903 309.702122 133.531903 311.794896 133.241321 313.479693 133.59002 313.015342 135.333514 317.432194 135.333514 319.000758 134.752349 319.29134 133.008855 320.977299 132.892622 321.093532 131.091011 322.372095 129.928682 320.686717 125.453713 322.255862 116.503776 321.151649 110.459662 324.580521 102.381472 325.452268 93.2571851 331.554498 85.3533443 333.820459 79.1348813 328.880559 77.391387 320.279902 77.1008046 315.456234 72.7420689 311.794896 75.1248444 307.784859 74.4274467 306.273831 75.1829609 304.995268 72.9164183 303.251774 72.1027876 301.565815 72.9745348 301.450163 74.6599126 299.822321 74.2530973 295.173003 68.9644979 294.185604 65.5937423 292.442109 64.3732963 286.049297 62.8622679 283.434055 64.8963446 281.806213 64.954461 278.668504 63.5596656 276.750661 61.9324043 272.798159 61.9324043 272.043226 63.5015491 268.788703 63.9664809 266.754627 59.7239782 264.952435 59.8983276 264.952435 58.0386003 261.465446 57.2249697 257.514107 53.7379811 254.085235 53.854214 254.608283 50.0766431 252.981022 46.7640039 252.981022 44.3812284 254.491469 41.4172881 252.922905 40.4874245 250.54013 42.9864329 249.551569 46.7058874 244.496016 48.97243 241.357727 47.9844499 239.730465 48.3331488 239.556116 48.3912653 237.405806 47.6938675 239.32365 44.0325295 237.580156 40.9523563 238.742485 37.2329018 237.115224 37.5816006 234.731867 34.6757768 231.244879 35.3731745 228.048472 34.5595439 226.770491 35.7218734 225.550045 30.433274 222.353639 29.7358763 221.714358 28.108615 220.02898 29.3871775 218.227369 28.7478962 216.425177 23.8079957 216.715759 22.1226179 214.3911 19.5073765 211.020926 19.7979589 207.82452 22.0645014 206.081025 21.3089872 204.395648 18.2869305 202.477223 18.228814 201.72229 16.7177856 202.361571 13.34703 200.908659 9.86004139 199.280816 8.93017777 189.634063 11.3129533 181.846455 13.7538453 178.475699 16.6596691 178.475699 27.1206349 180.10296 29.1547116 178.533816 28.108615 178.127 31.5956036 178.359466 33.7459132 179.754262 34.7338933"></polyline>
                    <polyline id="Stroke-2" stroke-width="1.5" stroke-linecap="round" stroke-linejoin="round" points="307.43616 135.856562 307.494277 135.914679 309.702122 133.531903 309.760819 133.41567 312.026781 133.125088 310.748799 130.219264 309.120957 130.277381 308.889072 125.046898 304.471639 122.141074 303.890474 122.547889 299.009271 118.654085 296.04475 119.990764 293.197624 117.840455 289.884984 118.770318 285.816831 116.329426 281.109396 119.642065 281.225048 120.513812 279.947067 122.37354 278.261689 122.141074 277.041243 123.535869 276.866312 128.417653 275.065283 128.998818 273.78672 127.952721 270.009149 130.219264 269.311171 131.672176"></polyline>
                    <polyline id="Stroke-3" stroke-width="1.5" stroke-linecap="round" stroke-linejoin="round" points="239.730465 48.3333812 240.195397 51.6460204 239.381185 53.6800971 240.195397 55.4817078 237.289573 59.6660941 235.662312 59.8404436 235.836661 68.1510997 235.313032 69.778361 232.175323 68.7322645 227.584122 71.0569235 226.828607 72.5679519 228.688335 77.2753865 225.550045 78.553949 226.479909 79.9487444 225.95686 81.5760058 227.409772 82.2734035 222.99292 88.2012841"></polyline>
                    <polyline id="Stroke-4" stroke-width="1.5" stroke-linecap="round" stroke-linejoin="round" points="222.993036 88.2010516 217.587623 84.714063 215.321661 82.3312875 215.669779 80.6459097 214.681799 79.1929978 213.113235 78.7861824 208.40522 80.5296767 206.952308 79.5998131 205.789978 80.8202591 201.780522 80.2390943 195.503362 76.5196398 194.166683 77.5076199 188.819967 76.170941 185.158629 77.275154 181.904687 76.6358728 180.974824 74.7180291"></polyline>
                    <polyline id="Stroke-5" stroke-width="1.5" stroke-linecap="round" stroke-linejoin="round" points="222.993036 88.2010516 222.702454 89.3633811 221.249542 90.7000601 223.283619 95.5237276 224.736531 96.5117077 222.993036 99.3594151 221.307658 99.8243469 221.540124 104.764247"></polyline>
                    <polyline id="Stroke-6" stroke-width="1.5" stroke-linecap="round" stroke-linejoin="round" points="210.207411 113.016903 203.698366 114.586048 198.409186 114.179233 199.862097 113.307486 200.211377 111.738341 197.828021 109.239332 197.421787 107.437722 195.212779 107.147139 193.644216 108.135119 192.772469 106.624091 191.668255 108.251352 187.657637 108.658168 187.600102 108.658168 185.972841 102.497821 184.170649 102.904636 182.892668 101.626074 182.137153 98.3715512 178.592048 95.2332615 178.301466 88.956682 176.151156 85.1209946"></polyline>
                    <polyline id="Stroke-7" stroke-width="1.5" stroke-linecap="round" stroke-linejoin="round" points="221.540124 104.764247 212.590187 106.565858 212.473373 109.936614 210.207411 113.016787"></polyline>
                    <polyline id="Stroke-8" stroke-width="1.5" stroke-linecap="round" stroke-linejoin="round" points="269.311403 131.67235 266.521812 132.776563 266.521812 131.091186 264.778318 130.219438 259.431602 129.057109 258.094923 126.267518 259.722184 124.872723 259.082903 123.071112 258.094923 121.734433 256.351429 121.6182 256.584476 119.932822 255.072866 119.351657 254.724167 117.724396 252.690091 117.317581 252.690091 117.375697 250.482246 117.085115 247.75019 119.351657 244.146969 119.874706 242.868406 120.978919 241.18361 120.223404 233.860352 121.153268 230.954529 114.760456 228.862335 112.37768 227.700006 113.656243 226.247094 108.890692 223.689969 105.636169 221.540241 104.764422"></polyline>
                    <polyline id="Stroke-9" stroke-width="1.5" stroke-linecap="round" stroke-linejoin="round" points="210.207411 113.016903 214.100634 117.433755 214.333681 120.746395 211.660323 123.594102 212.299605 125.337596 211.369741 126.674275 208.288987 128.592119 210.032481 130.277497 211.369741 134.287534 209.684363 134.694349 208.870151 136.089144 209.974946 139.866715 208.986384 143.179355 210.55611 144.457917 212.415838 148.816653 212.53207 152.245525 213.868749 153.407854 213.6944 156.836726 212.938305 162.009093"></polyline>
                    <polyline id="Stroke-11" stroke-width="1.5" stroke-linecap="round" stroke-linejoin="round" points="287.967141 173.516504 285.235666 177.294075 282.03926 179.211919 279.772136 179.328152 279.540252 177.700309 277.622408 176.771027 275.297749 179.328152 273.554255 179.386268 273.554255 177.642774 271.81076 177.642774 269.369868 173.109689 266.522161 171.249961 263.383871 171.947359 260.012534 171.075612 256.584243 183.221374 253.271604 178.805103 252.341741 180.141201 250.888829 179.211919 249.551569 180.199899 248.331704 179.153221 246.936327 180.258015 246.762559 182.001509 243.449339 184.268052 242.229474 182.98949 237.580156 183.861237 234.616215 182.001509 234.616215 180.258015 236.765944 177.584657 237.056526 174.388251 236.069127 172.993456 231.535461 171.249961 227.642238 163.404237 224.15525 166.891226 221.65566 164.740335 219.970863 165.728896 216.251409 165.67078 212.938188 162.00886"></polyline>
                    <polyline id="Stroke-12" stroke-width="1.5" stroke-linecap="round" stroke-linejoin="round" points="140.118883 148.003138 143.257172 149.862866 143.431522 151.722593 145.175016 151.60636 145.93053 155.093348 147.557792 155.965096 153.369439 155.674513 152.497692 153.989135 155.635982 155.73263 155.752215 157.53424 161.098931 165.147499 160.633999 168.518254 163.365473 171.017263 165.050851 171.017263 166.56188 174.213669 168.014791 174.969183 167.143044 176.538328 168.654073 177.177609 172.024828 176.596445 172.954692 177.99124 174.64007 176.305862 181.265348 175.724698 182.369561 174.271786 190.040936 175.840931 191.668197 175.375999 194.515905 175.434115"></polyline>
                    <polyline id="Stroke-13" stroke-width="1.5" stroke-linecap="round" stroke-linejoin="round" points="212.938421 162.008977 212.938421 161.95086 210.555645 161.95086 207.824171 164.159286 202.88427 165.844664 201.605708 166.890761 202.593688 170.02905 201.605708 171.423846 196.491458 172.005011 194.457381 175.434464 194.516079 175.434464"></polyline>
                    <path d="M194.515963,175.434231 L195.155244,177.700193 C196.550039,178.688754 198.002951,179.618618 199.397166,180.548481 L201.548056,185.430265 L201.257474,187.754924 L202.536037,191.706845 L197.131204,196.704862 L199.746446,199.901268 L200.443262,203.097674 L199.397166,204.550586 L200.559495,212.628776 L196.956274,211.466447 L196.550039,213.500523 L192.132606,218.962891 L193.178703,220.300151 L191.842024,221.404364 L191.725791,223.380324 L189.924761,224.077722 L190.796508,225.995566 L188.878665,227.099198 L188.819967,227.099198" id="Stroke-14" stroke-width="1.5" stroke-linecap="round" stroke-linejoin="round"></path>
                    <polyline id="Stroke-16" stroke-width="1.5" stroke-linecap="round" stroke-linejoin="round" points="255.305565 251.50835 251.76046 249.532971 250.191315 249.532971 248.738403 250.811534 248.62217 249.009342 244.554017 251.567048 240.020931 248.661224 235.952778 240.350568 234.732332 235.120085 229.501849 230.645116 227.874588 230.470767 227.758355 232.155564 224.0389 231.400049 223.167153 228.08741 221.888591 227.158128 221.249309 227.739293 217.355506 230.993234 216.309409 229.714672 212.299372 238.955191 210.788344 235.933135 211.078926 234.18964 209.684131 233.317893 208.986733 230.818885 205.964676 228.494226 203.175085 230.993234 201.431591 236.223717 199.223165 239.072006 195.50371 238.141561 192.53977 240.059986 190.621926 237.095464 191.668023 233.782825 189.40148 230.295836 188.820316 227.09943"></polyline>
                    <path d="M289.420053,168.227556 L289.420053,168.111323" id="Stroke-18" stroke-width="1.5" stroke-linecap="round" stroke-linejoin="round"></path>
                    <polyline id="Stroke-20" stroke-width="1.5" stroke-linecap="round" stroke-linejoin="round" points="40.6815335 117.026882 42.3669113 118.189212 45.0402692 117.259348 47.7717436 120.68822 49.399005 120.339521 49.399005 118.654143 49.6314709 120.339521 51.1424992 119.758356 50.7938004 121.385618 52.4791782 121.792433 54.6294878 120.920686 54.8038373 119.119075 55.1525361 123.594044 56.6635645 124.523907 58.2327094 123.710277 57.942127 120.339521 58.2908258 122.083015 60.0343201 122.431714 58.7557577 123.65216 59.6275048 125.163189 61.7778144 126.093052 63.3469593 125.395655 61.8940474 126.151169 62.0683968 127.720314 63.2888428 129.347575 62.823911 131.497885 64.1024735 132.89268 63.3469593 131.207302 64.9742206 129.812507 66.8339479 129.347575 68.2287433 130.451788 67.5313456 127.022916 69.3329564 129.870623 70.2047035 128.359595 72.3550131 128.708294 73.5754591 130.103089 72.4131296 131.556001 68.7517916 131.091069 71.5413825 133.299495 78.7478255 132.718331 80.3169704 133.590078 78.5734761 133.706311 79.5033397 135.217339 76.9462148 137.716348 78.2828937 141.319569 81.8279988 141.900734 82.9903283 143.063063 85.8961521 140.912754 90.0805384 140.564055 86.1286181 142.075083 85.7799192 145.910771 84.0364249 146.666285 87.465297 147.886731 90.2548879 150.850671 85.7218027 155.616222 85.9542686 158.231464 91.9983822 165.321674 93.2188282 169.447944 97.9262628 173.283631 100.715854 173.922912 101.587601 176.015106 105.074589 176.713084 107.806064 178.920929 108.212879 177.294249 109.898257 177.584832 107.224899 183.163432 108.910277 183.687062 111.351169 188.33638 109.723907 188.626962 110.653771 191.706554 108.910277 195.019775 106.178802 196.937037 106.934317 199.37851 111.467402 202.225636 117.511515 208.792798 118.731961 213.093418 119.08066 214.720679 117.802098 216.638523 116.349186 212.105437 110.188839 206.003207 109.607675 204.375946 107.922297 207.746702 104.319075 236.863638 106.643734 232.329971 109.200859 235.352028 109.317092 236.979289 105.655754 236.456241 103.796027 240.466278 103.796027 243.25645 97.461331 272.314688 95.1947884 276.440377 92.5214305 280.101715 88.8600924 282.775654 92.2308481 284.344218 92.5214305 286.203945 93.8581094 284.983499 97.6937969 285.739013 98.5074275 287.366274 97.4032145 290.853263 95.8921861 292.189942 96.5895838 293.817784 98.9142429 294.340252 99.1467088 292.248058 100.890203 291.72501 101.006436 293.70097 104.435308 295.502581 110.01449 297.711007 113.675828 297.478541 115.186856 300.210597 119.719941 303.92947 121.05662 303.057723 122.451416 303.813237 125.880288 302.069743 125.938404 302.127859 132.44745 307.881391 139.53766 306.893992 140.990572 308.113856 146.744103 307.997624 150.405441 308.230089 151.684003 306.951527 151.509654 303.173956 152.904449 302.418442 156.85637 303.755121 162.609901 305.266149 165.399492 307.765739 169.118946 307.532692 172.431586 311.891427 173.070867 310.20605 174.98871 310.147933 181.149057 313.053757 180.044844 315.902045 185.100977 317.412493 186.495192 320.725132 188.3555 320.841946 190.970742 318.517287 192.772352 318.400473 198.293418 319.620919 200.966775 321.713693 204.569997 321.423111 204.569997 319.737152 209.277432 317.29626 212.938188 316.656979 217.936787 317.993657 214.566031 313.809271 214.333565 303.638888 214.624147 297.82724 217.878089 291.666894 219.389698 290.097749 219.447815 290.040213 222.586105 287.715554 226.538025 287.715554 230.373131 283.47247 236.765944 278.881269 241.648309 277.486473 243.333687 280.392297 245.077181 280.799113 245.25153 280.799113 253.50407 281.03216 254.6664 282.485072 254.375817 284.111752 256.525546 284.576684 262.163425 283.937983 260.884281 282.600723 261.640377 281.147811 263.208941 281.264044 265.88288 284.460451 273.554255 283.588703 275.820797 288.702953 281.515631 290.040213 283.085357 289.574701 286.746113 291.72501 286.572345 293.352271 291.744712 291.841243 295.173003 292.771107 295.870981 294.456485 297.033311 291.202543 301.33393 291.957476 301.392047 290.272098 304.646569 289.574701 306.215133 288.121789 308.42414 288.296719 309.702122 285.215965 307.668045 284.228566 311.213731 279.52055 314.410137 279.113735 315.513769 277.079658 316.909146 274.639347 320.221785 273.069621 320.861066 270.628729 329.229839 266.095644 329.520421 261.911258 333.123643 256.855124 334.344089 254.29858 332.01943 251.275943 325.102988 253.717416 319.756853 250.869127 316.094934 250.171729 312.434177 245.754877 313.53839 242.90717 311.271848 239.769461 312.55041 238.722784 313.364041 235.293912 313.364041 235.177679 313.479693 235.120143 314.52637 233.841 316.560447 233.899116 314.410137 228.494284 310.864451 228.319934 307.842976 226.402672 307.377463 222.566403 305.750782 222.508287 304.414103 219.428695 315.630583 214.604446 316.792913 212.512253 316.094934 210.943108 317.722777 207.979168 313.479693 205.015227 312.201711 201.818821 312.607945 200.01721 309.354004 198.680531 307.668045 197.111387 307.377463 195.367892 307.377463 195.251659 307.494277 195.193543 312.259828 190.486108 312.840993 188.684497 310.864451 186.069256 306.331947 181.768637 307.726743 178.165996 305.576433 175.027125 305.808899 173.341748 303.890474 172.935514 298.950574 173.283631 296.04475 175.724523 294.069371 174.910893 292.442109 178.281648 293.778788 180.083259 289.768751 183.163432 285.642482 183.744597 285.99118 180.781238 289.30382 178.747161 289.94252 174.679008 287.967141 173.516678 287.850908 173.457981 289.420053 168.227498"></polyline>
                    <path d="M307.377695,195.368067 L307.493928,195.193717" id="Stroke-22" stroke-width="1.5" stroke-linecap="round" stroke-linejoin="round"></path>
                    <polyline id="Stroke-24" stroke-width="1.5" stroke-linecap="round" stroke-linejoin="round" points="304.413987 219.42852 300.868882 220.125337 299.706553 221.287666 295.173467 219.25359 294.30172 221.520713 295.2897 223.902908 297.846825 225.7051 297.61436 229.133391 295.812749 228.494691 288.490073 230.702536 287.967024 232.329797 284.770618 233.027195 284.24757 234.829387 284.015104 236.804766 280.702465 236.979115 279.249553 240.931617 280.993047 242.209598 279.540135 243.66251 277.099243 242.84946 275.239516 245.812819 276.111263 247.382545 281.922911 250.636487 281.806678 253.367961 281.225513 253.542311 279.830718 253.542311 277.389826 256.390599 274.367769 254.995223 274.309652 253.367961 268.846704 252.903611 268.556121 249.532855 267.103209 250.811418 265.708414 249.997787 260.652281 252.264329 258.618204 249.76474 255.247448 249.358506 255.305565 251.508234"></polyline>
                    <polyline id="Stroke-26" stroke-width="1.5" stroke-linecap="round" stroke-linejoin="round" points="179.754145 34.7338933 177.603836 35.547524 177.37137 37.2910183 179.172981 40.4874245 177.487603 39.6156773 173.768148 44.7880437 173.651915 44.9623931 167.375336 49.3792454 154.473478 52.5175351 146.220938 56.9925038 142.850183 64.3151798 143.838163 65.6518588 149.010529 66.8141883 149.068646 66.8141883 148.196899 67.1628871 148.080666 67.2210036 144.128745 68.0927508 141.281038 70.5917592 135.701856 72.1609041 130.761956 70.068711 123.497396 69.3131968 117.976331 67.3372366 114.896158 68.732032 111.176703 62.5716855 112.571499 58.0386003 111.990334 56.411339 108.212763 56.0045237 106.759851 57.0506202 102.98228 57.3412026 96.3570017 54.6678447 96.2407687 56.2369896 98.1586124 57.3412026 98.4491948 60.18891 97.3449818 61.3512395 98.8560102 67.2791201 103.795911 72.5677194 102.98228 78.4374836 104.14461 80.0647449 103.854027 83.5517335 102.517348 86.8643726 104.95824 92.3273214 106.469269 93.0247191 107.92218 92.0948555 107.341016 93.8383498 103.214746 94.3032816 103.040396 94.3032816 96.5313511 94.3032816 96.7057005 91.0487589 94.7878568 91.4555743 92.5213142 93.7221169 93.7998767 96.8022901"></polyline>
                    <polyline id="Stroke-28" stroke-width="1.5" stroke-linecap="round" stroke-linejoin="round" points="180.974649 74.7182034 183.299309 73.2652915 181.265232 68.3835075 182.078863 63.7341894 181.265232 58.6199395 183.008726 55.9465815 181.032766 51.006681 173.768206 44.7882181"></polyline>
                    <polyline id="Stroke-30" stroke-width="1.5" stroke-linecap="round" stroke-linejoin="round" points="114.838216 98.9525997 111.641809 97.6159208 107.515539 100.405512 105.946395 99.8243469 103.21492 94.3032816"></polyline>
                    <polyline id="Stroke-32" stroke-width="1.5" stroke-linecap="round" stroke-linejoin="round" points="114.838216 98.9525997 114.780099 105.984693 113.908352 107.379489 114.954448 117.433639 111.758042 118.770318 109.723966 123.768335 109.433383 124.988781 105.481463 122.954705 100.25098 125.221247 99.3211163 126.848508 91.7078579 127.080974 88.6858011 129.056935 88.4533352 132.543923 79.5033979 135.217281"></polyline>
                    <polyline id="Stroke-34" stroke-width="1.5" stroke-linecap="round" stroke-linejoin="round" points="159.064912 111.622166 157.205185 111.157234 155.345458 109.123157 153.718196 109.704322 149.475694 106.856615 148.54583 101.974831 146.976685 101.103084 140.583873 104.473839 138.840378 104.415723 138.840378 102.672229 136.922535 101.800481 135.818322 98.3134928 134.19106 98.1391434 133.842361 99.7664048 128.553762 99.7664048 124.601842 101.626132 123.14893 100.638152 121.754134 101.568016 119.836291 99.4177059 114.838274 98.9527741"></polyline>
                    <polyline id="Stroke-36" stroke-width="1.5" stroke-linecap="round" stroke-linejoin="round" points="176.151098 85.1209946 175.163118 81.6921225 176.499797 80.2392106 178.650107 80.2392106 180.974766 74.7181453"></polyline>
                    <polyline id="Stroke-38" stroke-width="1.5" stroke-linecap="round" stroke-linejoin="round" points="159.064912 111.622166 159.006796 111.564049 158.425631 107.26343 162.784367 104.241373 162.493784 101.568016 162.551901 98.9527741 159.820426 96.4537656 159.76231 94.5359219 161.157105 93.0248935 164.585977 92.4437287 167.666151 90.5840015 169.351529 91.5138651 172.838517 90.7002344 172.664168 89.1310896 176.151156 85.1210527"></polyline>
                    <polyline id="Stroke-40" stroke-width="1.5" stroke-linecap="round" stroke-linejoin="round" points="149.010587 66.8143045 148.196957 67.1048869 148.196957 67.1630034"></polyline>
                    <polyline id="Stroke-42" stroke-width="1.5" stroke-linecap="round" stroke-linejoin="round" points="159.064912 111.622166 160.227242 113.830592 159.994776 114.876689 158.832446 116.097135 159.878543 117.375697 160.052892 120.63022 156.449671 126.790566 154.589944 127.371731 154.241245 129.405808 154.241245 129.463924 149.766276 132.021049 148.139015 131.8467 148.429597 133.764543 144.884492 132.311632 144.41956 133.706427 143.43158 139.053143 140.118941 148.00308"></polyline>
                    <polyline id="Stroke-44" stroke-width="1.5" stroke-linecap="round" stroke-linejoin="round" points="93.7999348 96.8024645 92.6376053 95.8726008 91.6496252 93.2573594 89.9642474 93.2573594 89.9642474 94.3615725 87.5814718 94.5940384 87.0003071 92.7924276 85.1986963 93.6060583 84.6175315 92.0950299 82.5253384 92.2693793 76.3068754 97.4417457 75.7838271 95.2914361 73.4591681 93.7804077 73.4010516 91.9787969 70.7276937 87.3875953 69.0423159 87.0388964 69.3910147 85.4116351 67.6475204 85.5859845 66.7176568 87.3294788 67.4150545 83.4937914 64.7416966 85.3535186 64.3929978 83.3194419 59.2787478 85.4116351 58.4070007 84.0168396 55.7917592 86.1090328 55.6174098 89.7122543 53.7576826 90.0028367 53.6995661 90.0028367 50.8518587 88.2593424 49.2245974 88.6080413 48.8758986 90.5840015 47.5973361 89.0148566 46.6674724 90.9327003 46.5512395 87.1551294 38.2405834 89.5960214 37.3688362 88.084993 31.4409556 91.2813992 32.951984 92.0950299 28.0702 91.5719816 26.9659869 92.966777 26.1523563 98.1972599 27.1984528 99.5339389 28.7675977 98.8946576 30.3367426 99.5920553 37.4269527 97.4417457 35.2766431 98.4878423 34.9860607 100.463802 38.4149328 99.5920553 38.1824669 101.277433 39.8678447 102.032947 38.0662339 102.381646 41.727572 103.950791 38.2405834 103.13716 37.4850692 101.684248 35.2766431 102.265413 31.9058874 101.626132 30.9179073 100.231337 30.0461602 102.32353 31.4409556 105.345586 32.4870522 103.776442 34.1143135 103.892675 37.2526033 105.752402 37.7175351 107.612129 36.8457879 109.065041 35.392876 108.309527 28.0702 109.006925 27.1984528 110.459836 32.7195181 112.55203 34.8698277 116.155251 34.288663 119.351657 38.5311657 119.700356 40.6233589 117.317581 40.6814754 117.026998"></polyline>
                    <path d="M40.6815335,117.026882 L40.7977664,115.283388" id="Stroke-46" stroke-width="1.5" stroke-linecap="round" stroke-linejoin="round"></path>
                    <polyline id="Stroke-48" stroke-width="1.5" stroke-linecap="round" stroke-linejoin="round" points="40.7978827 115.283388 40.2167179 115.341504 40.6235332 117.026882 40.6816497 117.026882"></polyline>
                    <polyline id="Stroke-50" stroke-width="1.5" stroke-linecap="round" stroke-linejoin="round" points="40.7978827 115.283388 41.8439793 115.109038 40.9722321 113.481777 40.7978827 115.283388"></polyline>
                    <path d="M93.7999348,96.8024645 L93.9742843,96.9768139" id="Stroke-52" stroke-width="1.5" stroke-linecap="round" stroke-linejoin="round"></path>
                    <polyline id="Stroke-56" stroke-width="1.5" stroke-linecap="round" stroke-linejoin="round" points="83.3971437 150.502031 82.2929306 151.780593 85.8380357 155.209465 85.7218027 153.349738 83.9201919 152.303641 83.3971437 150.502031"></polyline>
                    <polyline id="Stroke-58" stroke-width="1.5" stroke-linecap="round" stroke-linejoin="round" points="140.118883 148.003138 136.225079 151.490127 134.946516 150.153448 129.309218 150.269681 126.054695 150.734613 123.904386 153.466087 116.814176 153.931019 118.092738 157.243658 120.53363 159.626434 123.323221 170.087399 123.148872 174.388019 124.601784 175.550348 119.313184 178.16559 117.976505 177.119493 114.198934 177.293842 114.954448 175.550348 109.898315 177.584425"></polyline>
                    <polyline id="Stroke-60" stroke-width="1.5" stroke-linecap="round" stroke-linejoin="round" points="101.064494 180.606249 100.715796 180.78118 100.134631 179.328268 100.076514 179.212035 101.529426 180.490597 101.47131 180.490597"></polyline>
                    <polyline id="Stroke-62" stroke-width="1.5" stroke-linecap="round" stroke-linejoin="round" points="101.529601 180.490481 102.633814 180.083666 105.772103 182.117742 104.086725 182.81514 101.471484 180.490481 101.529601 180.490481"></polyline>
                    <polyline id="Stroke-64" stroke-width="1.5" stroke-linecap="round" stroke-linejoin="round" points="101.471426 180.490481 100.134747 179.328152 100.018514 179.211919 100.657795 180.781063 101.064611 180.606133 101.471426 180.490481"></polyline>
                    <polyline id="Stroke-66" stroke-width="1.5" stroke-linecap="round" stroke-linejoin="round" points="102.749814 189.091603 106.527385 195.600649 107.282899 193.740921 106.759851 189.498419 103.795911 187.464342 102.749814 189.091603"></polyline>
                    <polyline id="Stroke-68" stroke-width="1.5" stroke-linecap="round" stroke-linejoin="round" points="188.820083 227.09943 184.92686 227.041314 181.846106 228.552342 177.952883 225.065354 173.303565 225.472169 172.89675 228.377993 172.083119 231.516864 169.467878 233.376591 169.816577 235.410668 166.271472 237.444744 163.598114 241.163618 161.622153 242.965809 163.133182 248.311944 158.774446 249.416157 158.774446 251.159651 160.169241 251.915166 157.612117 255.111572 158.367631 256.738833 156.740369 256.564484 154.706293 259.295958 153.137148 260.11017 148.13855 259.529005 145.232726 261.156267 140.351523 260.74887 139.596009 262.201782 137.387002 261.853664 137.387002 261.9112 137.213233 263.538461 135.760321 264.293975 135.352925 262.550481 129.948674 264.178323 130.239256 267.839661 127.797783 274.290009 128.66953 275.859154 132.505799 276.033503 132.563915 276.092201 133.958711 279.462957 133.14508 281.032102 134.77176 281.032102 135.062342 285.274604 133.551314 286.087654 134.016827 287.889846 129.309392 293.236562 129.541277 294.980056 127.624015 295.444988 126.694151 297.071668 125.938637 302.128382"></polyline>
                    <polyline id="Stroke-70" stroke-width="1.5" stroke-linecap="round" stroke-linejoin="round" points="132.389217 286.146119 132.447334 287.77338 131.110655 286.843517 132.389217 286.146119"></polyline>
                    <polyline id="Stroke-72" stroke-width="1.5" stroke-linecap="round" stroke-linejoin="round" points="338.644824 277.602881 337.016982 276.963599 335.622768 278.184045 335.91335 288.296312 330.914752 287.482682 328.82314 290.330389 322.604096 292.829398 322.139745 294.456659 320.512484 294.631008 319.233921 296.25827 319.407689 298.292346 317.141728 301.19817 316.792448 302.883548 318.304058 302.302383 320.512484 304.743275 317.490427 306.893585 318.129127 310.089991 322.662793 312.647116 321.209881 313.635096 319.466387 318.458764 323.650192 317.005852 324.173822 320.318491 322.662793 324.444761 328.125161 325.490857 325.336151 327.408701 325.219337 329.152195 328.008928 331.70932 334.460438 333.68528 335.215952 335.312542 336.959447 336.068056 340.329621 327.466817 338.469894 327.292468 339.981503 326.130139 341.201368 323.049965 340.737017 317.993832 340.794553 314.39061 343.933424 307.47475 341.724998 292.364466 339.341641 289.051827 339.690921 282.89148 338.644824 277.602881"></polyline>
                    <path d="M313.364157,235.294202 L313.479809,235.119853" id="Stroke-74" stroke-width="1.5" stroke-linecap="round" stroke-linejoin="round"></path>
                    <path d="M315.630351,277.254414 L315.514118,277.079484" id="Stroke-76" stroke-width="1.5" stroke-linecap="round" stroke-linejoin="round"></path>
                    <polyline id="Stroke-78" stroke-width="1.5" stroke-linecap="round" stroke-linejoin="round" points="265.999229 247.149615 264.604433 249.242389 262.279774 249.939787 261.117445 248.661224 261.872378 246.859032 263.383987 245.581051 265.999229 247.149615"></polyline>
                    <polyline id="Stroke-80" stroke-width="1.5" stroke-linecap="round" stroke-linejoin="round" points="245.25153 280.799287 247.459957 277.312298 250.772596 276.324318 250.191431 274.755173 252.690439 271.965583 254.550167 272.488631 255.653799 266.328284 260.593699 261.039685 256.874826 257.32023 256.816128 254.123824 255.305681 251.508583"></polyline>
                    <polyline id="Stroke-82" stroke-width="1.5" stroke-linecap="round" stroke-linejoin="round" points="270.939129 279.288491 269.660567 281.496917 267.80084 282.135617 265.127482 279.63719 265.476181 277.719346 267.80084 277.719346 269.020704 280.101541 270.939129 279.288491"></polyline>
                    <path d="M219.506048,290.155807 L219.44735,290.040155" id="Stroke-84" stroke-width="1.5" stroke-linecap="round" stroke-linejoin="round"></path>
                    <polyline id="Stroke-86" stroke-width="2" points="206.701128 43.0447238 249.164513 0.580757949 376.788295 0.580757949"></polyline>
                    <path d="M207.707938,45.7181398 C207.707938,48.1253243 205.756968,50.0768755 203.349202,50.0768755 C200.942018,50.0768755 198.990467,48.1253243 198.990467,45.7181398 C198.990467,43.3109554 200.942018,41.3594041 203.349202,41.3594041 C205.756968,41.3594041 207.707938,43.3109554 207.707938,45.7181398 Z" id="Stroke-89" stroke-width="2"></path>
                    <path d="M250.453071,208.909089 L376.788411,208.909089" id="Stroke-91" stroke-width="2"></path>
                    <path d="M0,271.674884 L187.51223,271.674884" id="Stroke-94" stroke-width="2"></path>
                    <path d="M0,208.909089 L145.678828,208.909089" id="Stroke-96" stroke-width="2"></path>
                    <path d="M0,141.300158 L113.133601,141.300158" id="Stroke-98" stroke-width="2"></path>
                    <path d="M249.784499,208.909089 C249.784499,211.316855 247.833529,213.267825 245.425764,213.267825 C243.018579,213.267825 241.067028,211.316855 241.067028,208.909089 C241.067028,206.501324 243.018579,204.550354 245.425764,204.550354 C247.833529,204.550354 249.784499,206.501324 249.784499,208.909089 Z" id="Stroke-100" stroke-width="2"></path>
                    <path d="M250.453071,147.577203 L376.788411,147.577203" id="Stroke-102" stroke-width="2"></path>
                    <path d="M249.784499,147.577203 C249.784499,149.984387 247.833529,151.935938 245.425764,151.935938 C243.018579,151.935938 241.067028,149.984387 241.067028,147.577203 C241.067028,145.169437 243.018579,143.218467 245.425764,143.218467 C247.833529,143.218467 249.784499,145.169437 249.784499,147.577203 Z" id="Stroke-105" stroke-width="2"></path>
                    <path d="M195.678292,271.442767 C195.678292,273.849951 193.726741,275.801502 191.319557,275.801502 C188.911791,275.801502 186.960821,273.849951 186.960821,271.442767 C186.960821,269.035001 188.911791,267.084031 191.319557,267.084031 C193.726741,267.084031 195.678292,269.035001 195.678292,271.442767 Z" id="Stroke-107" stroke-width="2"></path>
                    <path d="M154.531653,208.909089 C154.531653,211.316855 152.580683,213.267825 150.172917,213.267825 C147.765732,213.267825 145.814181,211.316855 145.814181,208.909089 C145.814181,206.501324 147.765732,204.550354 150.172917,204.550354 C152.580683,204.550354 154.531653,206.501324 154.531653,208.909089 Z" id="Stroke-109" stroke-width="2"></path>
                    <path d="M121.850782,141.319744 C121.850782,143.726928 119.899231,145.678479 117.492046,145.678479 C115.084862,145.678479 113.133311,143.726928 113.133311,141.319744 C113.133311,138.912559 115.084862,136.961008 117.492046,136.961008 C119.899231,136.961008 121.850782,138.912559 121.850782,141.319744 Z" id="Stroke-111" stroke-width="2"></path>
                </g>
            </g>
        </g>
    </g>
</svg>