<?xml version="1.0" encoding="utf-8"?>
<!-- Generator: Adobe Illustrator 22.1.0, SVG Export Plug-In . SVG Version: 6.00 Build 0)  -->
<svg version="1.1" id="Calque_1" xmlns="http://www.w3.org/2000/svg" xmlns:xlink="http://www.w3.org/1999/xlink" x="0px" y="0px"
	 viewBox="0 0 448.2 293.2" style="enable-background:new 0 0 448.2 293.2;" xml:space="preserve">
<style type="text/css">
	.st0{display:none;}
	.st1{display:inline;fill:#EEEEEE;}
	.st2{opacity:0.35;fill:#FFFFFF;enable-background:new    ;}
	.st3{fill:#FFFFFF;}
	.st4{fill:#8F397B;}
	.st5{fill:#673B8E;}
	.st6{fill:#C83463;}
	.st7{fill:#474190;}
	.st8{fill:#A23E7E;}
	.st9{fill:none;stroke:#A23E7E;stroke-width:0.1;stroke-miterlimit:10;}
	.st10{enable-background:new    ;}
	.st11{clip-path:url(#SVGID_2_);}
	.st12{fill:#C73462;}
	.st13{clip-path:url(#SVGID_4_);}
	.st14{clip-path:url(#SVGID_6_);}
	.st15{fill:#40549C;}
	.st16{clip-path:url(#SVGID_8_);}
	.st17{fill:#673B8F;}
	.st18{clip-path:url(#SVGID_10_);}
	.st19{fill:#A23E7D;}
	.st20{clip-path:url(#SVGID_12_);}
	.st21{clip-path:url(#SVGID_14_);}
	.st22{fill:#79297C;}
	.st23{clip-path:url(#SVGID_16_);}
	.st24{fill:#3D70AF;}
	.st25{clip-path:url(#SVGID_18_);}
	.st26{clip-path:url(#SVGID_20_);}
	.st27{clip-path:url(#SVGID_22_);}
	.st28{clip-path:url(#SVGID_24_);}
	.st29{clip-path:url(#SVGID_26_);}
	.st30{clip-path:url(#SVGID_28_);}
	.st31{clip-path:url(#SVGID_30_);}
	.st32{clip-path:url(#SVGID_32_);}
	.st33{fill:#7A287D;}
	.st34{fill:none;stroke:#474190;stroke-width:0.75;stroke-miterlimit:10;}
	.st35{opacity:0.2;fill:#474190;enable-background:new    ;}
	.st36{clip-path:url(#SVGID_34_);}
	.st37{clip-path:url(#SVGID_36_);}
	.st38{clip-path:url(#SVGID_38_);}
	.st39{clip-path:url(#SVGID_40_);}
	.st40{clip-path:url(#SVGID_42_);}
	.st41{clip-path:url(#SVGID_44_);}
	.st42{clip-path:url(#SVGID_46_);}
	.st43{clip-path:url(#SVGID_48_);}
	.st44{clip-path:url(#SVGID_50_);}
	.st45{clip-path:url(#SVGID_52_);}
	.st46{clip-path:url(#SVGID_54_);}
	.st47{clip-path:url(#SVGID_56_);}
	.st48{clip-path:url(#SVGID_58_);}
	.st49{clip-path:url(#SVGID_60_);}
	.st50{clip-path:url(#SVGID_62_);}
	.st51{clip-path:url(#SVGID_64_);}
</style>
<g>
	<g>
		<circle class="st3" cx="222.9" cy="222.3" r="70.9"/>
	</g>
	<g>
		<g>
			<path class="st4" d="M234.7,214.3c-1.1,0-2-0.9-2-2l-0.1-5c0-1.1,0.9-2,1.9-2h-15.3h-22.3c-1.2,0-2.1,0.9-2.1,2.1v4.8
				c0,1.2,0.9,2.1,2.1,2.1h22.5H234.7z"/>
			<path class="st5" d="M211.2,214.2c1.1,0,2,0.9,2,2l0.1,5c0,1.1-0.9,2-1.9,2h15.3H249c1.2,0,2.1-0.9,2.1-2.1v-4.8
				c0-1.2-0.9-2.1-2.1-2.1h-22.5H211.2z"/>
			<path class="st5" d="M204.1,214.2c1.1,0,2,0.9,2,2l0.1,5c0,1.1-0.9,2-1.9,2h15.3H242c1.2,0,2.1-0.9,2.1-2.1v-4.8
				c0-1.2-0.9-2.1-2.1-2.1h-22.5H204.1z"/>
			<path class="st6" d="M244.6,205.3c-1.3,0-2.4-1.1-2.4-2.4v-4.2c0-1.3,1.1-2.4,2.4-2.4h4.2c1.3,0,2.4,1.1,2.4,2.4v4.2
				c0,1.3-1.1,2.4-2.4,2.4H244.6z"/>
			<path class="st7" d="M196.8,223.2c-1.2,0-2.1,0.9-2.1,2.1v4.8c0,1.2,0.9,2.1,2.1,2.1h33.3c0.1,0,0.2,0,0.2,0h9.5c1.1,0,2-0.9,2-2
				v-5c0-1.1,0.9-2,2-2H196.8z"/>
			<g>
				<path class="st8" d="M236.9,205.4c1.2,0,2.1-0.9,2.1-2.1v-4.8c0-1.2-0.9-2.1-2.1-2.1h-19.6c-0.1,0,0.6,0,0.5,0h-9.5
					c-1.1,0-2,0.9-2,2v5c0,1.1-0.9,2-2,2H236.9z"/>
				<path class="st9" d="M236.9,205.4c1.2,0,2.1-0.9,2.1-2.1v-4.8c0-1.2-0.9-2.1-2.1-2.1h-19.6c-0.1,0,0.6,0,0.5,0h-9.5
					c-1.1,0-2,0.9-2,2v5c0,1.1-0.9,2-2,2H236.9z"/>
			</g>
		</g>
		<g>
			<g class="st10">
				<path class="st7" d="M208.5,245.2H205v2.5h3.3v1H205v3.3h-1v-7.7h4.5L208.5,245.2L208.5,245.2z"/>
			</g>
			<g class="st10">
				<path class="st7" d="M210.2,249.6c0.1,0.5,0.3,0.9,0.7,1.2c0.4,0.2,0.8,0.4,1.4,0.4c0.7,0,1.3-0.2,1.6-0.8l0.8,0.5
					c-0.6,0.9-1.4,1.2-2.5,1.2c-0.9,0-1.6-0.2-2.1-0.8c-0.6-0.6-0.8-1.2-0.8-2.1c0-0.9,0.2-1.5,0.8-2.1c0.6-0.6,1.2-0.9,2.1-0.9
					c0.8,0,1.5,0.3,2,0.9c0.5,0.6,0.8,1.2,0.8,2.1c0,0.1,0,0.3-0.1,0.4L210.2,249.6L210.2,249.6z M212.2,247.2
					c-0.5,0-0.9,0.1-1.3,0.4c-0.4,0.3-0.6,0.7-0.6,1.2h3.7c-0.1-0.6-0.3-0.9-0.6-1.2C213.1,247.4,212.6,247.2,212.2,247.2z
					 M213.5,244.2l-1.1,1.5h-0.9l0.9-1.5H213.5z"/>
			</g>
			<g class="st10">
				<path class="st7" d="M220.6,244.2h1v7.7h-1V251c-0.5,0.7-1.2,1.1-2.1,1.1c-0.8,0-1.4-0.3-2-0.9s-0.8-1.2-0.8-2.1
					c0-0.9,0.2-1.5,0.8-2.1c0.6-0.6,1.2-0.9,2-0.9c0.9,0,1.6,0.4,2.1,1.1V244.2z M218.7,251.2c0.6,0,1-0.2,1.4-0.6
					c0.4-0.4,0.6-0.9,0.6-1.4s-0.2-1-0.6-1.4s-0.9-0.6-1.4-0.6c-0.6,0-1,0.2-1.4,0.6c-0.4,0.4-0.6,0.9-0.6,1.4s0.2,1,0.6,1.4
					C217.6,251,218.1,251.2,218.7,251.2z"/>
				<path class="st7" d="M223.7,249.6c0.1,0.5,0.3,0.9,0.7,1.2c0.4,0.2,0.8,0.4,1.4,0.4c0.7,0,1.3-0.2,1.6-0.8l0.8,0.5
					c-0.6,0.9-1.4,1.2-2.5,1.2c-0.9,0-1.6-0.2-2.1-0.8c-0.6-0.6-0.8-1.2-0.8-2.1c0-0.9,0.2-1.5,0.8-2.1c0.6-0.6,1.2-0.9,2.1-0.9
					c0.8,0,1.5,0.3,2,0.9c0.5,0.6,0.8,1.2,0.8,2.1c0,0.1,0,0.3-0.1,0.4L223.7,249.6L223.7,249.6z M225.6,247.2
					c-0.5,0-0.9,0.1-1.3,0.4c-0.4,0.3-0.6,0.7-0.6,1.2h3.7c-0.1-0.6-0.3-0.9-0.6-1.2C226.5,247.4,226,247.2,225.6,247.2z
					 M226.9,244.2l-1.1,1.5h-0.9l0.9-1.5H226.9z"/>
			</g>
			<g class="st10">
				<path class="st7" d="M230.4,247.4c0.3-0.7,0.9-1,1.7-1v1c-0.5,0-0.9,0.1-1.2,0.4c-0.4,0.2-0.5,0.7-0.5,1.3v2.9h-1v-5.5h1V247.4z
					"/>
			</g>
			<g class="st10">
				<path class="st7" d="M233.5,249.6c0.1,0.5,0.3,0.9,0.7,1.2c0.4,0.2,0.8,0.4,1.4,0.4c0.7,0,1.3-0.2,1.6-0.8l0.8,0.5
					c-0.6,0.9-1.4,1.2-2.5,1.2c-0.9,0-1.6-0.2-2.1-0.8c-0.6-0.6-0.8-1.2-0.8-2.1c0-0.9,0.2-1.5,0.8-2.1c0.6-0.6,1.2-0.9,2.1-0.9
					c0.8,0,1.5,0.3,2,0.9c0.5,0.6,0.8,1.2,0.8,2.1c0,0.1,0,0.3-0.1,0.4L233.5,249.6L233.5,249.6z M235.4,247.2
					c-0.5,0-0.9,0.1-1.3,0.4c-0.4,0.3-0.6,0.7-0.6,1.2h3.7c-0.1-0.6-0.3-0.9-0.6-1.2C236.2,247.4,235.8,247.2,235.4,247.2z"/>
				<path class="st7" d="M240.2,247.4c0.3-0.7,0.9-1,1.7-1v1c-0.5,0-0.9,0.1-1.2,0.4c-0.4,0.2-0.5,0.7-0.5,1.3v2.9h-1v-5.5h1V247.4z
					"/>
			</g>
		</g>
	</g>
	<g>
		<circle class="st3" cx="71.3" cy="70.8" r="70.9"/>
	</g>
	<g>
		<g>
			<g class="st10">
				<path class="st7" d="M62,103.5l-0.6-1.7H58l-0.6,1.7h-1.1l2.9-7.7h1.2l2.9,7.7H62z M58.3,100.8h2.8L59.6,97L58.3,100.8z"/>
			</g>
			<g class="st10">
				<path class="st7" d="M68.4,98h0.9v5.3c0,0.8-0.3,1.5-0.9,1.9c-0.6,0.4-1.2,0.7-2,0.7c-0.6,0-1.2-0.1-1.6-0.4
					c-0.4-0.2-0.8-0.6-1-1l0.9-0.5c0.3,0.6,0.9,0.9,1.8,0.9c0.6,0,1-0.1,1.4-0.4s0.5-0.7,0.5-1.2v-0.8c-0.5,0.7-1.2,1.1-2.1,1.1
					c-0.8,0-1.5-0.3-2-0.9c-0.6-0.6-0.8-1.2-0.8-2c0-0.8,0.2-1.5,0.8-2c0.6-0.6,1.2-0.9,2-0.9c0.9,0,1.6,0.4,2.1,1.1L68.4,98
					L68.4,98L68.4,98z M65,102.1c0.4,0.4,0.9,0.6,1.4,0.6c0.6,0,1-0.2,1.4-0.6c0.4-0.4,0.6-0.9,0.6-1.4c0-0.6-0.2-1-0.6-1.4
					c-0.4-0.4-0.9-0.6-1.4-0.6c-0.6,0-1,0.2-1.4,0.6c-0.4,0.4-0.6,0.9-0.6,1.4C64.5,101.2,64.7,101.7,65,102.1z"/>
				<path class="st7" d="M71.3,96.9c-0.2,0-0.4-0.1-0.5-0.2c-0.1-0.1-0.2-0.2-0.2-0.4c0-0.2,0.1-0.3,0.2-0.4s0.3-0.2,0.5-0.2
					c0.2,0,0.3,0.1,0.4,0.2s0.2,0.3,0.2,0.4c0,0.1-0.1,0.3-0.2,0.4C71.7,96.8,71.5,96.9,71.3,96.9z M70.8,103.5V98h1v5.5H70.8z"/>
			</g>
			<g class="st10">
				<path class="st7" d="M76.3,98.9h-1.5v3c0,0.2,0.1,0.5,0.2,0.6c0.1,0.1,0.2,0.2,0.5,0.2s0.5,0,0.8,0v0.9
					c-0.9,0.1-1.5,0.1-1.8-0.2c-0.4-0.2-0.6-0.7-0.6-1.4v-3h-1.1V98h1.1v-1.3l1-0.3v1.5h1.5L76.3,98.9L76.3,98.9z"/>
			</g>
			<g class="st10">
				<path class="st7" d="M77.8,101.1c0.1,0.5,0.3,0.9,0.7,1.2c0.4,0.2,0.8,0.4,1.4,0.4c0.7,0,1.3-0.2,1.6-0.8l0.8,0.5
					c-0.6,0.9-1.4,1.2-2.5,1.2c-0.9,0-1.6-0.2-2.1-0.8c-0.6-0.6-0.8-1.2-0.8-2.1c0-0.9,0.2-1.5,0.8-2.1c0.6-0.6,1.2-0.9,2.1-0.9
					c0.8,0,1.5,0.3,2,0.9s0.8,1.2,0.8,2.1c0,0.1,0,0.3-0.1,0.4L77.8,101.1L77.8,101.1z M79.7,98.7c-0.5,0-0.9,0.1-1.3,0.4
					c-0.4,0.3-0.6,0.7-0.6,1.2h3.7c-0.1-0.6-0.3-0.9-0.6-1.2C80.6,98.9,80.2,98.7,79.7,98.7z"/>
				<path class="st7" d="M84.6,98.9c0.3-0.7,0.9-1,1.7-1v1c-0.5,0-0.9,0.1-1.2,0.4c-0.4,0.2-0.5,0.7-0.5,1.3v2.9h-1v-5.5h1V98.9z"/>
			</g>
		</g>
		<g>
			<g>
				<g>
					<g>
						<g>
							<defs>
								<path id="SVGID_33_" d="M79.1,49.2c0.1,1.9-1.4,3.5-3.3,3.6h-8.9c-1.9-0.1-3.4-1.7-3.3-3.6v-9.6c-0.1-1.9,1.4-3.5,3.3-3.6
									h8.9c1.9,0.1,3.4,1.7,3.3,3.6V49.2z"/>
							</defs>
							<clipPath id="SVGID_2_">
								<use xlink:href="#SVGID_33_"  style="overflow:visible;"/>
							</clipPath>
							<g class="st11">
								<rect x="62.1" y="34.5" class="st12" width="18.4" height="19.6"/>
							</g>
						</g>
					</g>
				</g>
			</g>
			<g>
				<g>
					<g>
						<g>
							<defs>
								<path id="SVGID_35_" d="M96.2,65.2c0.1,1.9-1.4,3.5-3.3,3.6H84c-1.9-0.1-3.4-1.7-3.3-3.6v-9.6C80.6,53.6,82.1,52,84,52h8.9
									c1.9,0.1,3.4,1.7,3.3,3.6V65.2z"/>
							</defs>
							<clipPath id="SVGID_4_">
								<use xlink:href="#SVGID_35_"  style="overflow:visible;"/>
							</clipPath>
							<g class="st13">
								<rect x="79.2" y="50.5" class="st4" width="18.4" height="19.6"/>
							</g>
						</g>
					</g>
				</g>
			</g>
			<g>
				<g>
					<g>
						<g>
							<defs>
								<path id="SVGID_37_" d="M62,65.2c0.1,1.9-1.4,3.5-3.3,3.6h-8.9c-1.9-0.1-3.4-1.7-3.3-3.6v-9.6c-0.1-1.9,1.4-3.5,3.3-3.6h8.9
									c1.9,0.1,3.4,1.7,3.3,3.6V65.2z"/>
							</defs>
							<clipPath id="SVGID_6_">
								<use xlink:href="#SVGID_37_"  style="overflow:visible;"/>
							</clipPath>
							<g class="st14">
								<rect x="45" y="50.5" class="st15" width="18.4" height="19.6"/>
							</g>
						</g>
					</g>
				</g>
			</g>
			<g>
				<g>
					<g>
						<g>
							<defs>
								<path id="SVGID_39_" d="M79.1,81.9c0.1,1.9-1.4,3.5-3.3,3.6h-8.9c-1.9-0.1-3.4-1.7-3.3-3.6v-9.6c-0.1-1.9,1.4-3.5,3.3-3.6
									h8.9c1.9,0.1,3.4,1.7,3.3,3.6V81.9z"/>
							</defs>
							<clipPath id="SVGID_8_">
								<use xlink:href="#SVGID_39_"  style="overflow:visible;"/>
							</clipPath>
							<g class="st16">
								<rect x="62.1" y="67.3" class="st17" width="18.4" height="19.6"/>
							</g>
						</g>
					</g>
				</g>
			</g>
			<g>
				<g>
					<g>
						<g>
							<defs>
								<path id="SVGID_41_" d="M84.4,58.5c-1.2,1.3-3.1,1.4-4.5,0.2c-0.1-0.1-0.2-0.1-0.2-0.2l-6.3-6.8c-1.3-1.4-1.3-3.6,0-5
									l6.3-6.8c1.2-1.3,3.1-1.4,4.5-0.2c0.1,0.1,0.2,0.1,0.2,0.2l6.3,6.8c1.3,1.4,1.3,3.6,0,5L84.4,58.5z"/>
							</defs>
							<clipPath id="SVGID_10_">
								<use xlink:href="#SVGID_41_"  style="overflow:visible;"/>
							</clipPath>
							<g class="st18">
								<rect x="70.9" y="37.4" class="st19" width="22.1" height="23.6"/>
							</g>
						</g>
					</g>
				</g>
			</g>
			<g>
				<g>
					<g>
						<g>
							<defs>
								<path id="SVGID_43_" d="M63,81.7c-1.2,1.3-3.1,1.4-4.5,0.2c-0.1-0.1-0.2-0.1-0.2-0.2L52,74.9c-1.3-1.4-1.3-3.6,0-5l6.3-6.8
									c1.2-1.3,3.2-1.4,4.5-0.2c0.1,0.1,0.2,0.1,0.2,0.2l6.3,6.8c1.3,1.4,1.3,3.6,0,5L63,81.7z"/>
							</defs>
							<clipPath id="SVGID_12_">
								<use xlink:href="#SVGID_43_"  style="overflow:visible;"/>
							</clipPath>
							<g class="st20">
								<rect x="49.6" y="60.5" class="st7" width="22.1" height="23.6"/>
							</g>
						</g>
					</g>
				</g>
			</g>
			<g>
				<g>
					<g>
						<g>
							<defs>
								<path id="SVGID_45_" d="M73.4,74.9c-1.3-1.4-1.3-3.6,0-5l6.3-6.8c1.2-1.3,3.2-1.4,4.5-0.2c0.1,0.1,0.2,0.1,0.2,0.2l6.3,6.8
									c1.3,1.4,1.3,3.6,0,5l-6.3,6.8c-1.2,1.3-3.1,1.4-4.5,0.2c-0.1-0.1-0.2-0.1-0.2-0.2L73.4,74.9z"/>
							</defs>
							<clipPath id="SVGID_14_">
								<use xlink:href="#SVGID_45_"  style="overflow:visible;"/>
							</clipPath>
							<g class="st21">
								<rect x="70.9" y="60.5" class="st22" width="22.1" height="23.6"/>
							</g>
						</g>
					</g>
				</g>
			</g>
			<g>
				<g>
					<g>
						<g>
							<defs>
								<path id="SVGID_47_" d="M52,51.7c-1.3-1.4-1.3-3.6,0-5l6.3-6.8c1.2-1.3,3.1-1.4,4.5-0.2c0.1,0.1,0.2,0.1,0.2,0.2l6.3,6.8
									c1.3,1.4,1.3,3.6,0,5L63,58.5c-1.2,1.3-3.1,1.4-4.5,0.2c-0.1-0.1-0.2-0.1-0.2-0.2L52,51.7z"/>
							</defs>
							<clipPath id="SVGID_16_">
								<use xlink:href="#SVGID_47_"  style="overflow:visible;"/>
							</clipPath>
							<g class="st23">
								<rect x="49.6" y="37.4" class="st24" width="22.1" height="23.6"/>
							</g>
						</g>
					</g>
				</g>
			</g>
			<g>
				<g>
					<g>
						<g>
							<defs>
								<path id="SVGID_49_" d="M73.4,51.7l1,1.1h1.4c1.9-0.1,3.4-1.7,3.3-3.6v-8.8l-5.7,6.2C72.1,48.1,72.1,50.3,73.4,51.7"/>
							</defs>
							<clipPath id="SVGID_18_">
								<use xlink:href="#SVGID_49_"  style="overflow:visible;"/>
							</clipPath>
							<g class="st25">
								<rect x="70.9" y="39" class="st4" width="9.6" height="15.2"/>
							</g>
						</g>
					</g>
				</g>
			</g>
			<g>
				<g>
					<g>
						<g>
							<defs>
								<path id="SVGID_51_" d="M80.6,55.5v3.7c1.3,0.6,2.8,0.4,3.7-0.7l6.1-6.6H84C82.1,52,80.6,53.6,80.6,55.5"/>
							</defs>
							<clipPath id="SVGID_20_">
								<use xlink:href="#SVGID_51_"  style="overflow:visible;"/>
							</clipPath>
							<g class="st26">
								<rect x="79.2" y="50.5" class="st22" width="12.7" height="10.5"/>
							</g>
						</g>
					</g>
				</g>
			</g>
			<g>
				<g>
					<g>
						<g>
							<defs>
								<path id="SVGID_53_" d="M62,65.2v-2.9c-1.3-0.6-2.8-0.4-3.7,0.7l-5.3,5.8h5.8C60.6,68.6,62,67,62,65.2"/>
							</defs>
							<clipPath id="SVGID_22_">
								<use xlink:href="#SVGID_53_"  style="overflow:visible;"/>
							</clipPath>
							<g class="st27">
								<rect x="51.5" y="60.5" class="st24" width="11.9" height="9.6"/>
							</g>
						</g>
					</g>
				</g>
			</g>
			<g>
				<g>
					<g>
						<g>
							<defs>
								<path id="SVGID_55_" d="M69.2,69.8l-1-1.1h-1.4c-1.9,0.1-3.4,1.7-3.3,3.6v8.7l5.7-6.2C70.5,73.4,70.5,71.2,69.2,69.8"/>
							</defs>
							<clipPath id="SVGID_24_">
								<use xlink:href="#SVGID_55_"  style="overflow:visible;"/>
							</clipPath>
							<g class="st28">
								<rect x="62.1" y="67.3" class="st15" width="9.6" height="15.2"/>
							</g>
						</g>
					</g>
				</g>
			</g>
			<g>
				<g>
					<g>
						<g>
							<defs>
								<path id="SVGID_57_" d="M80.6,62.3v2.9c-0.1,1.9,1.4,3.5,3.3,3.6h5.8L84.4,63C83.4,61.9,81.9,61.6,80.6,62.3"/>
							</defs>
							<clipPath id="SVGID_26_">
								<use xlink:href="#SVGID_57_"  style="overflow:visible;"/>
							</clipPath>
							<g class="st29">
								<rect x="79.2" y="60.5" class="st17" width="11.9" height="9.6"/>
							</g>
						</g>
					</g>
				</g>
			</g>
			<g>
				<g>
					<g>
						<g>
							<defs>
								<path id="SVGID_59_" d="M75.8,68.7h-1.4l-1,1.1c-1.3,1.4-1.3,3.6,0,5l5.7,6.2v-8.7C79.2,70.4,77.7,68.8,75.8,68.7"/>
							</defs>
							<clipPath id="SVGID_28_">
								<use xlink:href="#SVGID_59_"  style="overflow:visible;"/>
							</clipPath>
							<g class="st30">
								<rect x="70.9" y="67.3" class="st4" width="9.6" height="15.2"/>
							</g>
						</g>
					</g>
				</g>
			</g>
			<g>
				<g>
					<g>
						<g>
							<defs>
								<path id="SVGID_61_" d="M66.8,52.8h1.4l1-1.1c1.3-1.4,1.3-3.6,0-5l-5.7-6.2v8.7C63.5,51.1,64.9,52.7,66.8,52.8"/>
							</defs>
							<clipPath id="SVGID_30_">
								<use xlink:href="#SVGID_61_"  style="overflow:visible;"/>
							</clipPath>
							<g class="st31">
								<rect x="62.1" y="39" class="st19" width="9.6" height="15.2"/>
							</g>
						</g>
					</g>
				</g>
			</g>
			<g>
				<g>
					<g>
						<g>
							<defs>
								<path id="SVGID_63_" d="M62,59.2v-3.7c0.1-1.9-1.4-3.5-3.3-3.6h-6.6l6.1,6.6C59.2,59.6,60.8,59.9,62,59.2"/>
							</defs>
							<clipPath id="SVGID_32_">
								<use xlink:href="#SVGID_63_"  style="overflow:visible;"/>
							</clipPath>
							<g class="st32">
								<rect x="50.7" y="50.5" class="st7" width="12.7" height="10.5"/>
							</g>
						</g>
					</g>
				</g>
			</g>
		</g>
	</g>
	<g>
		<circle class="st7" cx="222.9" cy="70.8" r="70.9"/>
	</g>
	<g>
		<g class="st10">
			<path class="st3" d="M177.6,92l-2.2-3.9h-1.7V92h-2.2V80.9h4.4c1,0,1.9,0.4,2.6,1.1c0.7,0.7,1.1,1.6,1.1,2.6
				c0,0.7-0.2,1.4-0.6,1.9c-0.4,0.6-0.9,1-1.5,1.4l2.5,4.2L177.6,92L177.6,92z M173.7,83v3.3h2.3c0.4,0,0.7-0.2,1-0.5
				s0.4-0.7,0.4-1.2c0-0.4-0.1-0.9-0.4-1.2s-0.7-0.5-1-0.5L173.7,83L173.7,83z"/>
		</g>
		<g class="st10">
			<path class="st3" d="M187.5,91c-0.8,0.8-1.8,1.2-2.9,1.2s-2.1-0.4-2.9-1.2c-0.8-0.8-1.2-1.8-1.2-2.9s0.4-2.1,1.2-2.9
				c0.8-0.8,1.8-1.2,2.9-1.2s2.1,0.4,2.9,1.2c0.8,0.8,1.2,1.8,1.2,2.9S188.3,90.2,187.5,91z M183,89.7c0.4,0.4,0.9,0.6,1.5,0.6
				s1.1-0.2,1.5-0.6s0.6-0.9,0.6-1.6c0-0.6-0.2-1.2-0.6-1.6c-0.4-0.4-0.9-0.6-1.5-0.6s-1.1,0.2-1.5,0.6c-0.4,0.4-0.6,0.9-0.6,1.6
				C182.4,88.7,182.6,89.2,183,89.7z"/>
			<path class="st3" d="M194.7,83.9c1,0,2,0.4,2.7,1.2c0.7,0.8,1.1,1.8,1.1,2.9s-0.4,2.1-1.1,2.9c-0.7,0.8-1.7,1.2-2.7,1.2
				c-1.1,0-2-0.4-2.6-1.2V92h-2V80.9h2v4.1C192.8,84.3,193.6,83.9,194.7,83.9z M192.8,89.7c0.4,0.4,0.9,0.6,1.6,0.6
				c0.7,0,1.2-0.2,1.6-0.6c0.4-0.4,0.6-0.9,0.6-1.6c0-0.7-0.2-1.2-0.6-1.6c-0.4-0.4-0.9-0.6-1.6-0.6c-0.7,0-1.2,0.2-1.6,0.6
				c-0.4,0.4-0.6,1-0.6,1.6S192.4,89.2,192.8,89.7z"/>
		</g>
		<g class="st10">
			<path class="st3" d="M206.7,91c-0.8,0.8-1.8,1.2-2.9,1.2c-1.2,0-2.1-0.4-2.9-1.2c-0.8-0.8-1.2-1.8-1.2-2.9s0.4-2.1,1.2-2.9
				c0.8-0.8,1.8-1.2,2.9-1.2c1.2,0,2.1,0.4,2.9,1.2s1.2,1.8,1.2,2.9S207.6,90.2,206.7,91z M202.3,89.7c0.4,0.4,0.9,0.6,1.5,0.6
				s1.1-0.2,1.5-0.6s0.6-0.9,0.6-1.6c0-0.6-0.2-1.2-0.6-1.6c-0.4-0.4-0.9-0.6-1.5-0.6s-1.1,0.2-1.5,0.6c-0.4,0.4-0.6,0.9-0.6,1.6
				C201.7,88.7,201.8,89.2,202.3,89.7z"/>
		</g>
		<g class="st10">
			<path class="st3" d="M213.7,86.1H212v3.3c0,0.2,0.1,0.5,0.2,0.6c0.1,0.1,0.3,0.2,0.6,0.2c0.2,0,0.6,0,1,0v1.8
				c-1.4,0.2-2.4,0-2.9-0.4c-0.6-0.4-0.9-1.2-0.9-2.3v-3.3h-1.4v-2h1.4v-1.6l2-0.6v2.2h1.8V86.1z"/>
		</g>
		<g class="st10">
			<path class="st3" d="M216.2,83.2c-0.4,0-0.6-0.1-0.9-0.4c-0.2-0.2-0.4-0.6-0.4-0.9s0.1-0.6,0.4-0.9c0.2-0.2,0.6-0.4,0.9-0.4
				c0.4,0,0.7,0.1,0.9,0.4c0.2,0.2,0.4,0.6,0.4,0.9s-0.1,0.6-0.4,0.9C216.9,83,216.6,83.2,216.2,83.2z M215.2,92v-7.9h2V92H215.2z"
				/>
		</g>
		<g class="st10">
			<path class="st3" d="M222.9,92.2c-1.2,0-2.2-0.4-3-1.2c-0.8-0.8-1.2-1.8-1.2-2.9s0.4-2.1,1.2-2.9c0.8-0.8,1.8-1.2,3-1.2
				c0.8,0,1.5,0.2,2.1,0.6s1.1,0.9,1.4,1.5l-1.8,1c-0.2-0.3-0.4-0.6-0.7-0.8c-0.3-0.2-0.7-0.3-1.1-0.3c-0.6,0-1.1,0.2-1.5,0.6
				c-0.4,0.4-0.6,0.9-0.6,1.5s0.2,1.2,0.6,1.5c0.4,0.4,0.9,0.6,1.5,0.6c0.4,0,0.8-0.1,1.1-0.3s0.6-0.4,0.7-0.7l1.8,1
				c-0.4,0.6-0.9,1.1-1.5,1.5C224.4,92.1,223.6,92.2,222.9,92.2z"/>
		</g>
		<g class="st10">
			<path class="st3" d="M229.4,86.4c0,0.2,0.1,0.4,0.4,0.5s0.6,0.2,1,0.4c0.4,0.1,0.8,0.2,1.2,0.4c0.4,0.1,0.7,0.4,1,0.7
				c0.3,0.4,0.4,0.8,0.4,1.4c0,0.8-0.3,1.4-0.9,1.9c-0.6,0.4-1.4,0.7-2.3,0.7c-1.6,0-2.8-0.6-3.3-1.9l1.8-1c0.2,0.7,0.7,1,1.5,1
				c0.7,0,1.1-0.2,1.1-0.7c0-0.2-0.1-0.4-0.4-0.5c-0.3-0.1-0.6-0.2-1-0.4c-0.4-0.1-0.8-0.2-1.2-0.4c-0.4-0.2-0.7-0.4-1-0.7
				c-0.3-0.4-0.4-0.8-0.4-1.3c0-0.8,0.3-1.4,0.9-1.8c0.6-0.4,1.3-0.7,2.1-0.7c0.6,0,1.2,0.1,1.8,0.4c0.6,0.3,0.9,0.7,1.2,1.2
				l-1.7,0.9c-0.2-0.6-0.7-0.8-1.3-0.8c-0.2,0-0.5,0.1-0.7,0.2C229.5,86,229.4,86.2,229.4,86.4z"/>
		</g>
		<g class="st10">
			<path class="st3" d="M239.7,81c1,0,2,0.4,2.7,1.1c0.7,0.7,1.1,1.6,1.1,2.6c0,1-0.4,1.9-1.1,2.6c-0.7,0.7-1.6,1.1-2.7,1.1h-2v3.6
				h-2.2V81.1L239.7,81L239.7,81L239.7,81z M239.7,86.4c0.5,0,0.9-0.2,1.2-0.5s0.4-0.7,0.4-1.2c0-0.5-0.1-0.9-0.4-1.2
				c-0.3-0.3-0.7-0.5-1.2-0.5h-2v3.4H239.7z"/>
			<path class="st3" d="M244.8,92.1V80.5h2v11.5H244.8z"/>
			<path class="st3" d="M254.8,84.1h2v7.9h-2v-0.9c-0.6,0.8-1.5,1.2-2.6,1.2c-1,0-2-0.4-2.7-1.2c-0.7-0.8-1.1-1.8-1.1-2.9
				s0.4-2.1,1.1-2.9s1.7-1.2,2.7-1.2c1.1,0,2,0.4,2.6,1.2V84.1z M251,89.7c0.4,0.4,0.9,0.6,1.6,0.6c0.6,0,1.2-0.2,1.6-0.6
				s0.6-0.9,0.6-1.6s-0.2-1.2-0.6-1.6s-0.9-0.6-1.6-0.6c-0.6,0-1.2,0.2-1.6,0.6c-0.4,0.4-0.6,1-0.6,1.6S250.6,89.3,251,89.7z"/>
		</g>
		<g class="st10">
			<path class="st3" d="M262.4,92.3c-1.2,0-2.2-0.4-3-1.2c-0.8-0.8-1.2-1.8-1.2-2.9s0.4-2.1,1.2-2.9c0.8-0.8,1.8-1.2,3-1.2
				c0.8,0,1.5,0.2,2.1,0.6c0.6,0.4,1.1,0.9,1.4,1.5l-1.8,1c-0.2-0.3-0.4-0.6-0.7-0.8c-0.3-0.2-0.7-0.3-1.1-0.3
				c-0.6,0-1.1,0.2-1.5,0.6c-0.4,0.4-0.6,0.9-0.6,1.5s0.2,1.2,0.6,1.5c0.4,0.4,0.9,0.6,1.5,0.6c0.4,0,0.8-0.1,1.1-0.3
				c0.3-0.2,0.6-0.4,0.7-0.7l1.8,1c-0.4,0.6-0.9,1.1-1.5,1.5C263.9,92.1,263.2,92.3,262.4,92.3z"/>
		</g>
		<g class="st10">
			<path class="st3" d="M268.6,88.9c0.2,1,1,1.5,2.2,1.5c0.8,0,1.4-0.2,1.8-0.8l1.7,0.9c-0.8,1.1-1.9,1.7-3.4,1.7
				c-1.3,0-2.3-0.4-3.1-1.2s-1.2-1.8-1.2-3c0-1.2,0.4-2.2,1.2-3c0.8-0.8,1.8-1.2,3-1.2c1.2,0,2.1,0.4,2.9,1.2
				c0.8,0.8,1.1,1.8,1.1,2.9c0,0.2,0,0.6-0.1,0.9L268.6,88.9L268.6,88.9z M268.6,87.4h4.1c-0.1-0.6-0.4-0.9-0.7-1.2
				c-0.4-0.2-0.8-0.4-1.2-0.4c-0.6,0-1,0.1-1.4,0.4C269,86.5,268.8,86.8,268.6,87.4z"/>
		</g>
		<path class="st3" d="M233.1,37.9l1.9-0.5c0.4-0.1,0.9,0.1,1,0.6l0.5,1.9c0.1,0.4-0.1,0.9-0.6,1l-1.9,0.5c-0.4,0.1-0.9-0.1-1-0.6
			l-0.5-1.9C232.4,38.4,232.7,38,233.1,37.9z"/>
		<path class="st3" d="M231.4,57.7c-0.1-0.4-0.6-0.7-1-0.6l-13.6,3.6c-0.4,0.1-0.7,0.6-0.6,1l0.5,1.9c0.1,0.4,0.6,0.7,1,0.6l0.4-0.1
			c0.4-0.1,0.9,0.1,1,0.6l0.5,1.9c0.1,0.4,0.6,0.7,1,0.6l7.7-2.1c0.4-0.1,0.7-0.6,0.6-1l-0.5-1.9c-0.1-0.4,0.1-0.9,0.6-1l2.4-0.6
			c0.4-0.1,0.7-0.6,0.6-1L231.4,57.7z"/>
		<path class="st3" d="M222.5,70.4l3.6-1c0.4-0.1,0.9,0.1,1,0.6l0.5,1.9c0.1,0.4-0.1,0.9-0.6,1l-3.6,1c-0.4,0.1-0.9-0.1-1-0.6
			l-0.5-1.9C221.8,70.9,222,70.5,222.5,70.4z"/>
		<path class="st3" d="M235.5,45.2c-0.1-0.4-0.6-0.7-1-0.6l-4.5,1.2l0,0c-0.4,0.1-0.9-0.1-1-0.6l-0.6-1.9c-0.1-0.4,0.1-0.9,0.6-1
			h0.1l1-0.2c0.4-0.1,0.7-0.6,0.6-1l-0.5-1.9c-0.1-0.4-0.6-0.7-1-0.6l-13.3,3.6c-0.4,0.1-0.7,0.6-0.6,1l0,0l0.5,1.9
			c0.1,0.4-0.1,0.9-0.6,1l0,0h-0.1l-3.8,1c-0.4,0.1-0.7,0.6-0.6,1l0.5,1.9c0.1,0.4-0.1,0.9-0.6,1l0,0l0,0l-1.1,0.3
			c-0.4,0.1-0.7,0.6-0.6,1l0,0l0.5,1.9c0.1,0.4,0.6,0.7,1,0.6l0,0l2.5-0.7c0.4-0.1,0.9,0.1,1,0.6l0.5,1.9c0.1,0.4,0.6,0.7,1,0.6
			l17.3-4.7c0.4-0.1,0.7-0.6,0.6-1l-0.6-2c-0.1-0.4,0.1-0.9,0.6-1l1.8-0.5c0.4-0.1,0.7-0.6,0.6-1L235.5,45.2z M223.3,52.1
			c-0.5,0-1-0.1-1.5-0.4c-1.1-0.6-1.8-1.7-1.8-2.9c0-0.1,0-0.2,0-0.2l0,0c0.1-1.8,1.7-3.2,3.6-3.1c1,0.1,1.9,0.6,2.5,1.4l0.1,0.1
			l0,0c1,1.5,0.6,3.6-0.9,4.6C224.6,51.9,223.9,52.1,223.3,52.1L223.3,52.1z"/>
	</g>
	<g>
		<g class="st10">
			<path class="st7" d="M365.5,234.1l-0.6-1.8h-3.6l-0.6,1.8h-1.2l3-8.1h1.2l3,8.1H365.5z M361.6,231.3h2.9l-1.5-4L361.6,231.3z"/>
		</g>
		<g class="st10">
			<path class="st7" d="M370,234.2c-0.9,0-1.6-0.3-2.2-0.9s-0.8-1.3-0.8-2.2c0-0.9,0.3-1.6,0.8-2.2c0.6-0.6,1.3-0.9,2.2-0.9
				c0.6,0,1.1,0.1,1.5,0.4c0.4,0.3,0.8,0.6,1,1.1l-0.8,0.5c-0.1-0.3-0.4-0.6-0.7-0.8c-0.3-0.2-0.6-0.3-1-0.3c-0.6,0-1.1,0.2-1.5,0.6
				s-0.6,0.9-0.6,1.5s0.2,1.1,0.6,1.5c0.4,0.4,0.9,0.6,1.5,0.6c0.4,0,0.7-0.1,1-0.3c0.3-0.2,0.5-0.4,0.7-0.7l0.8,0.5
				c-0.3,0.4-0.6,0.8-1.1,1.1C371.1,234.1,370.6,234.2,370,234.2z"/>
			<path class="st7" d="M376.2,234.2c-0.9,0-1.6-0.3-2.2-0.9s-0.8-1.3-0.8-2.2c0-0.9,0.3-1.6,0.8-2.2c0.6-0.6,1.3-0.9,2.2-0.9
				c0.6,0,1.1,0.1,1.5,0.4c0.4,0.3,0.8,0.6,1,1.1l-0.8,0.5c-0.1-0.3-0.4-0.6-0.7-0.8c-0.3-0.2-0.6-0.3-1-0.3c-0.6,0-1.1,0.2-1.5,0.6
				c-0.4,0.4-0.6,0.9-0.6,1.5s0.2,1.1,0.6,1.5c0.4,0.4,0.9,0.6,1.5,0.6c0.4,0,0.7-0.1,1-0.3c0.3-0.2,0.5-0.4,0.7-0.7l0.8,0.5
				c-0.3,0.4-0.6,0.8-1.1,1.1C377.3,234.1,376.8,234.2,376.2,234.2z"/>
		</g>
		<g class="st10">
			<path class="st7" d="M380.5,231.7c0.1,0.5,0.3,0.9,0.7,1.2c0.4,0.3,0.8,0.4,1.4,0.4c0.8,0,1.3-0.3,1.7-0.8l0.8,0.5
				c-0.6,0.9-1.4,1.3-2.6,1.3c-0.9,0-1.7-0.3-2.2-0.8s-0.8-1.3-0.8-2.2c0-0.9,0.3-1.6,0.8-2.2c0.6-0.6,1.3-0.9,2.2-0.9
				c0.8,0,1.5,0.3,2,0.9c0.5,0.6,0.8,1.3,0.8,2.2c0,0.1,0,0.3-0.1,0.4L380.5,231.7L380.5,231.7z M382.5,229.1c-0.5,0-1,0.1-1.3,0.4
				c-0.4,0.3-0.6,0.7-0.6,1.2h3.8c-0.1-0.6-0.3-1-0.6-1.2C383.3,229.3,382.9,229.1,382.5,229.1z M383.9,226l-1.2,1.5h-1l0.9-1.5
				H383.9z"/>
			<path class="st7" d="M386.5,234.1v-8.4h1v8.4H386.5z"/>
			<path class="st7" d="M389.7,231.7c0.1,0.5,0.3,0.9,0.7,1.2c0.4,0.3,0.8,0.4,1.4,0.4c0.8,0,1.3-0.3,1.7-0.8l0.8,0.5
				c-0.6,0.9-1.4,1.3-2.6,1.3c-0.9,0-1.7-0.3-2.2-0.8s-0.8-1.3-0.8-2.2c0-0.9,0.3-1.6,0.8-2.2c0.6-0.6,1.3-0.9,2.2-0.9
				c0.8,0,1.5,0.3,2,0.9c0.5,0.6,0.8,1.3,0.8,2.2c0,0.1,0,0.3-0.1,0.4L389.7,231.7L389.7,231.7z M391.7,229.1c-0.5,0-1,0.1-1.3,0.4
				c-0.4,0.3-0.6,0.7-0.6,1.2h3.8c-0.1-0.6-0.3-1-0.6-1.2S392.2,229.1,391.7,229.1z M393.1,226l-1.2,1.5h-1l0.9-1.5H393.1z"/>
		</g>
		<g class="st10">
			<path class="st7" d="M396.7,229.3c0.3-0.7,1-1.1,1.8-1.1v1c-0.5,0-0.9,0.1-1.3,0.4s-0.5,0.8-0.5,1.3v3.1h-1v-5.8h1L396.7,229.3
				L396.7,229.3z"/>
		</g>
		<g class="st10">
			<path class="st7" d="M399.9,231.7c0.1,0.5,0.3,0.9,0.7,1.2c0.4,0.3,0.8,0.4,1.4,0.4c0.8,0,1.3-0.3,1.7-0.8l0.8,0.5
				c-0.6,0.9-1.4,1.3-2.6,1.3c-0.9,0-1.7-0.3-2.2-0.8s-0.8-1.3-0.8-2.2c0-0.9,0.3-1.6,0.8-2.2c0.6-0.6,1.3-0.9,2.2-0.9
				c0.8,0,1.5,0.3,2,0.9c0.5,0.6,0.8,1.3,0.8,2.2c0,0.1,0,0.3-0.1,0.4L399.9,231.7L399.9,231.7z M401.9,229.1c-0.5,0-1,0.1-1.3,0.4
				c-0.4,0.3-0.6,0.7-0.6,1.2h3.8c-0.1-0.6-0.3-1-0.6-1.2S402.3,229.1,401.9,229.1z"/>
			<path class="st7" d="M406.9,229.3c0.3-0.7,1-1.1,1.8-1.1v1c-0.5,0-0.9,0.1-1.3,0.4s-0.5,0.8-0.5,1.3v3.1h-1v-5.8h1V229.3z"/>
			<path class="st7" d="M412.6,234.1v-8.4h1v8.4H412.6z"/>
		</g>
		<g class="st10">
			<path class="st7" d="M415.8,231.7c0.1,0.5,0.3,0.9,0.7,1.2c0.4,0.3,0.8,0.4,1.4,0.4c0.8,0,1.3-0.3,1.7-0.8l0.8,0.5
				c-0.6,0.9-1.4,1.3-2.6,1.3c-0.9,0-1.7-0.3-2.2-0.8c-0.6-0.6-0.8-1.3-0.8-2.2c0-0.9,0.3-1.6,0.8-2.2c0.6-0.6,1.3-0.9,2.2-0.9
				c0.8,0,1.5,0.3,2,0.9c0.5,0.6,0.8,1.3,0.8,2.2c0,0.1,0,0.3-0.1,0.4L415.8,231.7L415.8,231.7z M417.8,229.1c-0.5,0-1,0.1-1.3,0.4
				c-0.4,0.3-0.6,0.7-0.6,1.2h3.8c-0.1-0.6-0.3-1-0.6-1.2C418.7,229.3,418.3,229.1,417.8,229.1z"/>
		</g>
		<g class="st10">
			<path class="st7" d="M422.4,229.9c0,0.2,0.1,0.4,0.3,0.5c0.2,0.1,0.5,0.3,0.8,0.3c0.3,0.1,0.6,0.2,1,0.3s0.6,0.3,0.8,0.5
				c0.3,0.3,0.3,0.6,0.3,1c0,0.5-0.2,1-0.6,1.3c-0.4,0.3-0.9,0.4-1.5,0.4c-0.6,0-1-0.1-1.4-0.4c-0.4-0.3-0.7-0.6-0.8-1l0.9-0.5
				c0.1,0.3,0.3,0.5,0.5,0.6c0.3,0.2,0.6,0.3,0.9,0.3s0.6-0.1,0.8-0.2c0.2-0.1,0.3-0.3,0.3-0.6c0-0.2-0.1-0.4-0.3-0.5
				c-0.2-0.1-0.5-0.3-0.8-0.3c-0.3-0.1-0.6-0.2-1-0.3c-0.3-0.1-0.6-0.3-0.8-0.5c-0.2-0.3-0.3-0.6-0.3-1c0-0.5,0.2-0.9,0.6-1.2
				c0.4-0.3,0.9-0.5,1.5-0.5c0.4,0,0.9,0.1,1.3,0.3s0.6,0.5,0.8,0.9l-0.8,0.4c-0.2-0.5-0.6-0.8-1.2-0.8c-0.3,0-0.5,0.1-0.7,0.2
				C422.6,229.4,422.4,229.6,422.4,229.9z"/>
		</g>
		<g class="st10">
			<path class="st7" d="M364.9,239.9h1v8.1h-1v-1c-0.5,0.8-1.2,1.2-2.2,1.2c-0.8,0-1.5-0.3-2-0.9c-0.6-0.6-0.8-1.3-0.8-2.2
				c0-0.9,0.3-1.5,0.8-2.2c0.6-0.6,1.3-0.9,2-0.9c1,0,1.7,0.4,2.2,1.2V239.9z M362.8,247.1c0.6,0,1.1-0.2,1.5-0.6
				c0.4-0.4,0.6-0.9,0.6-1.5s-0.2-1.1-0.6-1.5c-0.4-0.4-0.9-0.6-1.5-0.6c-0.6,0-1.1,0.2-1.5,0.6s-0.6,0.9-0.6,1.5s0.2,1.1,0.6,1.5
				C361.7,246.9,362.2,247.1,362.8,247.1z"/>
		</g>
		<g class="st10">
			<path class="st7" d="M368.1,245.5c0.1,0.5,0.3,0.9,0.7,1.2c0.4,0.3,0.8,0.4,1.4,0.4c0.8,0,1.3-0.3,1.7-0.8l0.8,0.5
				c-0.6,0.9-1.4,1.3-2.6,1.3c-0.9,0-1.7-0.3-2.2-0.8s-0.8-1.3-0.8-2.2c0-0.9,0.3-1.6,0.8-2.2c0.6-0.6,1.3-0.9,2.2-0.9
				c0.8,0,1.5,0.3,2,0.9s0.8,1.3,0.8,2.2c0,0.1,0,0.3-0.1,0.4L368.1,245.5L368.1,245.5z M370,242.9c-0.5,0-1,0.1-1.3,0.4
				c-0.4,0.3-0.6,0.7-0.6,1.2h3.8c-0.1-0.6-0.3-1-0.6-1.2C370.9,243.1,370.6,242.9,370,242.9z M371.5,239.9l-1.2,1.5h-1l0.9-1.5
				H371.5z"/>
			<path class="st7" d="M377.7,242.2h1.1l-2.3,5.8h-1.2l-2.3-5.8h1.1l1.8,4.7L377.7,242.2z"/>
		</g>
		<g class="st10">
			<path class="st7" d="M380.3,245.5c0.1,0.5,0.3,0.9,0.7,1.2c0.4,0.3,0.8,0.4,1.4,0.4c0.8,0,1.3-0.3,1.7-0.8l0.8,0.5
				c-0.6,0.9-1.4,1.3-2.6,1.3c-0.9,0-1.7-0.3-2.2-0.8c-0.6-0.6-0.8-1.3-0.8-2.2c0-0.9,0.3-1.6,0.8-2.2c0.6-0.6,1.3-0.9,2.2-0.9
				c0.8,0,1.5,0.3,2,0.9c0.5,0.6,0.8,1.3,0.8,2.2c0,0.1,0,0.3-0.1,0.4L380.3,245.5L380.3,245.5z M382.3,242.9c-0.5,0-1,0.1-1.3,0.4
				c-0.4,0.3-0.6,0.7-0.6,1.2h3.8c-0.1-0.6-0.3-1-0.6-1.2C383.2,243.1,382.8,242.9,382.3,242.9z"/>
			<path class="st7" d="M386.3,247.9v-8.4h1v8.4H386.3z"/>
			<path class="st7" d="M393.7,247.2c-0.6,0.6-1.3,0.9-2.2,0.9c-0.8,0-1.5-0.3-2.2-0.9c-0.6-0.6-0.9-1.3-0.9-2.2
				c0-0.9,0.3-1.6,0.9-2.2c0.6-0.6,1.3-0.9,2.2-0.9c0.8,0,1.5,0.3,2.2,0.9c0.6,0.6,0.9,1.3,0.9,2.2
				C394.6,245.9,394.3,246.6,393.7,247.2z M391.5,247.1c0.6,0,1.1-0.2,1.5-0.6c0.4-0.4,0.6-0.9,0.6-1.5s-0.2-1.1-0.6-1.5
				c-0.4-0.4-0.9-0.6-1.5-0.6c-0.6,0-1,0.2-1.4,0.6c-0.4,0.4-0.6,0.9-0.6,1.5s0.2,1.1,0.6,1.5S391,247.1,391.5,247.1z"/>
			<path class="st7" d="M399,242c0.8,0,1.5,0.3,2,0.9c0.6,0.6,0.8,1.3,0.8,2.2c0,0.9-0.3,1.5-0.8,2.2c-0.6,0.6-1.3,0.9-2,0.9
				c-1,0-1.7-0.4-2.2-1.2v3.3h-1v-8.1h1v1C397.3,242.4,398,242,399,242z M398.8,247.1c0.6,0,1.1-0.2,1.5-0.6
				c0.4-0.4,0.6-0.9,0.6-1.5s-0.2-1.1-0.6-1.5c-0.4-0.4-0.9-0.6-1.5-0.6s-1.1,0.2-1.5,0.6s-0.6,0.9-0.6,1.5s0.2,1.1,0.6,1.5
				C397.7,246.9,398.2,247.1,398.8,247.1z"/>
			<path class="st7" d="M406.2,242c0.8,0,1.5,0.3,2,0.9c0.6,0.6,0.8,1.3,0.8,2.2c0,0.9-0.3,1.5-0.8,2.2c-0.6,0.6-1.3,0.9-2,0.9
				c-1,0-1.7-0.4-2.2-1.2v3.3h-1v-8.1h1v1C404.6,242.4,405.3,242,406.2,242z M406.1,247.1c0.6,0,1.1-0.2,1.5-0.6
				c0.4-0.4,0.6-0.9,0.6-1.5s-0.2-1.1-0.6-1.5c-0.4-0.4-0.9-0.6-1.5-0.6s-1.1,0.2-1.5,0.6s-0.6,0.9-0.6,1.5s0.2,1.1,0.6,1.5
				C405,246.9,405.5,247.1,406.1,247.1z"/>
			<path class="st7" d="M411,245.5c0.1,0.5,0.3,0.9,0.7,1.2c0.4,0.3,0.8,0.4,1.4,0.4c0.8,0,1.3-0.3,1.7-0.8l0.8,0.5
				c-0.6,0.9-1.4,1.3-2.6,1.3c-0.9,0-1.7-0.3-2.2-0.8s-0.8-1.3-0.8-2.2c0-0.9,0.3-1.6,0.8-2.2s1.3-0.9,2.2-0.9c0.8,0,1.5,0.3,2,0.9
				s0.8,1.3,0.8,2.2c0,0.1,0,0.3-0.1,0.4L411,245.5L411,245.5z M413,242.9c-0.5,0-1,0.1-1.3,0.4c-0.4,0.3-0.6,0.7-0.6,1.2h3.8
				c-0.1-0.6-0.3-1-0.6-1.2C413.9,243.1,413.5,242.9,413,242.9z"/>
			<path class="st7" d="M423.3,242c0.6,0,1.2,0.2,1.5,0.6c0.4,0.4,0.6,1,0.6,1.7v3.6h-1v-3.5c0-0.4-0.1-0.8-0.3-1
				c-0.3-0.3-0.5-0.4-0.9-0.4c-0.4,0-0.8,0.1-1,0.4c-0.3,0.3-0.4,0.7-0.4,1.3v3.2h-1v-3.5c0-0.4-0.1-0.8-0.3-1s-0.5-0.4-0.9-0.4
				c-0.4,0-0.8,0.1-1,0.4c-0.3,0.3-0.4,0.7-0.4,1.3v3.2h-1v-5.8h1v0.8c0.4-0.6,1-0.9,1.7-0.9s1.3,0.3,1.7,1
				C421.8,242.4,422.5,242,423.3,242z"/>
			<path class="st7" d="M427.5,245.5c0.1,0.5,0.3,0.9,0.7,1.2c0.4,0.3,0.8,0.4,1.4,0.4c0.8,0,1.3-0.3,1.7-0.8l0.8,0.5
				c-0.6,0.9-1.4,1.3-2.6,1.3c-0.9,0-1.7-0.3-2.2-0.8s-0.8-1.3-0.8-2.2c0-0.9,0.3-1.6,0.8-2.2c0.6-0.6,1.3-0.9,2.2-0.9
				c0.8,0,1.5,0.3,2,0.9c0.5,0.6,0.8,1.3,0.8,2.2c0,0.1,0,0.3-0.1,0.4L427.5,245.5L427.5,245.5z M429.5,242.9c-0.5,0-1,0.1-1.3,0.4
				c-0.4,0.3-0.6,0.7-0.6,1.2h3.8c-0.1-0.6-0.3-1-0.6-1.2C430.4,243.1,430,242.9,429.5,242.9z"/>
			<path class="st7" d="M436.4,242c0.7,0,1.2,0.2,1.6,0.6c0.4,0.4,0.6,1,0.6,1.7v3.5h-1v-3.5c0-0.4-0.1-0.8-0.4-1.1
				c-0.3-0.3-0.6-0.4-1-0.4c-0.5,0-0.9,0.1-1.2,0.4c-0.3,0.3-0.4,0.8-0.4,1.4v3.1h-1v-5.8h1v0.8C435,242.4,435.6,242,436.4,242z"/>
		</g>
		<g class="st10">
			<path class="st7" d="M443.1,243.1h-1.5v3.1c0,0.3,0.1,0.5,0.2,0.6c0.1,0.1,0.3,0.2,0.5,0.2c0.3,0,0.5,0,0.8,0v0.9
				c-0.9,0.1-1.5,0.1-1.9-0.2s-0.6-0.8-0.6-1.5v-3.1h-1.2v-1h1.2v-1.3l1-0.3v1.6h1.5L443.1,243.1L443.1,243.1z"/>
		</g>
		<g class="st10">
			<path class="st7" d="M444.9,243.7c0,0.2,0.1,0.4,0.3,0.5c0.3,0.1,0.5,0.3,0.8,0.3c0.3,0.1,0.6,0.2,1,0.3c0.3,0.1,0.6,0.3,0.8,0.5
				c0.3,0.3,0.3,0.6,0.3,1c0,0.5-0.2,1-0.6,1.3c-0.4,0.3-0.9,0.4-1.5,0.4c-0.6,0-1-0.1-1.4-0.4c-0.4-0.3-0.7-0.6-0.8-1l0.8-0.5
				c0.1,0.3,0.3,0.5,0.5,0.6c0.3,0.2,0.6,0.3,0.9,0.3c0.3,0,0.6-0.1,0.8-0.2c0.2-0.1,0.3-0.3,0.3-0.6c0-0.2-0.1-0.4-0.3-0.5
				c-0.2-0.1-0.5-0.3-0.8-0.3c-0.3-0.1-0.6-0.2-1-0.3c-0.3-0.1-0.6-0.3-0.8-0.5c-0.2-0.3-0.3-0.6-0.3-1c0-0.5,0.2-0.9,0.6-1.2
				c0.4-0.3,0.9-0.5,1.5-0.5c0.4,0,0.9,0.1,1.3,0.3c0.4,0.2,0.6,0.5,0.8,0.9l-0.8,0.4c-0.2-0.5-0.6-0.8-1.2-0.8
				c-0.3,0-0.5,0.1-0.7,0.2C445.1,243.2,444.9,243.4,444.9,243.7z"/>
		</g>
		<g class="st10">
			<path class="st7" d="M363.2,256.9h-1.5v3.1c0,0.3,0.1,0.5,0.2,0.6c0.1,0.1,0.3,0.2,0.5,0.2c0.3,0,0.5,0,0.8,0v0.9
				c-0.9,0.1-1.5,0.1-1.9-0.2s-0.6-0.8-0.6-1.5v-3.1h-1.2v-1h1.2v-1.3l1-0.3v1.6h1.5L363.2,256.9L363.2,256.9z"/>
		</g>
		<g class="st10">
			<path class="st7" d="M364.8,259.3c0.1,0.5,0.3,0.9,0.7,1.2c0.4,0.3,0.8,0.4,1.4,0.4c0.8,0,1.3-0.3,1.7-0.8l0.8,0.5
				c-0.6,0.9-1.4,1.3-2.6,1.3c-0.9,0-1.7-0.3-2.2-0.8c-0.6-0.6-0.8-1.3-0.8-2.2s0.3-1.6,0.8-2.2c0.6-0.6,1.3-0.9,2.2-0.9
				c0.8,0,1.5,0.3,2,0.9c0.5,0.6,0.8,1.3,0.8,2.2c0,0.1,0,0.3-0.1,0.4L364.8,259.3L364.8,259.3z M366.8,256.7c-0.5,0-1,0.1-1.3,0.4
				c-0.4,0.3-0.6,0.7-0.6,1.2h3.8c-0.1-0.6-0.3-1-0.6-1.2C367.7,256.9,367.3,256.7,366.8,256.7z"/>
			<path class="st7" d="M373.6,261.9c-0.9,0-1.6-0.3-2.2-0.9c-0.6-0.6-0.8-1.3-0.8-2.2c0-0.9,0.3-1.6,0.8-2.2
				c0.6-0.6,1.3-0.9,2.2-0.9c0.6,0,1.1,0.1,1.5,0.4c0.4,0.3,0.8,0.6,1,1.1l-0.8,0.5c-0.1-0.3-0.4-0.6-0.7-0.8
				c-0.3-0.2-0.6-0.3-1-0.3c-0.6,0-1.1,0.2-1.5,0.6c-0.4,0.4-0.6,0.9-0.6,1.5c0,0.6,0.2,1.1,0.6,1.5c0.4,0.4,0.9,0.6,1.5,0.6
				c0.4,0,0.7-0.1,1-0.3c0.3-0.2,0.5-0.4,0.7-0.7l0.8,0.5c-0.3,0.4-0.6,0.8-1.1,1.1C374.6,261.7,374.1,261.9,373.6,261.9z"/>
		</g>
		<g class="st10">
			<path class="st7" d="M380,255.8c0.7,0,1.2,0.2,1.6,0.6c0.4,0.4,0.6,1,0.6,1.7v3.5h-1v-3.5c0-0.4-0.1-0.8-0.4-1.1
				c-0.3-0.3-0.6-0.4-1-0.4c-0.5,0-0.9,0.1-1.2,0.4c-0.3,0.3-0.4,0.8-0.4,1.4v3.1h-1v-8.1h1v3.1C378.5,256.2,379.1,255.8,380,255.8z
				"/>
			<path class="st7" d="M386.5,255.8c0.7,0,1.2,0.2,1.6,0.6c0.4,0.4,0.6,1,0.6,1.7v3.5h-1v-3.5c0-0.4-0.1-0.8-0.4-1.1
				c-0.3-0.3-0.6-0.4-1-0.4c-0.5,0-0.9,0.1-1.2,0.4c-0.3,0.3-0.4,0.8-0.4,1.4v3.1h-1V256h1v0.8C385,256.2,385.6,255.8,386.5,255.8z"
				/>
			<path class="st7" d="M394.9,261c-0.6,0.6-1.3,0.9-2.2,0.9c-0.8,0-1.5-0.3-2.2-0.9c-0.6-0.6-0.9-1.3-0.9-2.2
				c0-0.9,0.3-1.6,0.9-2.2c0.6-0.6,1.3-0.9,2.2-0.9c0.8,0,1.5,0.3,2.2,0.9c0.6,0.6,0.9,1.3,0.9,2.2
				C395.8,259.7,395.6,260.4,394.9,261z M392.8,260.9c0.6,0,1.1-0.2,1.5-0.6s0.6-0.9,0.6-1.5c0-0.6-0.2-1.1-0.6-1.5
				c-0.4-0.4-0.9-0.6-1.5-0.6c-0.6,0-1,0.2-1.4,0.6c-0.4,0.4-0.6,0.9-0.6,1.5c0,0.6,0.2,1.1,0.6,1.5
				C391.7,260.7,392.2,260.9,392.8,260.9z"/>
			<path class="st7" d="M397,261.7v-8.4h1v8.4H397z"/>
			<path class="st7" d="M404.4,261c-0.6,0.6-1.3,0.9-2.2,0.9c-0.8,0-1.5-0.3-2.2-0.9c-0.6-0.6-0.9-1.3-0.9-2.2
				c0-0.9,0.3-1.6,0.9-2.2c0.6-0.6,1.3-0.9,2.2-0.9c0.8,0,1.5,0.3,2.2,0.9c0.6,0.6,0.9,1.3,0.9,2.2C405.3,259.7,405,260.4,404.4,261
				z M402.3,260.9c0.6,0,1.1-0.2,1.5-0.6s0.6-0.9,0.6-1.5c0-0.6-0.2-1.1-0.6-1.5c-0.4-0.4-0.9-0.6-1.5-0.6s-1,0.2-1.4,0.6
				c-0.4,0.4-0.6,0.9-0.6,1.5c0,0.6,0.2,1.1,0.6,1.5C401.2,260.7,401.7,260.9,402.3,260.9z"/>
			<path class="st7" d="M411.3,256h1v5.5c0,0.8-0.3,1.5-0.8,2c-0.6,0.4-1.3,0.7-2,0.7c-0.6,0-1.2-0.1-1.7-0.4
				c-0.4-0.3-0.8-0.6-1.1-1l0.9-0.5c0.3,0.6,1,1,1.9,1c0.6,0,1.1-0.1,1.4-0.4s0.5-0.8,0.5-1.3v-0.8c-0.5,0.8-1.2,1.2-2.2,1.2
				c-0.8,0-1.5-0.3-2.1-0.9c-0.6-0.6-0.8-1.3-0.8-2.1c0-0.8,0.3-1.5,0.8-2.1c0.6-0.6,1.3-0.9,2.1-0.9c1,0,1.7,0.4,2.2,1.2L411.3,256
				L411.3,256z M407.8,260.3c0.4,0.4,0.9,0.6,1.5,0.6c0.6,0,1.1-0.2,1.5-0.6s0.6-0.9,0.6-1.5c0-0.6-0.2-1.1-0.6-1.5
				c-0.4-0.4-0.9-0.6-1.5-0.6c-0.6,0-1.1,0.2-1.5,0.6c-0.4,0.4-0.6,0.9-0.6,1.5C407.1,259.4,407.4,259.9,407.8,260.3z"/>
			<path class="st7" d="M414.3,255c-0.2,0-0.4-0.1-0.5-0.2c-0.1-0.1-0.2-0.3-0.2-0.4s0.1-0.3,0.2-0.4c0.1-0.1,0.3-0.2,0.5-0.2
				s0.3,0.1,0.4,0.2c0.1,0.1,0.2,0.3,0.2,0.4c0,0.1-0.1,0.3-0.2,0.4C414.6,254.8,414.5,255,414.3,255z M413.8,261.7V256h1v5.8H413.8
				z"/>
			<path class="st7" d="M421.1,256h1v8.1h-1v-3.3c-0.5,0.8-1.2,1.2-2.2,1.2c-0.8,0-1.5-0.3-2-0.9c-0.6-0.6-0.8-1.3-0.8-2.2
				c0-0.9,0.3-1.5,0.8-2.2c0.6-0.6,1.3-0.9,2-0.9c1,0,1.7,0.4,2.2,1.2V256z M419,260.9c0.6,0,1.1-0.2,1.5-0.6s0.6-0.9,0.6-1.5
				c0-0.6-0.2-1.1-0.6-1.5c-0.4-0.4-0.9-0.6-1.5-0.6c-0.6,0-1.1,0.2-1.5,0.6c-0.4,0.4-0.6,0.9-0.6,1.5c0,0.6,0.2,1.1,0.6,1.5
				C417.9,260.7,418.5,260.9,419,260.9z"/>
			<path class="st7" d="M427.5,256h1v5.8h-1v-0.8c-0.4,0.6-1,1-1.9,1c-0.7,0-1.2-0.2-1.6-0.6c-0.4-0.4-0.6-1-0.6-1.7V256h1v3.5
				c0,0.4,0.1,0.8,0.4,1.1c0.3,0.3,0.6,0.4,1,0.4c0.5,0,0.9-0.1,1.2-0.4c0.3-0.3,0.4-0.8,0.4-1.4L427.5,256L427.5,256z"/>
		</g>
		<g class="st10">
			<path class="st7" d="M430.8,259.3c0.1,0.5,0.3,0.9,0.7,1.2c0.4,0.3,0.8,0.4,1.4,0.4c0.8,0,1.3-0.3,1.7-0.8l0.8,0.5
				c-0.6,0.9-1.4,1.3-2.6,1.3c-0.9,0-1.7-0.3-2.2-0.8c-0.6-0.6-0.8-1.3-0.8-2.2s0.3-1.6,0.8-2.2c0.6-0.6,1.3-0.9,2.2-0.9
				c0.8,0,1.5,0.3,2,0.9c0.5,0.6,0.8,1.3,0.8,2.2c0,0.1,0,0.3-0.1,0.4L430.8,259.3L430.8,259.3z M432.8,256.7c-0.5,0-1,0.1-1.3,0.4
				c-0.4,0.3-0.6,0.7-0.6,1.2h3.8c-0.1-0.6-0.3-1-0.6-1.2C433.7,256.9,433.2,256.7,432.8,256.7z"/>
		</g>
		<g class="st10">
			<path class="st7" d="M437.5,257.5c0,0.2,0.1,0.4,0.3,0.5c0.2,0.1,0.5,0.3,0.8,0.3c0.3,0.1,0.6,0.2,1,0.3c0.3,0.1,0.6,0.3,0.8,0.5
				c0.3,0.3,0.3,0.6,0.3,1c0,0.5-0.2,1-0.6,1.3c-0.4,0.3-0.9,0.4-1.5,0.4c-0.6,0-1-0.1-1.4-0.4c-0.4-0.3-0.7-0.6-0.8-1l0.9-0.5
				c0.1,0.3,0.3,0.5,0.5,0.6c0.3,0.2,0.6,0.3,0.9,0.3c0.3,0,0.6-0.1,0.8-0.2c0.2-0.1,0.3-0.3,0.3-0.6c0-0.2-0.1-0.4-0.3-0.5
				c-0.2-0.1-0.5-0.3-0.8-0.3c-0.3-0.1-0.6-0.2-1-0.3c-0.3-0.1-0.6-0.3-0.8-0.5c-0.2-0.3-0.3-0.6-0.3-1c0-0.5,0.2-0.9,0.6-1.2
				c0.4-0.3,0.9-0.5,1.5-0.5c0.4,0,0.9,0.1,1.3,0.3c0.4,0.2,0.6,0.5,0.8,0.9l-0.8,0.4c-0.2-0.5-0.6-0.8-1.2-0.8
				c-0.3,0-0.5,0.1-0.7,0.2C437.5,257.1,437.5,257.3,437.5,257.5z"/>
		</g>
	</g>
	<g>
		<g class="st10">
			<path class="st7" d="M23,234.3c-1.2,0-2.2-0.4-3-1.2c-0.8-0.8-1.2-1.8-1.2-2.9c0-1.2,0.4-2.2,1.2-2.9c0.8-0.8,1.8-1.2,3-1.2
				c0.8,0,1.4,0.2,2,0.5c0.6,0.4,1.1,0.8,1.5,1.4l-1,0.5c-0.3-0.4-0.6-0.8-1-1.1c-0.4-0.3-1-0.4-1.5-0.4c-1,0-1.7,0.3-2.3,0.9
				c-0.6,0.6-0.9,1.3-0.9,2.2c0,0.9,0.3,1.7,0.9,2.2c0.6,0.6,1.3,0.9,2.3,0.9c0.6,0,1.1-0.1,1.5-0.4c0.4-0.3,0.8-0.6,1-1l1,0.5
				c-0.3,0.6-0.8,1.1-1.4,1.4C24.4,234.1,23.7,234.3,23,234.3z"/>
		</g>
		<g class="st10">
			<path class="st7" d="M32.5,233.5c-0.6,0.6-1.3,0.9-2.2,0.9c-0.8,0-1.5-0.3-2.2-0.9c-0.6-0.6-0.9-1.3-0.9-2.2
				c0-0.9,0.3-1.6,0.9-2.2c0.6-0.6,1.3-0.9,2.2-0.9c0.8,0,1.5,0.3,2.2,0.9c0.6,0.6,0.9,1.3,0.9,2.2C33.4,232.2,33,232.9,32.5,233.5z
				 M30.2,233.4c0.6,0,1.1-0.2,1.5-0.6c0.4-0.4,0.6-0.9,0.6-1.5c0-0.6-0.2-1.1-0.6-1.5c-0.4-0.4-0.9-0.6-1.5-0.6
				c-0.6,0-1,0.2-1.4,0.6c-0.4,0.4-0.6,0.9-0.6,1.5c0,0.6,0.2,1.1,0.6,1.5C29.3,233.2,29.7,233.4,30.2,233.4z"/>
			<path class="st7" d="M39.4,233.5c-0.6,0.6-1.3,0.9-2.2,0.9c-0.8,0-1.5-0.3-2.2-0.9c-0.6-0.6-0.9-1.3-0.9-2.2
				c0-0.9,0.3-1.6,0.9-2.2s1.3-0.9,2.2-0.9c0.8,0,1.5,0.3,2.2,0.9c0.6,0.6,0.9,1.3,0.9,2.2C40.3,232.2,40,232.9,39.4,233.5z
				 M37.3,233.4c0.6,0,1.1-0.2,1.5-0.6s0.6-0.9,0.6-1.5c0-0.6-0.2-1.1-0.6-1.5c-0.4-0.4-0.9-0.6-1.5-0.6c-0.6,0-1,0.2-1.4,0.6
				c-0.4,0.4-0.6,0.9-0.6,1.5c0,0.6,0.2,1.1,0.6,1.5C36.2,233.2,36.6,233.4,37.3,233.4z"/>
		</g>
		<g class="st10">
			<path class="st7" d="M42.5,229.4c0.3-0.7,1-1.1,1.8-1.1v1c-0.5,0-0.9,0.1-1.3,0.4c-0.4,0.3-0.5,0.8-0.5,1.3v3.1h-1v-5.8h1V229.4z
				"/>
		</g>
		<g class="st10">
			<path class="st7" d="M49.7,226.1h1v8.1h-1v-1c-0.5,0.8-1.2,1.2-2.2,1.2c-0.8,0-1.5-0.3-2-0.9c-0.6-0.6-0.8-1.3-0.8-2.2
				c0-0.9,0.3-1.5,0.8-2.2c0.6-0.6,1.3-0.9,2-0.9c1,0,1.7,0.4,2.2,1.2L49.7,226.1L49.7,226.1z M47.7,233.4c0.6,0,1.1-0.2,1.5-0.6
				c0.4-0.4,0.6-0.9,0.6-1.5c0-0.6-0.2-1.1-0.6-1.5c-0.4-0.4-0.9-0.6-1.5-0.6c-0.6,0-1.1,0.2-1.5,0.6c-0.4,0.4-0.6,0.9-0.6,1.5
				c0,0.6,0.2,1.1,0.6,1.5C46.5,233.2,47.1,233.4,47.7,233.4z"/>
			<path class="st7" d="M57.1,233.5c-0.6,0.6-1.3,0.9-2.2,0.9c-0.8,0-1.5-0.3-2.2-0.9c-0.6-0.6-0.9-1.3-0.9-2.2
				c0-0.9,0.3-1.6,0.9-2.2s1.3-0.9,2.2-0.9c0.8,0,1.5,0.3,2.2,0.9c0.6,0.6,0.9,1.3,0.9,2.2C58,232.2,57.6,232.9,57.1,233.5z
				 M54.9,233.4c0.6,0,1.1-0.2,1.5-0.6s0.6-0.9,0.6-1.5c0-0.6-0.2-1.1-0.6-1.5c-0.4-0.4-0.9-0.6-1.5-0.6c-0.6,0-1,0.2-1.4,0.6
				c-0.4,0.4-0.6,0.9-0.6,1.5c0,0.6,0.2,1.1,0.6,1.5C53.9,233.2,54.3,233.4,54.9,233.4z"/>
			<path class="st7" d="M62,228.3c0.7,0,1.2,0.2,1.6,0.6c0.4,0.4,0.6,1,0.6,1.7v3.5h-1v-3.5c0-0.4-0.1-0.8-0.4-1.1
				c-0.3-0.3-0.6-0.4-1-0.4c-0.5,0-0.9,0.1-1.2,0.4c-0.3,0.3-0.4,0.8-0.4,1.4v3.1h-1v-5.8h1v0.8C60.5,228.6,61.1,228.3,62,228.3z"/>
			<path class="st7" d="M68.5,228.3c0.7,0,1.2,0.2,1.6,0.6c0.4,0.4,0.6,1,0.6,1.7v3.5h-1v-3.5c0-0.4-0.1-0.8-0.4-1.1
				c-0.3-0.3-0.6-0.4-1-0.4c-0.5,0-0.9,0.1-1.2,0.4c-0.3,0.3-0.4,0.8-0.4,1.4v3.1h-1v-5.8h1v0.8C67,228.6,67.7,228.3,68.5,228.3z"/>
			<path class="st7" d="M72.8,231.8c0.1,0.5,0.3,0.9,0.7,1.2c0.4,0.3,0.8,0.4,1.4,0.4c0.8,0,1.3-0.3,1.7-0.8l0.8,0.5
				c-0.6,0.9-1.4,1.3-2.6,1.3c-0.9,0-1.7-0.3-2.2-0.8c-0.6-0.6-0.8-1.3-0.8-2.2c0-0.9,0.3-1.6,0.8-2.2s1.3-0.9,2.2-0.9
				c0.8,0,1.5,0.3,2,0.9s0.8,1.3,0.8,2.2c0,0.1,0,0.3-0.1,0.4L72.8,231.8C72.8,231.8,72.8,231.8,72.8,231.8z M74.9,229.2
				c-0.5,0-1,0.1-1.3,0.4c-0.4,0.3-0.6,0.7-0.6,1.2h3.8c-0.1-0.6-0.3-1-0.6-1.2C75.8,229.4,75.3,229.2,74.9,229.2z"/>
			<path class="st7" d="M79.9,229.4c0.3-0.7,1-1.1,1.8-1.1v1c-0.5,0-0.9,0.1-1.3,0.4c-0.4,0.3-0.5,0.8-0.5,1.3v3.1h-1v-5.8h1V229.4z
				"/>
		</g>
		<g class="st10">
			<path class="st7" d="M15.5,248v-8.4h1v8.4H15.5z"/>
		</g>
		<g class="st10">
			<path class="st7" d="M19.6,240l-0.8,2.8h-0.9l0.4-2.8H19.6z"/>
		</g>
		<g class="st10">
			<path class="st7" d="M20.8,245.6c0.1,0.5,0.3,0.9,0.7,1.2c0.4,0.3,0.8,0.4,1.4,0.4c0.8,0,1.3-0.3,1.7-0.8l0.8,0.5
				c-0.6,0.9-1.4,1.3-2.6,1.3c-0.9,0-1.7-0.3-2.2-0.8s-0.8-1.3-0.8-2.2c0-0.9,0.3-1.6,0.8-2.2c0.6-0.6,1.3-0.9,2.2-0.9
				c0.8,0,1.5,0.3,2,0.9s0.8,1.3,0.8,2.2c0,0.1,0,0.3-0.1,0.4L20.8,245.6L20.8,245.6z M22.8,243c-0.5,0-1,0.1-1.3,0.4
				s-0.6,0.7-0.6,1.2h3.8c-0.1-0.6-0.3-1-0.6-1.2C23.7,243.2,23.2,243,22.8,243z M24.1,240l-1.2,1.5h-1l0.9-1.5H24.1z"/>
		</g>
		<g class="st10">
			<path class="st7" d="M29.5,248.1c-0.9,0-1.6-0.3-2.2-0.9c-0.6-0.6-0.9-1.3-0.9-2.2c0-0.9,0.3-1.6,0.9-2.2
				c0.6-0.6,1.3-0.9,2.2-0.9c0.6,0,1.1,0.1,1.5,0.4c0.4,0.3,0.8,0.6,1,1.1l-0.8,0.5c-0.1-0.3-0.4-0.6-0.7-0.8
				c-0.3-0.2-0.6-0.3-1-0.3c-0.6,0-1.1,0.2-1.5,0.6c-0.4,0.4-0.6,0.9-0.6,1.5c0,0.6,0.2,1.1,0.6,1.5c0.4,0.4,0.9,0.6,1.5,0.6
				c0.4,0,0.7-0.1,1-0.3c0.3-0.2,0.5-0.4,0.7-0.7l0.8,0.5c-0.3,0.4-0.6,0.8-1.1,1.1C30.4,247.9,30,248.1,29.5,248.1z"/>
		</g>
		<g class="st10">
			<path class="st7" d="M37.8,247.3c-0.6,0.6-1.3,0.9-2.2,0.9c-0.8,0-1.5-0.3-2.2-0.9c-0.6-0.6-0.9-1.3-0.9-2.2
				c0-0.9,0.3-1.6,0.9-2.2s1.3-0.9,2.2-0.9c0.8,0,1.5,0.3,2.2,0.9c0.6,0.6,0.9,1.3,0.9,2.2C38.7,246,38.4,246.7,37.8,247.3z
				 M35.7,247.2c0.6,0,1.1-0.2,1.5-0.6c0.4-0.4,0.6-0.9,0.6-1.5s-0.2-1.1-0.6-1.5c-0.4-0.4-0.9-0.6-1.5-0.6c-0.6,0-1,0.2-1.4,0.6
				c-0.4,0.4-0.6,0.9-0.6,1.5s0.2,1.1,0.6,1.5C34.7,247,35.1,247.2,35.7,247.2z"/>
		</g>
		<g class="st10">
			<path class="st7" d="M40.7,243.8c0,0.2,0.1,0.4,0.3,0.5c0.3,0.1,0.5,0.3,0.8,0.3c0.3,0.1,0.6,0.2,1,0.3c0.3,0.1,0.6,0.3,0.8,0.5
				s0.3,0.6,0.3,1c0,0.5-0.2,1-0.6,1.3c-0.4,0.3-0.9,0.4-1.5,0.4c-0.6,0-1-0.1-1.4-0.4c-0.4-0.3-0.7-0.6-0.8-1l0.9-0.5
				c0.1,0.3,0.3,0.5,0.5,0.6c0.3,0.1,0.6,0.3,0.9,0.3c0.3,0,0.6-0.1,0.8-0.2c0.2-0.1,0.3-0.3,0.3-0.6c0-0.2-0.1-0.4-0.3-0.5
				c-0.2-0.1-0.5-0.3-0.8-0.3c-0.3-0.1-0.6-0.2-1-0.3c-0.3-0.1-0.6-0.3-0.8-0.5c-0.2-0.3-0.3-0.6-0.3-1c0-0.5,0.2-0.9,0.6-1.2
				c0.4-0.3,0.9-0.5,1.5-0.5c0.4,0,0.9,0.1,1.3,0.3c0.4,0.2,0.6,0.5,0.8,0.9l-0.8,0.4c-0.2-0.5-0.6-0.8-1.2-0.8
				c-0.3,0-0.5,0.1-0.7,0.2C40.8,243.3,40.7,243.5,40.7,243.8z"/>
		</g>
		<g class="st10">
			<path class="st7" d="M48.8,242.3h1.1l-2.4,6.1c-0.3,0.6-0.6,1.2-1,1.5c-0.4,0.3-1,0.5-1.5,0.4v-1c0.7,0.1,1.2-0.3,1.5-1.2
				l0.1-0.2l-2.5-5.8h1.1l1.9,4.4L48.8,242.3z"/>
		</g>
		<g class="st10">
			<path class="st7" d="M51.2,243.8c0,0.2,0.1,0.4,0.3,0.5c0.3,0.1,0.5,0.3,0.8,0.3c0.3,0.1,0.6,0.2,1,0.3c0.3,0.1,0.6,0.3,0.8,0.5
				c0.3,0.3,0.3,0.6,0.3,1c0,0.5-0.2,1-0.6,1.3c-0.4,0.3-0.9,0.4-1.5,0.4c-0.6,0-1-0.1-1.4-0.4s-0.7-0.6-0.8-1l0.9-0.5
				c0.1,0.3,0.3,0.5,0.5,0.6c0.3,0.1,0.6,0.3,0.9,0.3c0.3,0,0.6-0.1,0.8-0.2c0.2-0.1,0.3-0.3,0.3-0.6c0-0.2-0.1-0.4-0.3-0.5
				c-0.2-0.1-0.5-0.3-0.8-0.3c-0.3-0.1-0.6-0.2-1-0.3s-0.6-0.3-0.8-0.5c-0.2-0.3-0.3-0.6-0.3-1c0-0.5,0.2-0.9,0.6-1.2
				c0.4-0.3,0.9-0.5,1.5-0.5c0.4,0,0.9,0.1,1.3,0.3c0.4,0.2,0.6,0.5,0.8,0.9l-0.8,0.4c-0.2-0.5-0.6-0.8-1.2-0.8
				c-0.3,0-0.5,0.1-0.7,0.2C51.3,243.3,51.2,243.5,51.2,243.8z"/>
		</g>
		<g class="st10">
			<path class="st7" d="M58.6,243.2H57v3.1c0,0.3,0.1,0.5,0.2,0.6c0.1,0.1,0.3,0.2,0.5,0.2s0.5,0,0.8,0v0.9
				c-0.9,0.1-1.5,0.1-1.9-0.2c-0.4-0.3-0.6-0.8-0.6-1.5v-3.1h-1.2v-1H56v-1.3l1-0.3v1.6h1.5C58.6,242.2,58.6,243.2,58.6,243.2z"/>
		</g>
		<g class="st10">
			<path class="st7" d="M60.2,245.6c0.1,0.5,0.3,0.9,0.7,1.2c0.4,0.3,0.8,0.4,1.4,0.4c0.8,0,1.3-0.3,1.7-0.8l0.8,0.5
				c-0.6,0.9-1.4,1.3-2.6,1.3c-0.9,0-1.7-0.3-2.2-0.8c-0.6-0.6-0.8-1.3-0.8-2.2c0-0.9,0.3-1.6,0.8-2.2c0.6-0.6,1.3-0.9,2.2-0.9
				c0.8,0,1.5,0.3,2,0.9c0.5,0.6,0.8,1.3,0.8,2.2c0,0.1,0,0.3-0.1,0.4L60.2,245.6L60.2,245.6z M62.1,243c-0.5,0-1,0.1-1.3,0.4
				c-0.4,0.3-0.6,0.7-0.6,1.2h3.8c-0.1-0.6-0.3-1-0.6-1.2C63,243.2,62.5,243,62.1,243z M62.9,241.4h-1l-1.2-1.5H62L62.9,241.4z"/>
			<path class="st7" d="M72.3,242.1c0.6,0,1.2,0.2,1.5,0.6s0.6,1,0.6,1.7v3.6h-1v-3.5c0-0.4-0.1-0.8-0.3-1c-0.2-0.3-0.5-0.4-0.9-0.4
				c-0.4,0-0.8,0.1-1,0.4c-0.3,0.3-0.4,0.7-0.4,1.3v3.2h-1v-3.5c0-0.4-0.1-0.8-0.3-1c-0.2-0.3-0.5-0.4-0.9-0.4c-0.4,0-0.8,0.1-1,0.4
				c-0.3,0.3-0.4,0.7-0.4,1.3v3.2h-1v-5.8h1v0.8c0.4-0.6,1-0.9,1.7-0.9c0.8,0,1.3,0.3,1.7,1C70.9,242.4,71.5,242.1,72.3,242.1z"/>
			<path class="st7" d="M76.6,245.6c0.1,0.5,0.3,0.9,0.7,1.2c0.4,0.3,0.8,0.4,1.4,0.4c0.8,0,1.3-0.3,1.7-0.8l0.8,0.5
				c-0.6,0.9-1.4,1.3-2.6,1.3c-0.9,0-1.7-0.3-2.2-0.8s-0.8-1.3-0.8-2.2c0-0.9,0.3-1.6,0.8-2.2c0.6-0.6,1.3-0.9,2.2-0.9
				c0.8,0,1.5,0.3,2,0.9c0.5,0.6,0.8,1.3,0.8,2.2c0,0.1,0,0.3-0.1,0.4L76.6,245.6L76.6,245.6z M78.6,243c-0.5,0-1,0.1-1.3,0.4
				c-0.4,0.3-0.6,0.7-0.6,1.2h3.8c-0.1-0.6-0.3-1-0.6-1.2S79,243,78.6,243z"/>
		</g>
		<g class="st10">
			<path class="st7" d="M31.8,257c0.3-0.7,1-1.1,1.8-1.1v1c-0.5,0-0.9,0.1-1.3,0.4c-0.4,0.3-0.5,0.8-0.5,1.3v3.1h-1V256h1V257z"/>
		</g>
		<g class="st10">
			<path class="st7" d="M39.1,261.1c-0.6,0.6-1.3,0.9-2.2,0.9c-0.8,0-1.5-0.3-2.2-0.9c-0.6-0.6-0.9-1.3-0.9-2.2
				c0-0.9,0.3-1.6,0.9-2.2c0.6-0.6,1.3-0.9,2.2-0.9c0.8,0,1.5,0.3,2.2,0.9c0.6,0.6,0.9,1.3,0.9,2.2C40,259.8,39.7,260.5,39.1,261.1z
				 M37,261c0.6,0,1.1-0.2,1.5-0.6c0.4-0.4,0.6-0.9,0.6-1.5c0-0.6-0.2-1.1-0.6-1.5c-0.4-0.4-0.9-0.6-1.5-0.6c-0.6,0-1,0.2-1.4,0.6
				c-0.4,0.4-0.6,0.9-0.6,1.5c0,0.6,0.2,1.1,0.6,1.5C35.9,260.8,36.4,261,37,261z"/>
			<path class="st7" d="M44.3,255.9c0.8,0,1.5,0.3,2,0.9c0.6,0.6,0.8,1.3,0.8,2.2s-0.3,1.5-0.8,2.2s-1.3,0.9-2,0.9
				c-1,0-1.7-0.4-2.2-1.2v1h-1v-8.1h1v3.3C42.7,256.3,43.4,255.9,44.3,255.9z M44.2,261c0.6,0,1.1-0.2,1.5-0.6
				c0.4-0.4,0.6-0.9,0.6-1.5c0-0.6-0.2-1.1-0.6-1.5c-0.4-0.4-0.9-0.6-1.5-0.6s-1.1,0.2-1.5,0.6c-0.4,0.4-0.6,0.9-0.6,1.5
				c0,0.6,0.2,1.1,0.6,1.5C43.1,260.8,43.7,261,44.2,261z"/>
		</g>
		<g class="st10">
			<path class="st7" d="M53.3,261.1c-0.6,0.6-1.3,0.9-2.2,0.9c-0.8,0-1.5-0.3-2.2-0.9c-0.6-0.6-0.9-1.3-0.9-2.2
				c0-0.9,0.3-1.6,0.9-2.2c0.6-0.6,1.3-0.9,2.2-0.9c0.8,0,1.5,0.3,2.2,0.9c0.6,0.6,0.9,1.3,0.9,2.2
				C54.2,259.8,53.9,260.5,53.3,261.1z M51.2,261c0.6,0,1.1-0.2,1.5-0.6c0.4-0.4,0.6-0.9,0.6-1.5c0-0.6-0.2-1.1-0.6-1.5
				c-0.4-0.4-0.9-0.6-1.5-0.6s-1,0.2-1.4,0.6c-0.4,0.4-0.6,0.9-0.6,1.5c0,0.6,0.2,1.1,0.6,1.5C50.1,260.8,50.6,261,51.2,261z"/>
		</g>
		<g class="st10">
			<path class="st7" d="M58.4,257h-1.5v3.1c0,0.3,0.1,0.5,0.2,0.6c0.1,0.1,0.3,0.2,0.5,0.2s0.5,0,0.8,0v0.9
				c-0.9,0.1-1.5,0.1-1.9-0.2c-0.4-0.3-0.6-0.8-0.6-1.5V257h-1.2v-1h1.2v-1.3l1-0.3v1.6h1.5C58.4,256,58.4,257,58.4,257z"/>
		</g>
		<g class="st10">
			<path class="st7" d="M60,255c-0.2,0-0.4-0.1-0.5-0.2c-0.1-0.1-0.2-0.3-0.2-0.4c0-0.2,0.1-0.3,0.2-0.4c0.1-0.1,0.3-0.2,0.5-0.2
				c0.2,0,0.3,0.1,0.4,0.2c0.1,0.1,0.2,0.3,0.2,0.4c0,0.1-0.1,0.3-0.2,0.4C60.5,254.9,60.3,255,60,255z M59.5,261.8v-5.8h1v5.8H59.5
				z"/>
			<path class="st7" d="M66.9,256.1h1v8.1h-1v-3.3c-0.5,0.8-1.2,1.2-2.2,1.2c-0.8,0-1.5-0.3-2-0.9c-0.6-0.6-0.8-1.3-0.8-2.2
				c0-0.9,0.3-1.5,0.8-2.2c0.6-0.6,1.3-0.9,2-0.9c1,0,1.7,0.4,2.2,1.2V256.1z M64.8,261c0.6,0,1.1-0.2,1.5-0.6
				c0.4-0.4,0.6-0.9,0.6-1.5c0-0.6-0.2-1.1-0.6-1.5c-0.4-0.4-0.9-0.6-1.5-0.6c-0.6,0-1.1,0.2-1.5,0.6c-0.4,0.4-0.6,0.9-0.6,1.5
				c0,0.6,0.2,1.1,0.6,1.5C63.7,260.8,64.2,261,64.8,261z"/>
			<path class="st7" d="M73.4,256.1h1v5.8h-1V261c-0.4,0.6-1,1-1.9,1c-0.7,0-1.2-0.2-1.6-0.6c-0.4-0.4-0.6-1-0.6-1.7v-3.5h1v3.5
				c0,0.4,0.1,0.8,0.4,1.1c0.3,0.3,0.6,0.4,1,0.4c0.5,0,0.9-0.1,1.2-0.4s0.4-0.8,0.4-1.4L73.4,256.1L73.4,256.1z"/>
			<path class="st7" d="M76.6,259.4c0.1,0.5,0.3,0.9,0.7,1.2c0.4,0.3,0.8,0.4,1.4,0.4c0.8,0,1.3-0.3,1.7-0.8l0.8,0.5
				c-0.6,0.9-1.4,1.3-2.6,1.3c-0.9,0-1.7-0.3-2.2-0.8c-0.6-0.6-0.8-1.3-0.8-2.2c0-0.9,0.3-1.6,0.8-2.2c0.6-0.6,1.3-0.9,2.2-0.9
				c0.8,0,1.5,0.3,2,0.9c0.5,0.6,0.8,1.3,0.8,2.2c0,0.1,0,0.3-0.1,0.4L76.6,259.4L76.6,259.4z M78.6,256.8c-0.5,0-1,0.1-1.3,0.4
				c-0.4,0.3-0.6,0.7-0.6,1.2h3.8c-0.1-0.6-0.3-1-0.6-1.2S79,256.8,78.6,256.8z"/>
		</g>
	</g>
	<g>
		<g id="Ellipse_3_copie-2_1_">
			<g>
				<circle class="st3" cx="377.2" cy="70.8" r="70.9"/>
			</g>
		</g>
		<g>
			<g class="st10">
				<path class="st7" d="M351.2,96c1,0,1.9,0.4,2.6,1.1c0.7,0.7,1,1.7,1,2.8c0,1.1-0.4,2-1,2.8c-0.7,0.7-1.6,1.1-2.6,1.1h-3V96
					H351.2z M351.2,102.7c0.8,0,1.4-0.3,2-0.8c0.5-0.6,0.7-1.2,0.7-2.1s-0.2-1.5-0.7-2.1c-0.5-0.6-1.2-0.8-2-0.8h-2v5.8H351.2z"/>
			</g>
			<g class="st10">
				<path class="st7" d="M356.7,101.4c0.1,0.5,0.3,0.9,0.7,1.2c0.4,0.2,0.8,0.4,1.4,0.4c0.7,0,1.3-0.2,1.6-0.8l0.8,0.5
					c-0.6,0.9-1.4,1.2-2.5,1.2c-0.9,0-1.6-0.2-2.1-0.8c-0.6-0.6-0.8-1.2-0.8-2.1c0-0.9,0.2-1.5,0.8-2.1c0.6-0.6,1.2-0.9,2.1-0.9
					c0.8,0,1.5,0.3,2,0.9c0.5,0.6,0.8,1.2,0.8,2.1c0,0.1,0,0.3-0.1,0.4L356.7,101.4L356.7,101.4z M358.6,98.9
					c-0.5,0-0.9,0.1-1.3,0.4s-0.6,0.7-0.6,1.2h3.7c-0.1-0.6-0.3-0.9-0.6-1.2C359.5,99.1,359.1,98.9,358.6,98.9z M359.9,95.9
					l-1.1,1.5h-0.9l0.9-1.5H359.9z"/>
				<path class="st7" d="M365.9,98.2h1l-2.2,5.5h-1.1l-2.2-5.5h1l1.7,4.5L365.9,98.2z"/>
			</g>
			<g class="st10">
				<path class="st7" d="M368.5,101.4c0.1,0.5,0.3,0.9,0.7,1.2c0.4,0.2,0.8,0.4,1.4,0.4c0.7,0,1.3-0.2,1.6-0.8l0.8,0.5
					c-0.6,0.9-1.4,1.2-2.5,1.2c-0.9,0-1.6-0.2-2.1-0.8c-0.6-0.6-0.8-1.2-0.8-2.1c0-0.9,0.2-1.5,0.8-2.1c0.6-0.6,1.2-0.9,2.1-0.9
					c0.8,0,1.5,0.3,2,0.9s0.8,1.2,0.8,2.1c0,0.1,0,0.3-0.1,0.4L368.5,101.4L368.5,101.4z M370.4,98.9c-0.5,0-0.9,0.1-1.3,0.4
					s-0.6,0.7-0.6,1.2h3.7c-0.1-0.6-0.3-0.9-0.6-1.2C371.2,99.1,370.8,98.9,370.4,98.9z M371.6,95.9l-1.1,1.5h-0.9l0.9-1.5H371.6z"
					/>
				<path class="st7" d="M374.2,103.7v-8h1v8H374.2z"/>
				<path class="st7" d="M381.3,103c-0.6,0.6-1.2,0.9-2.1,0.9c-0.8,0-1.5-0.3-2.1-0.9s-0.9-1.2-0.9-2.1c0-0.9,0.3-1.5,0.9-2.1
					c0.6-0.6,1.2-0.9,2.1-0.9c0.8,0,1.5,0.3,2.1,0.9c0.6,0.6,0.9,1.2,0.9,2.1C382.1,101.8,381.8,102.4,381.3,103z M379.2,102.9
					c0.6,0,1-0.2,1.4-0.6c0.4-0.4,0.6-0.9,0.6-1.4c0-0.6-0.2-1-0.6-1.4c-0.4-0.4-0.9-0.6-1.4-0.6c-0.6,0-1,0.2-1.4,0.6
					s-0.6,0.9-0.6,1.4c0,0.6,0.2,1,0.6,1.4S378.7,102.9,379.2,102.9z"/>
				<path class="st7" d="M386.3,98c0.8,0,1.4,0.3,2,0.9c0.6,0.6,0.8,1.2,0.8,2.1c0,0.9-0.2,1.5-0.8,2.1c-0.6,0.6-1.2,0.9-2,0.9
					c-0.9,0-1.6-0.4-2.1-1.1v3.1h-1v-7.8h1v0.9C384.7,98.4,385.4,98,386.3,98z M386.2,102.9c0.6,0,1-0.2,1.4-0.6
					c0.4-0.4,0.6-0.9,0.6-1.4c0-0.6-0.2-1-0.6-1.4c-0.4-0.4-0.9-0.6-1.4-0.6c-0.6,0-1,0.2-1.4,0.6c-0.4,0.4-0.6,0.9-0.6,1.4
					c0,0.6,0.2,1,0.6,1.4S385.6,102.9,386.2,102.9z"/>
				<path class="st7" d="M393.3,98c0.8,0,1.4,0.3,2,0.9c0.6,0.6,0.8,1.2,0.8,2.1c0,0.9-0.2,1.5-0.8,2.1c-0.6,0.6-1.2,0.9-2,0.9
					c-0.9,0-1.6-0.4-2.1-1.1v3.1h-1v-7.8h1v0.9C391.7,98.4,392.4,98,393.3,98z M393.2,102.9c0.6,0,1-0.2,1.4-0.6
					c0.4-0.4,0.6-0.9,0.6-1.4c0-0.6-0.2-1-0.6-1.4c-0.4-0.4-0.9-0.6-1.4-0.6c-0.6,0-1,0.2-1.4,0.6c-0.4,0.4-0.6,0.9-0.6,1.4
					c0,0.6,0.2,1,0.6,1.4C392.2,102.7,392.6,102.9,393.2,102.9z"/>
				<path class="st7" d="M397.9,101.4c0.1,0.5,0.3,0.9,0.7,1.2c0.4,0.2,0.8,0.4,1.4,0.4c0.7,0,1.3-0.2,1.6-0.8l0.8,0.5
					c-0.6,0.9-1.4,1.2-2.5,1.2c-0.9,0-1.6-0.2-2.1-0.8c-0.6-0.6-0.8-1.2-0.8-2.1c0-0.9,0.2-1.5,0.8-2.1c0.6-0.6,1.2-0.9,2.1-0.9
					c0.8,0,1.5,0.3,2,0.9c0.5,0.6,0.7,1.2,0.7,2.1c0,0.1,0,0.3-0.1,0.4L397.9,101.4L397.9,101.4z M399.8,98.9
					c-0.5,0-0.9,0.1-1.3,0.4s-0.6,0.7-0.6,1.2h3.7c-0.1-0.6-0.3-0.9-0.6-1.2C400.7,99.1,400.3,98.9,399.8,98.9z"/>
				<path class="st7" d="M404.7,99.1c0.3-0.7,0.9-1,1.7-1v1c-0.5,0-0.9,0.1-1.2,0.4c-0.4,0.2-0.5,0.7-0.5,1.3v2.9h-1v-5.5h1V99.1z"
					/>
			</g>
		</g>
		<g>
			<path class="st15" d="M394.3,38.3h-5.2c-1.3,0-2.3,1-2.3,2.3v4.3c-0.2,1-1,1.8-2.1,1.8h-5.4c-1.2,0-2.1,1-2.1,2.1v6
				c-0.2,0.9-1.1,1.6-2.1,1.6h-5.4c-1.2,0-2.1,1-2.1,2.1v2.1c0,0,0,2.1,0,4.3c-0.3,0.9-1.1,1.5-2,1.5h-5.4c-1.2,0-2.1,1-2.1,2.1v2.1
				c0-0.1,0-0.1,0-0.2v10.2c0,1.2,1,2.3,2.3,2.3h34.1c1.3,0,2.3-1,2.3-2.3V61.1c0-0.1,0-0.2,0-0.2c0-0.1,0-0.1,0-0.2v-20
				C396.6,39.4,395.5,38.3,394.3,38.3z"/>
			<path class="st24" d="M367.6,64.5c0,1.2-1,2.1-2.1,2.1l0,0H360c-1.2,0-2.1,1-2.1,2.1v2.1c0-0.1,0-0.1,0-0.2v10.2
				c0,1.2,1,2.3,2.3,2.3h7.4v-8.1l0,0V64.5z"/>
			<path class="st33" d="M394.3,38.3h-5.2c-1.3,0-2.3,1-2.3,2.3v20c0,0.1,0,0.1,0,0.2c0,0.1,0,0.1,0,0.2v22.1h7.4
				c1.3,0,2.3-1,2.3-2.3V61.1c0-0.1,0-0.2,0-0.2c0-0.1,0-0.1,0-0.2v-20C396.6,39.4,395.5,38.3,394.3,38.3z"/>
			<path class="st7" d="M386.9,44.6c0,1.2-1,2.1-2.1,2.1h-5.4c-1.2,0-2.1,1-2.1,2.1v12c0,0.1,0,9.8,0,9.8v12.5h9.7v-8.1V44.6z"/>
			<path class="st15" d="M377.2,54.4c0,1.2-1,2.1-2.1,2.1h-5.4c-1.2,0-2.1,1-2.1,2.1v2.1c0,0.1,0,9.8,0,9.8v12.5h9.7v-8.1V54.4z"/>
		</g>
	</g>
	<path class="st34" d="M303,236.7c42.1-6.6,74.2-43,74.2-86.9"/>
	<path class="st34" d="M68.4,149.8c0,44,32.2,80.4,74.2,86.9"/>
	<circle id="Ellipse_2_copie_4-2-2_1_" class="st35" cx="361.6" cy="200" r="16"/>
	<circle id="Ellipse_2_copie_4-2-3_1_" class="st7" cx="361.6" cy="200" r="9.8"/>
	<g id="_2-2_1_">
		<path class="st3" d="M363.9,199.7v0.9H362v1.9h-0.9v-1.9h-1.9v-0.9h1.9v-1.9h0.9v1.9H363.9z"/>
	</g>
	<circle id="Ellipse_2_copie_4_1_" class="st35" cx="82.2" cy="200.8" r="16"/>
	<circle id="Ellipse_2_copie_4-2_1_" class="st7" cx="82.2" cy="200.8" r="9.8"/>
	<g id="_2_1_">
		<path class="st3" d="M84.6,200.4v0.9h-1.9v1.9h-0.9v-1.9h-2v-0.9h1.9v-1.9h0.9v1.9H84.6z"/>
	</g>
</g>
</svg>
