<?xml version="1.0" encoding="utf-8"?>
<!-- Generator: Adobe Illustrator 22.1.0, SVG Export Plug-In . SVG Version: 6.00 Build 0)  -->
<svg version="1.1" id="Calque_1" xmlns="http://www.w3.org/2000/svg" xmlns:xlink="http://www.w3.org/1999/xlink" x="0px" y="0px"
	 viewBox="0 0 369 334" style="enable-background:new 0 0 369 334;" xml:space="preserve">
<style type="text/css">
	.st0{opacity:0.2;fill:none;stroke:#8F397B;stroke-width:21;enable-background:new    ;}
	.st1{fill:#EDEDED;}
	.st2{fill:#C53562;}
	.st3{fill:#474292;}
	.st4{fill:#FEFEFE;}
	.st5{fill:#A33D7E;}
	.st6{fill:#7C277D;}
	.st7{fill:#EEEEEE;}
	.st8{fill:#474291;}
	.st9{fill:#1E1E1C;}
</style>
<title>tti</title>
<desc>Created with Sketch.</desc>
<g id="tti" transform="translate(211.000000, 2295.000000)">
	<path id="Stroke-1" class="st0" d="M68.8-2133.1c0,59.9-48.6,108.5-108.5,108.5s-108.5-48.6-108.5-108.5s48.6-108.5,108.5-108.5
		S68.8-2193,68.8-2133.1z"/>
	<path id="Fill-3" class="st1" d="M-149.3-2002.8v-24.5c0-1.1,0.9-2.1,2.1-2.1c0.7,0,1.3-0.6,1.3-1.3v-6.2
		c0-10.6,8.1-19.4,18.5-20.5c-9.2,2.2-16.2,10.5-16.2,20.4v6.2c0,0.5-0.4,0.9-0.9,0.9c-1.4,0-2.5,1.1-2.5,2.5v0v24.5v0
		c0,4.7,3.1,8.7,7.3,10C-145-1993-149.3-1997.4-149.3-2002.8 M-110.2-2034.9v-2.2c0-6.9-4.8-12.7-11.2-14.3
		c7.5,0.4,13.6,6.6,13.6,14.3v2.2c0,0.1,0,0.2,0.1,0.3h-2.1C-110.1-2034.5-110.2-2034.7-110.2-2034.9 M-99.8-2029.8h-1.3
		c-0.4-0.3-1-0.4-1.5-0.4h-24.8h-9.3c-0.1-0.1-0.1-0.3-0.1-0.5v-6.3c0-6.6,4.5-12.1,10.5-13.8c0.3,0,0.7-0.1,1-0.1h0.4
		c7.6,0,13.9,6.2,13.9,13.9v2.2c0,0.7,0.5,1.2,1.2,1.2h5.2c0.4,0,0.7-0.2,0.9-0.5h1.9c0.4,0,0.8-0.3,0.8-0.8v-2.1
		c0-11-8.6-20.1-19.3-20.9c-1.4-0.3-2.9-0.5-4.5-0.5h-0.4c-11.8,0-21.4,9.6-21.4,21.4v6.2c0,0.3-0.2,0.5-0.5,0.5
		c-1.6,0-2.9,1.3-2.9,2.9v24.5c0,6,4.9,11,11,11h3.7h24.8c1,0,2-0.1,2.9-0.4c5.8,0,10.5-4.7,10.5-10.5v-24.5
		C-97.3-2028.7-98.5-2029.8-99.8-2029.8"/>
	<path id="Fill-5" class="st1" d="M44.5-2222.4c0-0.1-0.1-0.2-0.1-0.2c-5.2-5.7-8-13-8-20.7c0-14.9,10.6-27.3,24.7-30.1
		c-13.3,4.2-22.9,16.7-22.9,31.4c0,8.1,2.9,15.8,8.3,21.8c0.6,3.5,0.5,9-5.1,11.7c-0.8,0.2-1.6,0.3-2.2,0.3
		C45.7-2212,45.1-2219.3,44.5-2222.4 M101.7-2253.9C96.9-2266.2,85-2275,71-2275c-0.6,0-1.2,0-1.8,0.1c-0.7,0-1.4-0.1-2.2-0.1
		c-17.5,0-31.7,14.2-31.7,31.7c0,7.9,2.9,15.4,8.2,21.2c0.7,3.4,1.2,11.1-7.3,14.1c-0.2,0.1-0.4,0.3-0.3,0.5c0,0.2,0.2,0.4,0.5,0.4
		c0,0,0.1,0,0.2,0c0.4,0,1.2,0,2.3-0.1c-0.2,0.3-0.3,0.7-0.2,1.2c0.1,0.8,0.8,1.4,1.7,1.5c0,0,0.1,0,0.2,0c1.7,0,11.3-0.3,18.2-7
		c2.5,1,5.1,1.7,7.8,2.1c2.4,0.6,4.8,0.9,7.4,0.9c17.2,0,31.2-14,31.2-31.2C105.1-2244.9,103.9-2249.7,101.7-2253.9"/>
	<path id="Fill-7" class="st1" d="M-7.3-1986.7v-5.6c0-0.9,0.8-1.7,1.7-1.7h2.2c-0.6,0.4-1,1-1,1.8v5.6c0,0.6,0.3,1.2,0.7,1.5h-1.9
		C-6.5-1985-7.3-1985.8-7.3-1986.7z M15.7-2034.1L15.7-2034.1c0.9,0.3,1.9,0.5,2.8,0.6l-4,39.2h-2.9L15.7-2034.1z M37.9-2027.9
		c0.1,0.5,0.4,1,0.8,1.3l0.2,0.1c0.4,0.3,0.8,0.4,1.2,0.4c0.6,0,1.3-0.3,1.7-0.8c0.1-0.1,0.1-0.2,0.2-0.3c0.1,0.1,0.2,0.3,0.4,0.4
		l0.2,0.1c0.7,0.5,1.7,0.4,2.3-0.4c3.4-4.6,5.4-10.2,5.4-16.4c0-6-1.9-11.6-5.2-16.1c-0.5-0.7-1.5-0.9-2.2-0.4l-0.2,0.1
		c-0.1,0.1-0.2,0.2-0.3,0.3c-0.1-0.1-0.2-0.3-0.3-0.4c-0.7-0.9-1.9-1.1-2.8-0.5l-0.2,0.1c-0.5,0.3-0.8,0.8-0.9,1.3
		c-0.1,0.6,0,1.1,0.4,1.6c0.2,0.2,0.3,0.5,0.5,0.7c-0.4-0.1-0.9,0-1.3,0.2l0,0c-0.2,0.1-0.3,0.2-0.4,0.4c-0.1-0.2-0.2-0.3-0.3-0.5
		c-0.7-0.9-1.9-1.1-2.8-0.5l0,0c-0.5,0.3-0.8,0.8-0.9,1.4c-0.1,0.5,0,1.1,0.4,1.5c0.2,0.3,0.4,0.6,0.6,0.9c-0.5-0.2-1-0.2-1.5,0.2
		c-0.2,0.1-0.3,0.3-0.4,0.4c-0.1-0.2-0.2-0.3-0.3-0.5c-0.7-0.9-1.9-1.1-2.8-0.5c-0.5,0.3-0.8,0.8-0.9,1.4c-0.1,0.4,0,0.8,0.2,1.2
		c-1.6-1.2-3.6-2-5.8-2c-1-0.4-2.2-0.6-3.3-0.6c-2.2,0-4.2,0.7-5.9,1.9c0.2-0.6-0.1-1.3-0.7-1.7h0c-0.7-0.5-1.7-0.3-2.2,0.3
		c0,0-0.1,0.1-0.1,0.1c-0.1-0.4-0.4-0.8-0.8-1l0,0c-0.6-0.4-1.2-0.4-1.8-0.2c0.1-0.1,0.2-0.3,0.3-0.4c0.6-0.7,0.4-1.8-0.4-2.3l0,0
		c-0.7-0.5-1.7-0.3-2.2,0.3c0,0-0.1,0.1-0.1,0.1c-0.2-0.4-0.4-0.7-0.8-0.9l0,0c-0.5-0.3-1.1-0.4-1.6-0.3c0.1-0.1,0.1-0.1,0.2-0.2
		c0.5-0.7,0.4-1.8-0.4-2.3l-0.2-0.1c-0.7-0.5-1.7-0.3-2.2,0.4c0,0,0,0,0,0c-0.2-0.3-0.4-0.6-0.7-0.8l-0.2-0.1
		c-0.9-0.6-2.2-0.4-2.8,0.5c-3.5,4.7-5.4,10.4-5.5,16.3h0v0.5v0.5h0c0.1,6,2,11.7,5.7,16.5c0.4,0.5,1,0.8,1.7,0.8
		c0.4,0,0.8-0.1,1.2-0.4l0.2-0.1c0.2-0.2,0.4-0.4,0.5-0.6c0,0,0.1,0.1,0.1,0.1c0.5,0.7,1.5,0.9,2.2,0.3l0.2-0.1
		c0.7-0.5,0.9-1.6,0.3-2.3c-0.2-0.2-0.3-0.5-0.5-0.7c0.2,0.1,0.4,0.1,0.7,0.1c0.4,0,0.9-0.1,1.2-0.4l0.1,0c0.3-0.2,0.5-0.4,0.6-0.7
		c0.1,0.1,0.1,0.2,0.2,0.2c0.5,0.7,1.5,0.8,2.2,0.3l0.1,0c0.7-0.5,0.9-1.6,0.3-2.3c-0.2-0.3-0.4-0.6-0.6-0.9
		c0.3,0.2,0.6,0.2,0.9,0.2c0.4,0,0.8-0.1,1.2-0.4c0.3-0.2,0.5-0.5,0.6-0.8c0.1,0.1,0.1,0.2,0.2,0.3c0.5,0.7,1.5,0.8,2.2,0.3
		c0.7-0.5,0.8-1.4,0.5-2.1c0.6,0.4,1.2,0.8,1.8,1.1l-4,39.6H-5.6c-1.4,0-2.6,1.2-2.6,2.6v5.6c0,1.4,1.2,2.6,2.6,2.6h49.4
		c0.4,0,0.9-0.1,1.2-0.3h2.1c1.2,0,2.1-1,2.1-2.1v-5.6c0-1.2-1-2.1-2.1-2.1h-1.7c-0.4-0.4-1-0.6-1.6-0.6H30.3l-3.7-39.9
		c0.6-0.3,1.1-0.6,1.6-1c-0.1,0.3-0.1,0.5,0,0.8c0.1,0.6,0.4,1,0.8,1.4l0,0c0.4,0.3,0.8,0.4,1.2,0.4c0.6,0,1.3-0.3,1.7-0.8
		c0.1-0.1,0.2-0.2,0.2-0.3c0.1,0.2,0.3,0.4,0.5,0.6l0,0c0.4,0.3,0.9,0.4,1.3,0.3c-0.1,0.2-0.3,0.4-0.4,0.7c-0.3,0.4-0.5,1-0.4,1.5
		c0.1,0.6,0.4,1,0.8,1.4l0,0c0.4,0.3,0.8,0.4,1.2,0.4c0.6,0,1.3-0.3,1.6-0.8c0.1-0.1,0.2-0.2,0.2-0.3c0.1,0.2,0.3,0.4,0.5,0.5l0,0
		c0.3,0.2,0.7,0.3,1.1,0.3c-0.1,0.2-0.2,0.3-0.3,0.5C38-2029.1,37.8-2028.5,37.9-2027.9z"/>
	<path id="Fill-11" class="st1" d="M99.4-2123.2c-1.6-0.3-2.7-1.7-2.7-3.4v-0.3c0-1.4,1-2.5,2.4-2.7l0,2.7c0,0,0,0,0,0.1l0,0.3
		c0,0.3,0,0.7,0.1,1c0.1,0.3,0.2,0.6,0.3,0.9c0.1,0.1,0.1,0.2,0.2,0.3c0.2,0.3,0.4,0.5,0.6,0.7c0.1,0.1,0.2,0.1,0.3,0.2
		c0.2,0.1,0.4,0.3,0.6,0.4h-1C99.9-2123.1,99.6-2123.1,99.4-2123.2z M96.7-2133.4c0-1.5,1.2-2.7,2.7-2.7c0.6,0,1.1-0.3,1.5-0.8
		l3.7-6.1c1.1-1.8,3-2.9,5.1-2.9h0.7c-1.4,0.5-2.6,1.4-3.4,2.7l-2.1,3.4l-1,1.3c-0.2,0.2-0.3,0.5-0.2,0.8l-0.4,0.6
		c-0.2,0.4-0.6,0.6-1.1,0.6c-1.7,0-3.1,1.4-3.1,3.1l0,3c-1,0.1-1.8,0.6-2.4,1.3L96.7-2133.4z M128.8-2122.7c0.5,1.6,1.7,2.8,3.2,3.5
		c-0.1,0-0.2,0-0.3,0c-2.2,0-4.3-1.4-5.1-3.5H128.8z M108.4-2119.2c-0.1,0-0.2,0-0.3,0c-2.2,0-4.3-1.4-5.1-3.5h2.2
		C105.7-2121.1,106.9-2119.9,108.4-2119.2z M143.1-2136.4H142c-0.5-0.3-1-0.4-1.6-0.4H138c-1-0.4-1.8-1.1-2.4-2.1l-2.6-4.2
		c-1.2-1.9-3.2-3.1-5.4-3.1h-0.4c-0.7-0.3-1.5-0.4-2.3-0.4h-15.2c-2.3,0-4.6,1.3-5.8,3.3l-3.7,6.1c-0.2,0.3-0.5,0.4-0.8,0.4
		c-1.9,0-3.5,1.6-3.5,3.5l0,6.5c0,0,0,0,0,0l0,0.3c0,2.3,1.9,4.2,4.2,4.2h2c1,2.4,3.3,4,5.9,4c0.8,0,1.5-0.1,2.2-0.4
		c0.2,0,0.4,0,0.6,0c2.5,0,4.6-1.5,5.5-3.7h9.4c1,2.4,3.3,4,5.9,4c0.8,0,1.5-0.1,2.2-0.4c0.2,0,0.4,0,0.6,0c2.5,0,4.6-1.5,5.5-3.7
		c0.1,0,0.1,0,0.2,0c0.3-0.1,0.6-0.1,0.8-0.3h1c0,0,0,0,0,0c0.1,0,0.3,0,0.4,0c0.1,0,0.1,0,0.2,0c0.1,0,0.2,0,0.3,0
		c0.1,0,0.1,0,0.2,0c0.1,0,0.1,0,0.2-0.1c0.1,0,0.1,0,0.2-0.1c0.1,0,0.1,0,0.2-0.1c0.1,0,0.1-0.1,0.2-0.1c0.1,0,0.1-0.1,0.2-0.1
		c0.1,0,0.1-0.1,0.2-0.1c0,0,0.1-0.1,0.1-0.1c0.1,0,0.1-0.1,0.2-0.1c0,0,0.1-0.1,0.1-0.1c0.1-0.1,0.1-0.1,0.2-0.2
		c0,0,0.1-0.1,0.1-0.1c0.1-0.1,0.1-0.1,0.2-0.2c0,0,0.1-0.1,0.1-0.1c0.1-0.1,0.1-0.1,0.2-0.2c0,0,0-0.1,0.1-0.1
		c0.1-0.1,0.1-0.2,0.2-0.2c0,0,0-0.1,0.1-0.1c0-0.1,0.1-0.2,0.1-0.3c0,0,0-0.1,0.1-0.1c0-0.1,0.1-0.2,0.1-0.3c0,0,0-0.1,0-0.1
		c0-0.1,0.1-0.2,0.1-0.3c0,0,0-0.1,0-0.1c0-0.1,0-0.2,0-0.3c0,0,0-0.1,0-0.1c0-0.1,0-0.2,0-0.3c0,0,0-0.1,0-0.1c0,0,0,0,0,0v-0.1
		v-6.4C146.2-2135,144.8-2136.4,143.1-2136.4z"/>
	<path id="Fill-15" class="st2" d="M-103.8-2028.8h-24.8c1.4,0,2.5,1.1,2.5,2.5v4.1v1.6v1.4v1.2c2.2,0,3.9,1.8,3.9,3.9
		c0,1.4-0.7,2.6-1.8,3.3v7.1c0,0.6-0.5,1-1,1h-1.2v1c0,5.8-4.7,10.5-10.5,10.5h24.8c5.8,0,10.6-4.7,10.6-10.6v-24.5
		C-101.3-2027.7-102.5-2028.8-103.8-2028.8"/>
	<path id="Fill-17" class="st3" d="M-126.1-2001.8v-1h-1.2c-0.6,0-1-0.5-1-1v-7.1c-1.1-0.7-1.8-1.9-1.8-3.3c0-2.2,1.8-3.9,3.9-3.9
		v-1.2v-1.4v-1.6v-4.1c0-1.4-1.1-2.5-2.5-2.5h-11.3c-0.5,0-0.9-0.4-0.9-0.9v-6.3c0-7.9,6.4-14.3,14.3-14.3h0.4
		c7.9,0,14.3,6.4,14.3,14.3v2.2c0,0.4,0.3,0.8,0.8,0.8h5.2c0.4,0,0.8-0.3,0.8-0.8v-2.1c0-11.6-9.5-21-21-21h-0.4
		c-11.6,0-21,9.5-21,21v6.2c0,0.5-0.4,0.9-0.9,0.9c-1.4,0-2.5,1.1-2.5,2.5v0v24.5v0c0,5.8,4.7,10.5,10.5,10.5h0h3.7
		C-130.9-1991.2-126.1-1996-126.1-2001.8"/>
	<path id="Fill-19" class="st4" d="M-130.1-2014.2c0,1.4,0.7,2.6,1.8,3.3v7.1c0,0.6,0.5,1,1,1h1.2h1.2c0.6,0,1-0.5,1-1v-7.1
		c1.1-0.7,1.8-1.9,1.8-3.3c0-2.2-1.8-3.9-3.9-3.9S-130.1-2016.4-130.1-2014.2"/>
	<g id="Group-7" transform="translate(0.672710, 121.401718)">
		<path id="Fill-13" class="st1" d="M-209.6-2221.5v-5.5c0-0.5,0.4-0.9,0.9-0.9h1.3v0.1c0,0.1,0,0.2,0,0.3c-0.1,0.2-0.2,0.4-0.2,0.7
			v5.5c0,0.3,0.1,0.5,0.2,0.7h-1.3C-209.2-2220.6-209.6-2221-209.6-2221.5z M-206.7-2228.7h2v-28.5h-2V-2228.7z M-208.7-2257.9
			c-0.5,0-0.9-0.4-0.9-0.9v-4.3c0-0.5,0.4-0.9,0.9-0.9h1.7c-0.4,0.2-0.6,0.6-0.6,1.1v4.3c0,0.2,0.1,0.5,0.2,0.7v0.1H-208.7z
			 M-198.3-2269.7c0-0.9,0.6-1.6,1.5-1.7c-0.4,0.5-0.6,1.2-0.6,1.9v4.7h-0.8V-2269.7z M-146.9-2257.4h1.6c0.7,0,1.3-0.6,1.3-1.3
			v-4.3c0-0.7-0.6-1.3-1.3-1.3h-1.1c-0.3-0.3-0.7-0.6-1.2-0.6h-7v-4.7c0-1.8-1.5-3.2-3.2-3.2h-36.3c-0.7,0-1.3,0.2-1.8,0.6h-0.5
			c-1.4,0-2.5,1.1-2.5,2.5v4.9h-9.7c-0.9,0-1.6,0.7-1.6,1.6v4.3c0,0.9,0.7,1.6,1.6,1.6h1.3v28.5h-1.3c-0.9,0-1.6,0.7-1.6,1.6v5.5
			c0,0.9,0.7,1.6,1.6,1.6h61c0.3,0,0.5-0.1,0.8-0.2h1.6c0.7,0,1.3-0.6,1.3-1.3v-5.5c0-0.7-0.6-1.3-1.3-1.3h-1.1
			c-0.1-0.2-0.3-0.3-0.5-0.4L-146.9-2257.4C-146.9-2257.4-146.9-2257.4-146.9-2257.4z"/>
		<path id="Fill-25" class="st3" d="M-198.8-2272.9c0-0.5,0.4-1,1-1h36.3c0.5,0,1,0.4,1,1v5.3h2.3v-5.3c0-1.8-1.5-3.2-3.2-3.2h-36.3
			c-1.8,0-3.2,1.5-3.2,3.2v5.3h2.3V-2272.9z"/>
		<path id="Fill-27" class="st2" d="M-173.5-2246.8l-14.1,13.7l6.8-10.5h-3.3l12.7-13.8l-5.7,10.7L-173.5-2246.8z M-208.4-2231.5
			h57.8v-29.3h-57.8V-2231.5z"/>
		<path id="Fill-29" class="st3" d="M-210-2231.5c-0.7,0-1.3,0.6-1.3,1.3v5.5c0,0.7,0.6,1.3,1.3,1.3h61c0.7,0,1.3-0.6,1.3-1.3v-5.5
			c0-0.7-0.6-1.3-1.3-1.3h-1.6h-57.8H-210z"/>
		<path id="Fill-31" class="st3" d="M-149-2260.8c0.7,0,1.3-0.6,1.3-1.3v-4.3c0-0.7-0.6-1.3-1.3-1.3h-9.3h-2.3h-38.3h-2.3h-9
			c-0.7,0-1.3,0.6-1.3,1.3v4.3c0,0.7,0.6,1.3,1.3,1.3h1.6h57.8H-149z"/>
		<polygon id="Fill-33" class="st4" points="-184.1,-2243.6 -180.8,-2243.6 -187.6,-2233.1 -173.5,-2246.8 -177.1,-2246.7 
			-171.4,-2257.4 		"/>
	</g>
	<path id="Fill-45" class="st5" d="M95.5-2241.3c0,17.2-14,31.2-31.2,31.2c-17.2,0-31.2-14-31.2-31.2c0-17.2,14-31.2,31.2-31.2
		C81.6-2272.5,95.5-2258.5,95.5-2241.3"/>
	<path id="Fill-47" class="st2" d="M61.4-2274.2c-17.2,0-31.2,14-31.2,31.2c0,8.1,3.1,15.5,8.1,21c0.7,3.3,1.4,11.7-7.6,14.8
		c0,0,11,0.3,17.9-7.3c3.9,1.7,8.2,2.7,12.7,2.7c17.2,0,31.2-14,31.2-31.2C92.6-2260.3,78.7-2274.2,61.4-2274.2"/>
	<path id="Fill-49" class="st6" d="M61.4-2273.3c-16.7,0-30.2,13.5-30.2,30.2c0,7.5,2.8,14.8,7.9,20.3c0.1,0.1,0.2,0.3,0.2,0.5
		c0.4,2,0.7,4.9-0.2,7.9c-0.7,2.3-1.9,4.1-3.6,5.6c3.7-0.7,8.7-2.4,12.5-6.5c0.3-0.3,0.7-0.4,1.1-0.2c3.9,1.7,8,2.6,12.3,2.6
		c16.7,0,30.2-13.5,30.2-30.2C91.7-2259.7,78.1-2273.3,61.4-2273.3 M31-2206.3c-0.1,0-0.2,0-0.2,0c-0.5,0-0.9-0.4-0.9-0.8
		c-0.1-0.5,0.2-0.9,0.6-1.1c8-2.8,7.6-10.1,7-13.4c-5.3-5.9-8.2-13.5-8.2-21.5c0-17.7,14.4-32.2,32.2-32.2
		c17.7,0,32.2,14.4,32.2,32.2c0,17.7-14.4,32.2-32.2,32.2c-4.3,0-8.5-0.8-12.5-2.5C42.3-2206.6,32.7-2206.3,31-2206.3"/>
	<path id="Fill-51" class="st2" d="M73.9-2241.3c0,0.8,0.7,1.5,1.5,1.5c0.8,0,1.5-0.7,1.5-1.5s-0.7-1.5-1.5-1.5
		C74.5-2242.8,73.9-2242.1,73.9-2241.3"/>
	<path id="Fill-53" class="st2" d="M75.1-2230.5l4.7,2.5c0.4,0.2,0.5,0.7,0.3,1.1c-0.2,0.4-0.7,0.5-1.1,0.3l-4.7-2.5
		c-0.4-0.2-0.5-0.7-0.3-1.1C74.2-2230.5,74.7-2230.7,75.1-2230.5"/>
	<path id="Fill-55" class="st3" d="M61.4-2273.1c-16.2,0-29.5,13.2-29.5,29.5c0,7.4,2.7,14.4,7.7,19.8c0.2,0.2,0.4,0.5,0.4,0.8
		c0.4,2.1,1.2,7.9-2.3,12.4c3.2-0.9,6.8-2.6,9.7-5.7c0.5-0.6,1.3-0.7,2-0.4c3.8,1.7,7.8,2.5,12,2.5c16.2,0,29.5-13.2,29.5-29.5
		C90.9-2259.9,77.7-2273.1,61.4-2273.1 M31-2206.1c-0.1,0-0.2,0-0.2,0c-0.8,0-1.5-0.6-1.7-1.5s0.3-1.6,1.1-1.9
		c7.1-2.5,7.2-8.6,6.5-12.4c-5.3-6-8.3-13.7-8.3-21.8c0-18.1,14.8-32.9,32.9-32.9s32.9,14.8,32.9,32.9c0,18.2-14.8,32.9-32.9,32.9
		c-4.3,0-8.4-0.8-12.3-2.4C42.3-2206.4,32.7-2206.1,31-2206.1"/>
	<path id="Fill-57" class="st4" d="M69.1-2237c0,1.6-3.4,2.8-7.6,2.8c-4.2,0-7.6-1.3-7.6-2.8c-7.8,6-13.5,1.4-15.3,9.1
		c0.9,1.3,1.9,2.5,2.9,3.7c0.9,0.9,0.7,6-0.6,10.5c5.2-3,6-6,7.4-5.2c3.9,2.2,8.4,3.4,13.2,3.4c9.6,0,18-4.9,22.9-12.3
		C82.6-2235.6,76.9-2231,69.1-2237"/>
	<path id="Fill-61" class="st4" d="M51.2-2246.8c1.1,3,3,6,5.3,7.8c1.5,1.2,3.2,1.9,5,1.9c1.8,0,3.5-0.7,5-1.9
		c2.4-1.8,4.3-4.8,5.4-7.9c0.7-0.2,1.5-1.6,1.8-3.3c0.3-1.9,0-3.5-0.7-3.8c0-0.6-0.1-1.2-0.2-1.8c-0.3-5.3-1.9-7.6-4.3-8.7
		c-1.7-1.4-3.9-2.2-6.9-2.2c-3,0-5.2,0.8-6.9,2.2c-2.6,1.1-4.3,3.7-4.4,10c0,0.2,0,0.4,0,0.6c-0.8,0.2-1.1,1.8-0.8,3.8
		C49.6-2248.3,50.4-2246.9,51.2-2246.8"/>
	<path id="Fill-67" class="st1" d="M43.8-2002.2h-15c-1,0-1.9-0.8-2-1.8l-3.6-38.6c-1.2,0.6-2.6,0.9-4.1,0.9c-1.3,0-2.6-0.3-3.8-0.8
		l-3.9,38.5c-0.1,1-1,1.8-2,1.8h-15c-1.2,0-2.1,1-2.1,2.1v5.7c0,1.2,1,2.1,2.1,2.1h49.4c1.2,0,2.1-1,2.1-2.1v-5.7
		C45.9-2001.2,45-2002.2,43.8-2002.2"/>
	<polygon id="Path-2" class="st7" points="-2.6,-2026.1 -0.9,-2023.7 14.1,-2034.9 27.4,-2034.9 40.8,-2025.7 44.8,-2030.5 
		26,-2037.5 4.7,-2035.3 	"/>
	<path id="Fill-67_1_" class="st8" d="M47.8-1998.2h-15c-1,0-1.9-0.8-2-1.8l-3.6-38.6c-1.2,0.6-2.6,0.9-4.1,0.9
		c-1.3,0-2.6-0.3-3.8-0.8l-3.9,38.5c-0.1,1-1,1.8-2,1.8h-15c-1.2,0-2.1,1-2.1,2.1v5.7c0,1.2,1,2.1,2.1,2.1h49.4c1.2,0,2.1-1,2.1-2.1
		v-5.7C49.9-1997.2,49-1998.2,47.8-1998.2"/>
	<path id="Fill-69" class="st2" d="M27.2-2038.6c3.2-1.5,5.4-4.8,5.4-8.6c0-5.3-4.3-9.5-9.5-9.5c-5.3,0-9.5,4.3-9.5,9.5
		c0,3.9,2.4,7.3,5.8,8.8c1.2,0.5,2.4,0.8,3.8,0.8C24.6-2037.7,25.9-2038,27.2-2038.6"/>
	<path id="Fill-71" class="st3" d="M11-2037.7c0.5,0.7,1.5,0.8,2.2,0.3c0.7-0.5,0.9-1.6,0.3-2.3c-1.6-2.1-2.6-4.7-2.6-7.5
		c0-2.9,1-5.5,2.7-7.6c0.6-0.7,0.4-1.8-0.4-2.3c-0.7-0.5-1.7-0.3-2.2,0.3c-2.1,2.6-3.3,6-3.3,9.6C7.7-2043.6,8.9-2040.3,11-2037.7"
		/>
	<path id="Fill-73" class="st3" d="M35.3-2047.2c0,2.7-0.9,5.2-2.4,7.3c-0.5,0.7-0.4,1.7,0.4,2.3l0,0c0.7,0.5,1.7,0.4,2.2-0.3
		c1.9-2.6,3-5.7,3-9.2c0-3.5-1.1-6.7-3.1-9.2c-0.5-0.7-1.5-0.9-2.2-0.4c-0.8,0.5-0.9,1.6-0.4,2.3C34.4-2052.5,35.3-2050,35.3-2047.2
		"/>
	<path id="Fill-75" class="st3" d="M6-2034.1c0.5,0.7,1.5,0.8,2.2,0.3l0.1,0c0.7-0.5,0.9-1.6,0.3-2.3c-2.4-3.1-3.8-6.9-3.8-11.1
		c0-4.2,1.4-8,3.7-11.1c0.6-0.7,0.4-1.8-0.4-2.3l0,0c-0.7-0.5-1.7-0.3-2.2,0.3c-2.8,3.6-4.4,8.1-4.4,13
		C1.6-2042.3,3.2-2037.7,6-2034.1"/>
	<path id="Fill-77" class="st3" d="M41.3-2047.2c0,4.1-1.3,7.8-3.6,10.8c-0.5,0.7-0.4,1.7,0.4,2.3l0,0c0.7,0.5,1.7,0.4,2.2-0.3
		c2.6-3.6,4.2-8,4.2-12.8c0-4.8-1.5-9.1-4.1-12.7c-0.5-0.7-1.5-0.9-2.2-0.4l0,0c-0.7,0.5-0.9,1.5-0.4,2.3
		C40-2055,41.3-2051.3,41.3-2047.2"/>
	<path id="Fill-79" class="st3" d="M47.3-2047.2c0,5.4-1.7,10.3-4.7,14.3c-0.5,0.7-0.4,1.7,0.3,2.3l0.2,0.1c0.7,0.5,1.7,0.4,2.3-0.4
		c3.4-4.6,5.4-10.2,5.4-16.4c0-6-1.9-11.6-5.2-16.1c-0.5-0.7-1.5-0.9-2.2-0.4l-0.2,0.1c-0.8,0.5-0.9,1.5-0.4,2.3
		C45.6-2057.4,47.3-2052.5,47.3-2047.2"/>
	<path id="Fill-81" class="st3" d="M3.3-2030.2l0.2-0.1c0.7-0.5,0.9-1.6,0.3-2.3c-3.1-4.1-4.9-9.1-4.9-14.6c0-5.4,1.8-10.4,4.8-14.4
		c0.5-0.7,0.4-1.8-0.4-2.3l-0.2-0.1c-0.7-0.5-1.7-0.3-2.2,0.4c-3.4,4.6-5.4,10.3-5.4,16.5c0,6.3,2.1,12.1,5.6,16.7
		C1.6-2029.8,2.6-2029.7,3.3-2030.2"/>
	<g id="Group-8" transform="translate(254.590995, 123.090015)">
		<path id="Fill-115" class="st1" d="M-172.4-2249.3c0,2.7-2,5-4.8,5h-24.3c-2.7,0-4.8-2.3-4.8-5v-8c0-2.7,2-5,4.8-5h24.3
			c2.7,0,4.8,2.3,4.8,5V-2249.3z M-177.2-2231.1c-1.8,0-3.2-1.4-3.2-3.2c0-1.8,1.4-3.2,3.2-3.2c1.8,0,3.2,1.4,3.2,3.2
			C-174-2232.5-175.4-2231.1-177.2-2231.1z M-201.7-2231.1c-1.8,0-3.2-1.4-3.2-3.2c0-1.8,1.4-3.2,3.2-3.2c1.8,0,3.2,1.4,3.2,3.2
			C-198.5-2232.5-200-2231.1-201.7-2231.1z M-196.8-2269.4c0-0.7,0.7-1.1,1.1-1.1h12.5c0.7,0,1.1,0.5,1.1,1.1v1.6
			c0,0.7-0.5,1.1-1.1,1.1h-12.5c-0.5,0-1.1-0.5-1.1-1.1V-2269.4z M-179.9-2276.4h-18.9c-6.8,0-12.3,5.7-12.3,12.7v24.3
			c0,5.7,3.4,10.5,8.4,12.3l-4,10.8c-0.4,0.9,0.3,2,1.4,2h0.5c0.6,0,1.2-0.4,1.4-1l4-11.1h20.2l4.2,11.1c0.2,0.6,0.8,0.9,1.4,0.9
			h0.3c1,0,1.7-1,1.4-2l-4-10.8c5-1.8,8.4-6.6,8.4-12.3v-24.3C-167.6-2270.7-173.1-2276.4-179.9-2276.4z"/>
		<path id="Fill-115_1_" class="st3" d="M-169.2-2247.1c0,2.7-2,5-4.8,5h-24.3c-2.7,0-4.8-2.3-4.8-5v-8c0-2.7,2-5,4.8-5h24.3
			c2.7,0,4.8,2.3,4.8,5V-2247.1z M-174-2229c-1.8,0-3.2-1.4-3.2-3.2c0-1.8,1.4-3.2,3.2-3.2c1.8,0,3.2,1.4,3.2,3.2
			C-170.8-2230.4-172.2-2229-174-2229z M-198.5-2229c-1.8,0-3.2-1.4-3.2-3.2c0-1.8,1.4-3.2,3.2-3.2c1.8,0,3.2,1.4,3.2,3.2
			C-195.4-2230.4-196.8-2229-198.5-2229z M-193.6-2267.3c0-0.7,0.7-1.1,1.1-1.1h12.5c0.7,0,1.1,0.5,1.1,1.1v1.6
			c0,0.7-0.5,1.1-1.1,1.1h-12.5c-0.5,0-1.1-0.5-1.1-1.1V-2267.3z M-176.7-2274.3h-18.9c-6.8,0-12.3,5.7-12.3,12.7v24.3
			c0,5.7,3.4,10.5,8.4,12.3l-4,10.8c-0.4,0.9,0.3,2,1.4,2h0.5c0.6,0,1.2-0.4,1.4-1l4-11.1h20.2l4.2,11.1c0.2,0.6,0.8,0.9,1.4,0.9
			h0.3c1,0,1.7-1,1.4-2l-4-10.8c5-1.8,8.4-6.6,8.4-12.3v-24.3C-164.5-2268.6-169.9-2274.3-176.7-2274.3z"/>
		<path id="Fill-117" class="st4" d="M-192.4-2264.5h12.5c0.7,0,1.1-0.5,1.1-1.1v-1.6c0-0.7-0.5-1.1-1.1-1.1h-12.5
			c-0.5,0-1.1,0.5-1.1,1.1v1.6C-193.6-2265-192.9-2264.5-192.4-2264.5"/>
		<path id="Fill-119" class="st2" d="M-174-2260.1h-24.3c-2.7,0-4.8,2.3-4.8,5v8c0,2.7,2,5,4.8,5h24.3c2.7,0,4.8-2.3,4.8-5v-8
			C-169.2-2257.8-171.3-2260.1-174-2260.1"/>
		<path id="Fill-121" class="st4" d="M-198.5-2235.3c-1.8,0-3.2,1.4-3.2,3.2c0,1.8,1.4,3.2,3.2,3.2c1.8,0,3.2-1.4,3.2-3.2
			C-195.4-2233.9-196.8-2235.3-198.5-2235.3"/>
		<path id="Fill-123" class="st4" d="M-174-2235.3c-1.8,0-3.2,1.4-3.2,3.2c0,1.8,1.4,3.2,3.2,3.2c1.8,0,3.2-1.4,3.2-3.2
			C-170.8-2233.9-172.2-2235.3-174-2235.3"/>
	</g>
	<path id="Fill-135" class="st6" d="M101.1-2092.6c-0.2-0.1-0.5-0.2-0.7-0.4C100.7-2092.8,100.9-2092.7,101.1-2092.6"/>
	<path id="Fill-137" class="st6" d="M99.6-2093.9c0.2,0.3,0.4,0.5,0.6,0.7C100-2093.4,99.8-2093.7,99.6-2093.9"/>
	<path id="Fill-139" class="st6" d="M98.9-2096.1c0,0.7,0.2,1.3,0.5,1.8C99.1-2094.8,98.9-2095.4,98.9-2096.1"/>
	<path id="Fill-141" class="st6" d="M142.5-2118.3c-0.1,0-0.1,0-0.2,0C142.4-2118.2,142.4-2118.3,142.5-2118.3"/>
	<path id="Fill-143" class="st6" d="M146.1-2096.3c0,0.1,0,0.2,0,0.3C146.1-2096.1,146.1-2096.2,146.1-2096.3"/>
	<path id="Fill-145" class="st6" d="M142.9-2118.4c-0.1,0-0.1,0-0.2,0C142.8-2118.3,142.9-2118.3,142.9-2118.4"/>
	<path id="Fill-147" class="st6" d="M140-2118.2h1.9c0,0,0,0,0,0c0,0,0,0,0,0H140z"/>
	<path id="Fill-149" class="st6" d="M134.3-2122.2c1.1,0,2,0.9,2,2C136.3-2121.3,135.4-2122.2,134.3-2122.2s-2,0.9-2,2
		C132.4-2121.3,133.2-2122.2,134.3-2122.2"/>
	<path id="Fill-151" class="st6" d="M110.7-2122.2c1.1,0,2,0.9,2,2C112.7-2121.3,111.8-2122.2,110.7-2122.2c-1.1,0-2,0.9-2,2
		C108.8-2121.3,109.7-2122.2,110.7-2122.2"/>
	<path id="Fill-153" class="st6" d="M102.8-2118.2c-0.5,0-1-0.1-1.4-0.3C101.8-2118.3,102.3-2118.2,102.8-2118.2h2.3H102.8z"/>
	<path id="Fill-155" class="st3" d="M132.7-2132.5h-10.6c-0.7,0-1.3-0.4-1.3-0.9v-4.7c0-0.5,0.6-0.9,1.3-0.9h6.8
		c0.5,0,0.9,0.2,1.1,0.5l3.8,4.7C134.3-2133.2,133.6-2132.5,132.7-2132.5z M119.8-2133.3c0,0.5-0.6,0.9-1.3,0.9h-10.6
		c-1,0-1.6-0.7-1.1-1.3l3.8-4.7c0.2-0.3,0.7-0.5,1.1-0.5h6.8c0.7,0,1.3,0.4,1.3,0.9V-2133.3z M143-2132H140c-1.8,0-3.5-0.9-4.4-2.5
		l-2.6-4.2c-1.2-1.9-3.2-3.1-5.4-3.1h-15.2c-2.2,0-4.3,1.2-5.5,3.1l-3.7,6.1c-0.2,0.4-0.6,0.6-1.1,0.6c-1.7,0-3.1,1.4-3.1,3.1l0,6.4
		c0-1.7,1.4-3,3.1-3h5.9c0.8-0.4,1.8-0.7,2.8-0.7c1,0,1.9,0.2,2.8,0.7h18.1c0.8-0.4,1.8-0.7,2.8-0.7c1,0,1.9,0.2,2.8,0.7h2.9h3.1
		c1.7,0,3.1,1.4,3.1,3.1c0,0,0,0,0-0.1v-6.4C146.1-2130.6,144.7-2132,143-2132z"/>
	<polygon id="Fill-157" class="st6" points="116.4,-2118.2 116.4,-2118.2 128.7,-2118.2 	"/>
	<path id="Fill-159" class="st6" d="M143.7-2118.6c-0.1,0-0.1,0.1-0.2,0.1C143.6-2118.6,143.7-2118.6,143.7-2118.6"/>
	<path id="Fill-161" class="st6" d="M143.3-2118.5c-0.1,0-0.1,0.1-0.2,0.1C143.2-2118.4,143.3-2118.5,143.3-2118.5"/>
	<path id="Fill-163" class="st6" d="M145.5-2120.3c0,0.1-0.1,0.2-0.2,0.2C145.4-2120.2,145.5-2120.2,145.5-2120.3"/>
	<path id="Fill-165" class="st6" d="M145.7-2120.7c0,0.1-0.1,0.2-0.1,0.3C145.6-2120.5,145.7-2120.6,145.7-2120.7"/>
	<path id="Fill-167" class="st6" d="M146-2121.5c0,0.1,0,0.2-0.1,0.3C146-2121.3,146-2121.4,146-2121.5"/>
	<path id="Fill-169" class="st6" d="M145.3-2120c-0.1,0.1-0.1,0.2-0.2,0.2C145.2-2119.8,145.3-2119.9,145.3-2120"/>
	<path id="Fill-171" class="st6" d="M146.1-2095.9c0,0.1,0,0.2,0,0.3C146.1-2095.7,146.1-2095.8,146.1-2095.9"/>
	<path id="Fill-173" class="st6" d="M145.9-2121.1c0,0.1-0.1,0.2-0.1,0.3C145.8-2120.9,145.9-2121,145.9-2121.1"/>
	<path id="Fill-175" class="st6" d="M145.1-2119.7c-0.1,0.1-0.1,0.1-0.2,0.2C144.9-2119.5,145-2119.6,145.1-2119.7"/>
	<path id="Fill-177" class="st6" d="M144.1-2118.9c-0.1,0-0.1,0.1-0.2,0.1C144-2118.8,144-2118.8,144.1-2118.9"/>
	<path id="Fill-179" class="st6" d="M144.4-2119.1c-0.1,0.1-0.1,0.1-0.2,0.1C144.3-2119,144.4-2119,144.4-2119.1"/>
	<path id="Fill-181" class="st6" d="M144.8-2119.4c-0.1,0.1-0.1,0.1-0.2,0.2C144.6-2119.2,144.7-2119.3,144.8-2119.4"/>
	<path id="Fill-183" class="st4" d="M118.5-2138.9h-6.8c-0.5,0-0.9,0.2-1.1,0.5l-3.8,4.7c-0.5,0.6,0.2,1.3,1.1,1.3h10.6
		c0.7,0,1.3-0.4,1.3-0.9v-4.7C119.8-2138.5,119.2-2138.9,118.5-2138.9"/>
	<path id="Fill-185" class="st4" d="M130-2138.4c-0.2-0.3-0.7-0.5-1.1-0.5h-6.8c-0.7,0-1.3,0.4-1.3,0.9v4.7c0,0.5,0.6,0.9,1.3,0.9
		h10.6c1,0,1.6-0.7,1.1-1.3L130-2138.4z"/>
	<path id="Fill-187" class="st2" d="M134.3-2122.2c1.1,0,2,0.9,2,2c0,1.1-0.9,2-2,2s-2-0.9-2-2
		C132.4-2121.3,133.2-2122.2,134.3-2122.2 M110.7-2122.2c1.1,0,2,0.9,2,2c0,1.1-0.9,2-2,2c-1.1,0-2-0.9-2-2
		C108.8-2121.3,109.7-2122.2,110.7-2122.2 M143-2125.5H140h-2.9c-0.8-0.4-1.8-0.7-2.8-0.7s-1.9,0.2-2.8,0.7h-18.1
		c-0.8-0.4-1.8-0.7-2.8-0.7c-1,0-1.9,0.2-2.8,0.7H102c-1.7,0-3.1,1.4-3.1,3c0,0,0,0,0,0.1l0,0.3c0,0.7,0.2,1.3,0.5,1.8
		c0.1,0.1,0.1,0.2,0.2,0.3c0.2,0.3,0.4,0.5,0.6,0.7c0.1,0.1,0.2,0.1,0.3,0.2c0.2,0.2,0.4,0.3,0.7,0.4c0.1,0,0.2,0.1,0.3,0.1
		c0.4,0.2,0.9,0.3,1.4,0.3h2.3c0.8,2.3,3,4,5.6,4c2.6,0,4.8-1.7,5.6-4h12.3c0.8,2.3,3,4,5.6,4c2.6,0,4.8-1.7,5.6-4h1.9c0,0,0,0,0,0
		c0.1,0,0.3,0,0.4,0c0.1,0,0.1,0,0.2,0c0.1,0,0.2,0,0.3,0c0.1,0,0.1,0,0.2,0c0.1,0,0.1,0,0.2-0.1c0.1,0,0.1,0,0.2-0.1
		c0.1,0,0.1,0,0.2-0.1c0.1,0,0.1-0.1,0.2-0.1c0.1,0,0.1-0.1,0.2-0.1c0.1,0,0.1-0.1,0.2-0.1c0,0,0.1-0.1,0.1-0.1
		c0.1,0,0.1-0.1,0.2-0.1c0,0,0.1-0.1,0.1-0.1c0.1-0.1,0.1-0.1,0.2-0.2c0,0,0.1-0.1,0.1-0.1c0.1-0.1,0.1-0.1,0.2-0.2
		c0,0,0.1-0.1,0.1-0.1c0.1-0.1,0.1-0.1,0.2-0.2c0,0,0.1-0.1,0.1-0.1c0.1-0.1,0.1-0.2,0.2-0.2c0,0,0-0.1,0.1-0.1
		c0-0.1,0.1-0.2,0.1-0.3c0,0,0-0.1,0.1-0.1c0-0.1,0.1-0.2,0.1-0.3c0,0,0-0.1,0-0.1c0-0.1,0.1-0.2,0.1-0.3c0,0,0-0.1,0-0.1
		c0-0.1,0-0.2,0-0.3c0,0,0-0.1,0-0.1c0-0.1,0-0.2,0-0.3c0,0,0-0.1,0-0.1c0,0,0,0,0,0C146.1-2124.1,144.7-2125.5,143-2125.5"/>
	<path id="Fill-189" class="st2" d="M146.1-2096.4v-0.1C146.1-2096.5,146.1-2096.4,146.1-2096.4
		C146.1-2096.4,146.1-2096.4,146.1-2096.4"/>
	<path id="Fill-199" class="st9" d="M143.8-2122.4H143c0,0,0,0,0,0l0-0.1h0.8V-2122.4z"/>
	<g id="Group-264" transform="translate(90.000000, 0.308113)">
		<path id="Fill-202" class="st1" d="M-204.9-2240.9l4-6.1c-4.5,1.1-7.9,5.2-7.9,10c0,2.3,0.7,4.4,2,6.1l1-7.9
			C-205.7-2239.5-205.4-2240.3-204.9-2240.9"/>
		<path id="Fill-204" class="st1" d="M-183.5-2271.9l2.9-1c-0.6-0.3-1.3-0.4-2-0.4c-2.6,0-4.7,2.1-4.7,4.7c0,0.3,0,0.6,0.1,0.8
			l1.8-2.7C-184.9-2271.2-184.2-2271.7-183.5-2271.9"/>
		<path id="Fill-206" class="st1" d="M-207.5-2224.4C-207.5-2224.5-207.6-2224.5-207.5-2224.4l-1.6,11.3c0.1-0.2,0.1-0.3,0.2-0.5
			L-207.5-2224.4z"/>
		<path id="Fill-208" class="st1" d="M-205.6-2238.8c0.1-0.8,0.4-1.5,0.9-2.1l4-6.1c0,0-0.1,0-0.1,0l-4,6.1
			C-205.4-2240.3-205.7-2239.5-205.6-2238.8l-1.1,7.9c0,0,0,0.1,0.1,0.1L-205.6-2238.8z"/>
		<path id="Fill-210" class="st1" d="M-196.4-2253.6l6.7-10.2l0.3-0.4c0,0,0,0,0-0.1l-7.8,11.9c0,0,0,0,0.1,0L-196.4-2253.6z"/>
		<path id="Fill-212" class="st1" d="M-156.8-2281.2C-156.8-2281.2-156.8-2281.2-156.8-2281.2l-19.7,6.9c0,0,0,0,0,0L-156.8-2281.2z
			"/>
		<path id="Fill-214" class="st1" d="M-151.5-2278.1c0,0.4-0.2,0.7-0.6,0.8c-5.2,1.8-16.9,6.2-22.8,8.2c-2,0.7-3.3,1.1-3.3,1.1
			c-0.1,0-0.3,0.1-0.4,0.2c-0.6,0.3-1.1,0.7-1.5,1.2l-1.4,2.2l-2.5,3.8l-6.7,10.3l-2.9,4.4l-4.7,7.2c-0.5,0.6-0.8,1.3-0.9,2.1l-1,8
			l-0.7,5.2l-0.9,7.2c-0.2,1.8,1.2,3.5,3,3.5h20.6c0.5,0,1,0.1,1.5,0.2l-3.4-20.9c-0.1-0.8,0-1.6,0.4-2.4l5.9-22.6
			c0.4-0.8,1-1.4,1.8-1.8l18.3-13.1C-151.9-2274.2-151-2276.2-151.5-2278.1"/>
		<path id="Fill-216" class="st1" d="M-185.3-2270.6c0.5-0.6,1.1-1.1,1.9-1.3l2.6-0.9l0.2-0.1c0,0,0,0,0,0l-2.9,1
			C-184.2-2271.7-184.9-2271.2-185.3-2270.6l-1.9,2.8c0,0,0,0.1,0,0.1L-185.3-2270.6z"/>
		<path id="Fill-218" class="st1" d="M-208.7-2236.9c0-4.9,3.4-8.9,7.9-10c0,0,0.1,0,0.1,0l-4,6.1c-0.5,0.6-0.8,1.3-0.9,2.1l-1,8
			c0,0,0-0.1-0.1-0.1C-208-2232.6-208.7-2234.7-208.7-2236.9z M-187.2-2268.7c0-2.6,2.1-4.7,4.7-4.7c0.7,0,1.4,0.2,2,0.4
			c0,0,0,0,0,0l-0.2,0.1l-2.6,0.9c-0.7,0.3-1.4,0.7-1.9,1.3l-1.9,2.8c0,0,0-0.1,0-0.1C-187.2-2268.1-187.2-2268.4-187.2-2268.7z
			 M-198.7-2212.8c-1.8,0-3.3-1.6-3-3.5l0.9-7.2l0.7-5.2l1-8c0.1-0.8,0.4-1.5,0.9-2.1l4.7-7.2l2.9-4.4l6.7-10.3l2.5-3.8l1.4-2.2
			c0.4-0.5,0.9-0.9,1.5-1.2c0.1-0.1,0.3-0.1,0.4-0.2c0,0,1.3-0.4,3.3-1.1c5.9-2,17.6-6.4,22.8-8.2c0.4-0.1,0.6-0.5,0.6-0.8
			c0,0,0-0.1,0-0.1l-0.1-0.4c-0.7-2.2-3-3.4-5.2-2.6l0,0l-19.7,6.9c0,0,0,0,0,0c-1.5-1.5-3.5-2.5-5.7-2.6c-4.6-0.1-8.5,3.7-8.5,8.3
			c0,1.6,0.5,3.1,1.3,4.4c0,0,0,0,0,0.1l-0.3,0.4l-6.7,10.2l-0.8,1.3c0,0,0,0-0.1,0c-0.4,0-0.7,0-1.1,0c-8.5,0-15.5,6.9-15.5,15.5
			c0,5.1,2.5,9.6,6.3,12.4c0,0,0.1,0,0.1,0.1l-1.4,10.8c0,0.2-0.1,0.4-0.2,0.5c-0.2,0.4-0.5,0.7-0.9,1c-1.7,0.9-2.8,2.6-2.8,4.7
			c0,2.9,2.4,5.2,5.2,5.2h29.5c2.9,0,5.2-2.4,5.2-5.2c0-2.4-1.6-4.4-3.7-5c-0.5-0.1-1-0.2-1.5-0.2H-198.7z"/>
		<path id="Fill-220" class="st2" d="M-211.5-2227.1C-211.5-2227.2-211.5-2227.2-211.5-2227.1l-1.6,11.3c0.1-0.2,0.1-0.3,0.2-0.5
			L-211.5-2227.1z"/>
		<path id="Fill-222" class="st2" d="M-209.6-2241.5c0.1-0.8,0.4-1.5,0.9-2.1l4-6.1c0,0-0.1,0-0.1,0l-4,6.1
			C-209.3-2243-209.6-2242.2-209.6-2241.5l-1.1,7.9c0,0,0,0.1,0.1,0.1L-209.6-2241.5z"/>
		<path id="Fill-224" class="st2" d="M-200.4-2256.3l6.7-10.2l0.3-0.4c0,0,0,0,0-0.1l-7.8,11.9c0,0,0,0,0.1,0L-200.4-2256.3z"/>
		<path id="Fill-226" class="st2" d="M-160.8-2283.9C-160.8-2283.9-160.8-2283.9-160.8-2283.9l-19.7,6.9c0,0,0,0,0,0L-160.8-2283.9z
			"/>
		<path id="Fill-228" class="st2" d="M-155.5-2280.8c0,0.4-0.2,0.7-0.6,0.8c-5.2,1.8-16.9,6.2-22.8,8.2c-2,0.7-3.3,1.1-3.3,1.1
			c-0.1,0-0.3,0.1-0.4,0.2c-0.6,0.3-1.1,0.7-1.5,1.2l-1.4,2.2l-2.5,3.8l-6.7,10.3l-2.9,4.4l-4.7,7.2c-0.5,0.6-0.8,1.3-0.9,2.1l-1,8
			l-0.7,5.2l-0.9,7.2c-0.2,1.8,1.2,3.5,3,3.5h20.6c0.5,0,1,0.1,1.5,0.2l-3.4-20.9c-0.1-0.8,0-1.6,0.4-2.4l5.9-22.6
			c0.4-0.8,1-1.4,1.8-1.8l18.3-13.1C-155.8-2276.9-155-2278.9-155.5-2280.8"/>
		<path id="Fill-230" class="st2" d="M-189.3-2273.3c0.5-0.6,1.1-1.1,1.9-1.3l2.6-0.9l0.2-0.1c0,0,0,0,0,0l-2.9,1
			C-188.2-2274.4-188.9-2273.9-189.3-2273.3l-1.9,2.8c0,0,0,0.1,0,0.1L-189.3-2273.3z"/>
		<path id="Fill-232" class="st3" d="M-212.7-2239.6c0-4.9,3.4-8.9,7.9-10c0,0,0.1,0,0.1,0l-4,6.1c-0.5,0.6-0.8,1.3-0.9,2.1l-1,8
			c0,0,0-0.1-0.1-0.1C-212-2235.3-212.7-2237.4-212.7-2239.6z M-191.2-2271.4c0-2.6,2.1-4.7,4.7-4.7c0.7,0,1.4,0.2,2,0.4
			c0,0,0,0,0,0l-0.2,0.1l-2.6,0.9c-0.7,0.3-1.4,0.7-1.9,1.3l-1.9,2.8c0,0,0-0.1,0-0.1C-191.2-2270.8-191.2-2271.1-191.2-2271.4z
			 M-202.7-2215.5c-1.8,0-3.3-1.6-3-3.5l0.9-7.2l0.7-5.2l1-8c0.1-0.8,0.4-1.5,0.9-2.1l4.7-7.2l2.9-4.4l6.7-10.3l2.5-3.8l1.4-2.2
			c0.4-0.5,0.9-0.9,1.5-1.2c0.1-0.1,0.3-0.1,0.4-0.2c0,0,1.3-0.4,3.3-1.1c5.9-2,17.6-6.4,22.8-8.2c0.4-0.1,0.6-0.5,0.6-0.8
			c0,0,0-0.1,0-0.1l-0.1-0.4c-0.7-2.2-3-3.4-5.2-2.6l0,0l-19.7,6.9c0,0,0,0,0,0c-1.5-1.5-3.5-2.5-5.7-2.6c-4.6-0.1-8.5,3.7-8.5,8.3
			c0,1.6,0.5,3.1,1.3,4.4c0,0,0,0,0,0.1l-0.3,0.4l-6.7,10.2l-0.8,1.3c0,0,0,0-0.1,0c-0.4,0-0.7,0-1.1,0c-8.5,0-15.5,6.9-15.5,15.5
			c0,5.1,2.5,9.6,6.3,12.4c0,0,0.1,0,0.1,0.1l-1.4,10.8c0,0.2-0.1,0.4-0.2,0.5c-0.2,0.4-0.5,0.7-0.9,1c-1.7,0.9-2.8,2.6-2.8,4.7
			c0,2.9,2.4,5.2,5.2,5.2h29.5c2.9,0,5.2-2.4,5.2-5.2c0-2.4-1.6-4.4-3.7-5c-0.5-0.1-1-0.2-1.5-0.2H-202.7z"/>
		<path id="Fill-234" class="st3" d="M-131.9-2265.4c0.7,1.8,0.1,3.8-1.4,5l0,0.1l8.6-4c0.5-0.2,0.4-1-0.1-1.1l-8.2-1.6
			C-132.6-2266.6-132.2-2266.1-131.9-2265.4"/>
		<path id="Fill-236" class="st3" d="M-122.4-2272.2l-3-7.1c-0.2,1.5-1.2,2.9-2.7,3.5c-0.6,0.2-1.2,0.3-1.8,0.3l6.6,4
			C-122.8-2271.1-122.1-2271.6-122.4-2272.2"/>
		<path id="Fill-238" class="st3" d="M-131.1-2283.7c0.4-0.2,0.9-0.3,1.3-0.3l-8.1-7c0.4,2-0.7,4-2.6,4.8c-2.2,0.9-4.7-0.2-5.5-2.4
			c-0.4-1.1-0.4-2.3,0.1-3.3l-13.9,8.5c-0.3,0.2-0.5,0.6-0.4,1l3.9,16.5c0.4-1.2,1.3-2.3,2.5-2.8c2.2-0.9,4.7,0.2,5.5,2.4
			c0.7,1.8,0.1,3.7-1.3,4.9l11.1,0.9c-0.5-0.4-1-1-1.2-1.7c-0.7-1.9-0.1-3.9,1.5-5l-11.1-0.9c-0.4,0-0.7-0.3-0.8-0.7l-2.4-10.3
			c-0.1-0.4,0.1-0.8,0.4-1l9.1-5.5c0.3-0.2,0.7-0.2,1,0.1l8.5,7.3l0,0l0,0C-134.4-2280.5-133.3-2282.9-131.1-2283.7"/>
		<path id="Fill-240" class="st2" d="M-148.4-2266.4c-0.9-2.2-3.3-3.3-5.5-2.4c-1.3,0.5-2.2,1.6-2.5,2.8c-0.3,0.9-0.2,1.8,0.1,2.7
			c0.9,2.2,3.3,3.3,5.5,2.4c0.4-0.2,0.8-0.4,1.1-0.7C-148.3-2262.6-147.7-2264.6-148.4-2266.4"/>
		<path id="Fill-242" class="st2" d="M-146.2-2288.7c0.9,2.2,3.3,3.3,5.5,2.4c1.9-0.8,3-2.8,2.6-4.8c0-0.3-0.1-0.5-0.2-0.8
			c-0.9-2.2-3.3-3.3-5.5-2.4c-1.1,0.4-1.9,1.3-2.4,2.3C-146.5-2290.9-146.6-2289.8-146.2-2288.7"/>
		<path id="Fill-244" class="st2" d="M-128-2275.7c1.5-0.6,2.5-2,2.7-3.5c0.1-0.7,0-1.4-0.3-2c-0.7-1.8-2.4-2.8-4.2-2.7
			c-0.4,0-0.9,0.1-1.3,0.3c-2.1,0.8-3.2,3.2-2.5,5.4c0,0.1,0,0.1,0.1,0.2c0.6,1.6,2.1,2.6,3.7,2.7
			C-129.3-2275.4-128.6-2275.5-128-2275.7"/>
		<path id="Fill-246" class="st2" d="M-139.9-2262.3c0.3,0.7,0.7,1.3,1.2,1.7c1.2,1,2.8,1.3,4.3,0.7c0.4-0.1,0.7-0.3,1-0.6
			c1.5-1.1,2.1-3.1,1.4-5c-0.3-0.6-0.6-1.2-1.1-1.6c-1.2-1-2.9-1.4-4.4-0.8c-0.3,0.1-0.6,0.3-0.9,0.5
			C-140-2266.2-140.6-2264.2-139.9-2262.3"/>
		<path id="Fill-256" class="st9" d="M-213.6-2226.6c-0.1,0-0.2,0-0.3-0.1l-0.1,0c-0.2-0.2-0.3-0.5-0.1-0.7c0.2-0.2,0.5-0.3,0.7-0.1
			l0.1,0c0.2,0.2,0.3,0.5,0.1,0.7C-213.3-2226.7-213.4-2226.6-213.6-2226.6"/>
	</g>
	<g>
		<path class="st3" d="M53.4-2182.5c-1,0-1.8-0.3-2.5-0.9c-0.7-0.6-1-1.3-1-2.3v-6.1h1.8v6c0,0.5,0.1,0.9,0.4,1.1
			c0.3,0.3,0.7,0.4,1.3,0.4c0.6,0,1-0.1,1.3-0.4c0.3-0.3,0.4-0.7,0.4-1.1v-6h1.8v6.1c0,1-0.3,1.7-1,2.3
			C55.3-2182.8,54.4-2182.5,53.4-2182.5z"/>
		<path class="st3" d="M59.9-2187.3c0,0.2,0.1,0.3,0.3,0.4s0.5,0.2,0.8,0.3s0.7,0.2,1,0.3c0.3,0.1,0.6,0.3,0.8,0.6s0.3,0.7,0.3,1.1
			c0,0.7-0.2,1.2-0.7,1.5c-0.5,0.4-1.1,0.5-1.9,0.5c-1.3,0-2.2-0.5-2.7-1.5l1.5-0.8c0.2,0.6,0.6,0.8,1.3,0.8c0.6,0,0.9-0.2,0.9-0.6
			c0-0.2-0.1-0.3-0.3-0.4s-0.5-0.2-0.8-0.3c-0.3-0.1-0.7-0.2-1-0.3c-0.3-0.1-0.6-0.3-0.8-0.6c-0.2-0.3-0.3-0.6-0.3-1.1
			c0-0.6,0.2-1.1,0.7-1.5c0.5-0.4,1.1-0.6,1.8-0.6c0.5,0,1,0.1,1.4,0.4c0.4,0.2,0.8,0.6,1,1l-1.4,0.8c-0.2-0.4-0.6-0.7-1-0.7
			c-0.2,0-0.4,0-0.5,0.1C60-2187.6,59.9-2187.5,59.9-2187.3z"/>
		<path class="st3" d="M69.2-2189.2h1.7v6.5h-1.7v-0.8c-0.5,0.6-1.2,0.9-2.1,0.9c-0.9,0-1.6-0.3-2.2-1s-0.9-1.5-0.9-2.4
			s0.3-1.8,0.9-2.4s1.4-1,2.2-1c0.9,0,1.6,0.3,2.1,0.9V-2189.2z M66.1-2184.6c0.3,0.3,0.8,0.5,1.3,0.5c0.5,0,1-0.2,1.3-0.5
			c0.3-0.3,0.5-0.8,0.5-1.3c0-0.5-0.2-1-0.5-1.3s-0.8-0.5-1.3-0.5c-0.5,0-0.9,0.2-1.3,0.5s-0.5,0.8-0.5,1.3
			C65.6-2185.4,65.8-2184.9,66.1-2184.6z"/>
		<path class="st3" d="M77.4-2189.2H79v6.2c0,1-0.3,1.8-1,2.3c-0.7,0.5-1.5,0.8-2.4,0.8c-0.7,0-1.3-0.1-1.9-0.4s-0.9-0.7-1.2-1.2
			l1.4-0.8c0.3,0.6,0.9,0.9,1.7,0.9c0.5,0,0.9-0.1,1.2-0.4s0.5-0.7,0.5-1.2v-0.7c-0.5,0.7-1.2,1-2.1,1c-0.9,0-1.7-0.3-2.3-1
			c-0.6-0.6-0.9-1.4-0.9-2.4c0-0.9,0.3-1.7,0.9-2.4s1.4-1,2.3-1c0.9,0,1.6,0.3,2.1,1V-2189.2z M74.2-2184.7c0.3,0.3,0.8,0.5,1.3,0.5
			s1-0.2,1.3-0.5c0.3-0.3,0.5-0.8,0.5-1.3c0-0.5-0.2-0.9-0.5-1.3c-0.3-0.3-0.8-0.5-1.3-0.5s-1,0.2-1.3,0.5c-0.3,0.3-0.5,0.8-0.5,1.3
			C73.7-2185.5,73.9-2185.1,74.2-2184.7z"/>
		<path class="st3" d="M81.9-2185.2c0.2,0.8,0.8,1.2,1.8,1.2c0.6,0,1.1-0.2,1.5-0.6l1.4,0.8c-0.6,0.9-1.6,1.4-2.8,1.4
			c-1.1,0-1.9-0.3-2.6-1c-0.7-0.6-1-1.5-1-2.5c0-1,0.3-1.8,1-2.5c0.6-0.7,1.5-1,2.5-1c1,0,1.7,0.3,2.4,1c0.6,0.7,0.9,1.5,0.9,2.4
			c0,0.2,0,0.4-0.1,0.7H81.9z M81.9-2186.5h3.3c-0.1-0.4-0.3-0.8-0.6-1c-0.3-0.2-0.6-0.3-1-0.3c-0.5,0-0.8,0.1-1.1,0.3
			C82.2-2187.3,82-2186.9,81.9-2186.5z"/>
		<path class="st3" d="M89.8-2188c0.2-0.4,0.4-0.7,0.8-0.9c0.4-0.2,0.8-0.3,1.2-0.3v1.9c-0.5-0.1-1,0-1.4,0.3
			c-0.4,0.3-0.6,0.7-0.6,1.3v3.1h-1.7v-6.5h1.7V-2188z"/>
		<path class="st3" d="M94-2187.3c0,0.2,0.1,0.3,0.3,0.4s0.5,0.2,0.8,0.3s0.7,0.2,1,0.3c0.3,0.1,0.6,0.3,0.8,0.6s0.3,0.7,0.3,1.1
			c0,0.7-0.2,1.2-0.7,1.5c-0.5,0.4-1.1,0.5-1.9,0.5c-1.3,0-2.2-0.5-2.7-1.5l1.5-0.8c0.2,0.6,0.6,0.8,1.3,0.8c0.6,0,0.9-0.2,0.9-0.6
			c0-0.2-0.1-0.3-0.3-0.4s-0.5-0.2-0.8-0.3c-0.3-0.1-0.7-0.2-1-0.3c-0.3-0.1-0.6-0.3-0.8-0.6c-0.2-0.3-0.3-0.6-0.3-1.1
			c0-0.6,0.2-1.1,0.7-1.5c0.5-0.4,1.1-0.6,1.8-0.6c0.5,0,1,0.1,1.4,0.4c0.4,0.2,0.8,0.6,1,1l-1.4,0.8c-0.2-0.4-0.6-0.7-1-0.7
			c-0.2,0-0.4,0-0.5,0.1C94.1-2187.6,94-2187.5,94-2187.3z"/>
	</g>
	<g>
		<path class="st3" d="M99.8-2091.3l-3.1-9.1h2l2.2,7l2.2-7h2l-3.1,9.1H99.8z"/>
		<path class="st3" d="M106.5-2093.8c0.2,0.8,0.8,1.2,1.8,1.2c0.6,0,1.1-0.2,1.5-0.7l1.4,0.8c-0.6,0.9-1.6,1.4-2.8,1.4
			c-1.1,0-1.9-0.3-2.6-1c-0.7-0.7-1-1.5-1-2.5c0-1,0.3-1.8,1-2.5c0.6-0.7,1.5-1,2.5-1c1,0,1.7,0.3,2.4,1c0.6,0.7,0.9,1.5,0.9,2.4
			c0,0.2,0,0.4-0.1,0.7H106.5z M106.5-2095.1h3.3c-0.1-0.4-0.3-0.8-0.6-1c-0.3-0.2-0.6-0.3-1-0.3c-0.5,0-0.8,0.1-1.1,0.3
			C106.8-2095.9,106.6-2095.5,106.5-2095.1z M110.1-2100.4l-1.4,1.8H107l1-1.8H110.1z"/>
		<path class="st3" d="M116.2-2097.9c0.7,0,1.3,0.2,1.8,0.7s0.7,1.1,0.7,2v4H117v-3.8c0-0.4-0.1-0.8-0.4-1c-0.2-0.2-0.5-0.3-0.9-0.3
			c-0.4,0-0.8,0.1-1,0.4c-0.3,0.3-0.4,0.7-0.4,1.2v3.5h-1.7v-9.1h1.7v3.3C114.7-2097.6,115.4-2097.9,116.2-2097.9z"/>
		<path class="st3" d="M121-2098.5c-0.3,0-0.5-0.1-0.7-0.3c-0.2-0.2-0.3-0.4-0.3-0.7c0-0.3,0.1-0.5,0.3-0.7c0.2-0.2,0.4-0.3,0.7-0.3
			c0.3,0,0.5,0.1,0.7,0.3c0.2,0.2,0.3,0.5,0.3,0.7c0,0.3-0.1,0.5-0.3,0.7C121.5-2098.6,121.2-2098.5,121-2098.5z M120.1-2091.3v-6.5
			h1.7v6.5H120.1z"/>
		<path class="st3" d="M126.4-2091.1c-1,0-1.8-0.3-2.5-1c-0.7-0.7-1-1.5-1-2.4s0.3-1.8,1-2.4c0.7-0.7,1.5-1,2.5-1
			c0.6,0,1.2,0.2,1.7,0.5c0.5,0.3,0.9,0.7,1.2,1.2l-1.4,0.8c-0.1-0.3-0.3-0.5-0.6-0.6c-0.3-0.2-0.6-0.2-0.9-0.2
			c-0.5,0-0.9,0.2-1.2,0.5c-0.3,0.3-0.5,0.8-0.5,1.3c0,0.5,0.2,0.9,0.5,1.3c0.3,0.3,0.7,0.5,1.2,0.5c0.3,0,0.6-0.1,0.9-0.2
			c0.3-0.2,0.5-0.4,0.6-0.6l1.5,0.8c-0.3,0.5-0.7,0.9-1.2,1.2C127.6-2091.2,127.1-2091.1,126.4-2091.1z"/>
		<path class="st3" d="M134.6-2097.8h1.7v6.5h-1.7v-0.7c-0.4,0.6-1.1,0.9-1.9,0.9c-0.7,0-1.3-0.2-1.8-0.7s-0.7-1.1-0.7-2v-4h1.7v3.8
			c0,0.4,0.1,0.8,0.4,1c0.2,0.2,0.5,0.3,0.9,0.3c0.4,0,0.8-0.1,1-0.4s0.4-0.7,0.4-1.2V-2097.8z"/>
		<path class="st3" d="M137.8-2091.3v-9.5h1.7v9.5H137.8z"/>
		<path class="st3" d="M142.4-2093.8c0.2,0.8,0.8,1.2,1.8,1.2c0.6,0,1.1-0.2,1.5-0.7l1.4,0.8c-0.6,0.9-1.6,1.4-2.8,1.4
			c-1.1,0-1.9-0.3-2.6-1c-0.7-0.7-1-1.5-1-2.5c0-1,0.3-1.8,1-2.5c0.6-0.7,1.5-1,2.5-1c1,0,1.7,0.3,2.4,1c0.6,0.7,0.9,1.5,0.9,2.4
			c0,0.2,0,0.4-0.1,0.7H142.4z M142.4-2095.1h3.3c-0.1-0.4-0.3-0.8-0.6-1c-0.3-0.2-0.6-0.3-1-0.3c-0.5,0-0.8,0.1-1.1,0.3
			C142.7-2095.9,142.5-2095.5,142.4-2095.1z"/>
		<path class="st3" d="M149.9-2095.9c0,0.2,0.1,0.3,0.3,0.4s0.5,0.2,0.8,0.3c0.3,0.1,0.7,0.2,1,0.3c0.3,0.1,0.6,0.3,0.8,0.6
			c0.2,0.3,0.3,0.7,0.3,1.1c0,0.7-0.2,1.2-0.7,1.5c-0.5,0.4-1.1,0.5-1.9,0.5c-1.3,0-2.2-0.5-2.7-1.5l1.5-0.8
			c0.2,0.6,0.6,0.8,1.3,0.8c0.6,0,0.9-0.2,0.9-0.6c0-0.2-0.1-0.3-0.3-0.4s-0.5-0.2-0.8-0.3c-0.3-0.1-0.7-0.2-1-0.3
			c-0.3-0.1-0.6-0.3-0.8-0.6s-0.3-0.6-0.3-1.1c0-0.6,0.2-1.1,0.7-1.5c0.5-0.4,1.1-0.6,1.8-0.6c0.5,0,1,0.1,1.4,0.4
			c0.4,0.2,0.8,0.6,1,1l-1.4,0.8c-0.2-0.4-0.6-0.7-1-0.7c-0.2,0-0.4,0-0.5,0.1C149.9-2096.2,149.9-2096.1,149.9-2095.9z"/>
	</g>
	<g>
		<path class="st3" d="M-8.1-1978.8h1.8v9.1h-1.8V-1978.8z"/>
		<path class="st3" d="M-1.1-1976.4c0.7,0,1.3,0.2,1.8,0.7s0.7,1.1,0.7,2v4h-1.7v-3.8c0-0.4-0.1-0.8-0.4-1c-0.2-0.2-0.5-0.3-0.9-0.3
			c-0.4,0-0.8,0.1-1,0.4s-0.4,0.7-0.4,1.2v3.5h-1.7v-6.5h1.7v0.7C-2.6-1976.1-2-1976.4-1.1-1976.4z"/>
		<path class="st3" d="M6.3-1977.4c-0.9-0.1-1.4,0.3-1.4,1.1v0.1h1.4v1.6H4.9v4.9H3.2v-4.9H2.3v-1.6h0.9v-0.1c0-0.9,0.3-1.6,0.8-2.1
			c0.5-0.5,1.3-0.7,2.3-0.6V-1977.4z"/>
		<path class="st3" d="M8.7-1975.1c0.2-0.4,0.4-0.7,0.8-0.9c0.4-0.2,0.8-0.3,1.2-0.3v1.9c-0.5-0.1-1,0-1.4,0.3
			c-0.4,0.3-0.6,0.7-0.6,1.3v3.1H7v-6.5h1.7V-1975.1z"/>
		<path class="st3" d="M16.4-1976.2H18v6.5h-1.7v-0.8c-0.5,0.6-1.2,0.9-2.1,0.9c-0.9,0-1.6-0.3-2.2-1s-0.9-1.5-0.9-2.4
			s0.3-1.8,0.9-2.4s1.4-1,2.2-1c0.9,0,1.6,0.3,2.1,0.9V-1976.2z M13.3-1971.6c0.3,0.3,0.8,0.5,1.3,0.5c0.5,0,1-0.2,1.3-0.5
			c0.3-0.3,0.5-0.8,0.5-1.3c0-0.5-0.2-1-0.5-1.3c-0.3-0.3-0.8-0.5-1.3-0.5c-0.5,0-0.9,0.2-1.3,0.5c-0.3,0.3-0.5,0.8-0.5,1.3
			C12.8-1972.4,12.9-1972,13.3-1971.6z"/>
		<path class="st3" d="M21.1-1974.3c0,0.2,0.1,0.3,0.3,0.4s0.5,0.2,0.8,0.3c0.3,0.1,0.7,0.2,1,0.3c0.3,0.1,0.6,0.3,0.8,0.6
			c0.2,0.3,0.3,0.7,0.3,1.1c0,0.7-0.2,1.2-0.7,1.5c-0.5,0.4-1.1,0.5-1.9,0.5c-1.3,0-2.2-0.5-2.7-1.5l1.5-0.8
			c0.2,0.6,0.6,0.8,1.3,0.8c0.6,0,0.9-0.2,0.9-0.6c0-0.2-0.1-0.3-0.3-0.4s-0.5-0.2-0.8-0.3c-0.3-0.1-0.7-0.2-1-0.3
			c-0.3-0.1-0.6-0.3-0.8-0.6c-0.2-0.3-0.3-0.6-0.3-1.1c0-0.6,0.2-1.1,0.7-1.5c0.5-0.4,1.1-0.6,1.8-0.6c0.5,0,1,0.1,1.4,0.4
			s0.8,0.6,1,1l-1.4,0.8c-0.2-0.4-0.6-0.7-1-0.7c-0.2,0-0.4,0-0.5,0.1C21.1-1974.6,21.1-1974.5,21.1-1974.3z"/>
		<path class="st3" d="M29-1974.6h-1.5v2.7c0,0.2,0.1,0.4,0.2,0.5c0.1,0.1,0.3,0.2,0.5,0.2c0.2,0,0.5,0,0.8,0v1.5
			c-1.2,0.1-2,0-2.4-0.3c-0.5-0.3-0.7-1-0.7-1.9v-2.7h-1.1v-1.6h1.1v-1.3l1.7-0.5v1.8H29V-1974.6z"/>
		<path class="st3" d="M32-1975.1c0.2-0.4,0.4-0.7,0.8-0.9c0.4-0.2,0.8-0.3,1.2-0.3v1.9c-0.5-0.1-1,0-1.4,0.3
			c-0.4,0.3-0.6,0.7-0.6,1.3v3.1h-1.7v-6.5H32V-1975.1z"/>
		<path class="st3" d="M39.2-1976.2h1.7v6.5h-1.7v-0.7c-0.4,0.6-1.1,0.9-1.9,0.9c-0.7,0-1.3-0.2-1.8-0.7c-0.5-0.5-0.7-1.1-0.7-2v-4
			h1.7v3.8c0,0.4,0.1,0.8,0.4,1c0.2,0.2,0.5,0.3,0.9,0.3c0.4,0,0.8-0.1,1-0.4s0.4-0.7,0.4-1.2V-1976.2z"/>
		<path class="st3" d="M45.5-1969.5c-1,0-1.8-0.3-2.5-1s-1-1.5-1-2.4s0.3-1.8,1-2.4c0.7-0.7,1.5-1,2.5-1c0.6,0,1.2,0.2,1.7,0.5
			c0.5,0.3,0.9,0.7,1.2,1.2l-1.4,0.8c-0.1-0.3-0.3-0.5-0.6-0.6s-0.6-0.2-0.9-0.2c-0.5,0-0.9,0.2-1.2,0.5c-0.3,0.3-0.5,0.8-0.5,1.3
			c0,0.5,0.2,0.9,0.5,1.3c0.3,0.3,0.7,0.5,1.2,0.5c0.3,0,0.6-0.1,0.9-0.2c0.3-0.2,0.5-0.4,0.6-0.6l1.5,0.8c-0.3,0.5-0.7,0.9-1.2,1.2
			C46.7-1969.7,46.1-1969.5,45.5-1969.5z"/>
		<path class="st3" d="M53.1-1974.6h-1.5v2.7c0,0.2,0.1,0.4,0.2,0.5c0.1,0.1,0.3,0.2,0.5,0.2c0.2,0,0.5,0,0.8,0v1.5
			c-1.2,0.1-2,0-2.4-0.3c-0.5-0.3-0.7-1-0.7-1.9v-2.7h-1.1v-1.6h1.1v-1.3l1.7-0.5v1.8h1.5V-1974.6z"/>
		<path class="st3" d="M58.6-1976.2h1.7v6.5h-1.7v-0.7c-0.4,0.6-1.1,0.9-1.9,0.9c-0.7,0-1.3-0.2-1.8-0.7c-0.5-0.5-0.7-1.1-0.7-2v-4
			h1.7v3.8c0,0.4,0.1,0.8,0.4,1c0.2,0.2,0.5,0.3,0.9,0.3c0.4,0,0.8-0.1,1-0.4s0.4-0.7,0.4-1.2V-1976.2z"/>
		<path class="st3" d="M63.5-1975.1c0.2-0.4,0.4-0.7,0.8-0.9c0.4-0.2,0.8-0.3,1.2-0.3v1.9c-0.5-0.1-1,0-1.4,0.3
			c-0.4,0.3-0.6,0.7-0.6,1.3v3.1h-1.7v-6.5h1.7V-1975.1z"/>
		<path class="st3" d="M67.6-1972.3c0.2,0.8,0.8,1.2,1.8,1.2c0.6,0,1.1-0.2,1.5-0.6l1.4,0.8c-0.6,0.9-1.6,1.4-2.8,1.4
			c-1.1,0-1.9-0.3-2.6-1c-0.7-0.6-1-1.5-1-2.5c0-1,0.3-1.8,1-2.5c0.6-0.7,1.5-1,2.5-1c1,0,1.7,0.3,2.4,1c0.6,0.7,0.9,1.5,0.9,2.4
			c0,0.2,0,0.4-0.1,0.7H67.6z M67.6-1973.6h3.3c-0.1-0.4-0.3-0.8-0.6-1c-0.3-0.2-0.6-0.3-1-0.3c-0.5,0-0.8,0.1-1.1,0.3
			C67.9-1974.3,67.7-1974,67.6-1973.6z"/>
		<path class="st3" d="M75.1-1974.3c0,0.2,0.1,0.3,0.3,0.4s0.5,0.2,0.8,0.3c0.3,0.1,0.7,0.2,1,0.3c0.3,0.1,0.6,0.3,0.8,0.6
			c0.2,0.3,0.3,0.7,0.3,1.1c0,0.7-0.2,1.2-0.7,1.5c-0.5,0.4-1.1,0.5-1.9,0.5c-1.3,0-2.2-0.5-2.7-1.5l1.5-0.8
			c0.2,0.6,0.6,0.8,1.3,0.8c0.6,0,0.9-0.2,0.9-0.6c0-0.2-0.1-0.3-0.3-0.4s-0.5-0.2-0.8-0.3c-0.3-0.1-0.7-0.2-1-0.3
			c-0.3-0.1-0.6-0.3-0.8-0.6c-0.2-0.3-0.3-0.6-0.3-1.1c0-0.6,0.2-1.1,0.7-1.5c0.5-0.4,1.1-0.6,1.8-0.6c0.5,0,1,0.1,1.4,0.4
			s0.8,0.6,1,1l-1.4,0.8c-0.2-0.4-0.6-0.7-1-0.7c-0.2,0-0.4,0-0.5,0.1C75.1-1974.6,75.1-1974.5,75.1-1974.3z"/>
	</g>
	<g>
		<path class="st3" d="M-181.1-1969.5c-0.9,0-1.7-0.2-2.3-0.6c-0.6-0.4-1-1-1.3-1.6l1.5-0.9c0.4,0.9,1.1,1.4,2.1,1.4
			c0.5,0,0.9-0.1,1.1-0.3c0.2-0.2,0.4-0.4,0.4-0.7c0-0.3-0.1-0.6-0.4-0.7s-0.8-0.4-1.5-0.6c-0.4-0.1-0.8-0.2-1-0.4
			c-0.3-0.1-0.6-0.3-0.8-0.5c-0.3-0.2-0.5-0.5-0.6-0.8c-0.1-0.3-0.2-0.7-0.2-1.1c0-0.8,0.3-1.5,0.9-2c0.6-0.5,1.3-0.7,2.1-0.7
			c0.7,0,1.4,0.2,1.9,0.5s1,0.9,1.3,1.5l-1.5,0.9c-0.4-0.8-0.9-1.2-1.7-1.2c-0.4,0-0.7,0.1-0.9,0.3c-0.2,0.2-0.3,0.4-0.3,0.7
			c0,0.3,0.1,0.5,0.4,0.7c0.2,0.2,0.7,0.4,1.4,0.6c0.3,0.1,0.5,0.2,0.6,0.2c0.1,0,0.3,0.1,0.6,0.2s0.4,0.2,0.6,0.3
			c0.1,0.1,0.3,0.2,0.5,0.4c0.2,0.1,0.3,0.3,0.4,0.5c0.1,0.2,0.2,0.3,0.2,0.6c0.1,0.2,0.1,0.5,0.1,0.7c0,0.8-0.3,1.5-0.9,2
			C-179.3-1969.8-180.1-1969.5-181.1-1969.5z"/>
		<path class="st3" d="M-172.4-1976.2h1.7v6.5h-1.7v-0.7c-0.4,0.6-1.1,0.9-1.9,0.9c-0.7,0-1.3-0.2-1.8-0.7c-0.5-0.5-0.7-1.1-0.7-2
			v-4h1.7v3.8c0,0.4,0.1,0.8,0.4,1c0.2,0.2,0.5,0.3,0.9,0.3c0.4,0,0.8-0.1,1-0.4s0.4-0.7,0.4-1.2V-1976.2z M-173.8-1977.8l-0.6,0.8
			h-1.7l1.4-1.9h1.7l1.4,1.9h-1.7L-173.8-1977.8z"/>
		<path class="st3" d="M-167.5-1975.1c0.2-0.4,0.4-0.7,0.8-0.9c0.4-0.2,0.8-0.3,1.2-0.3v1.9c-0.5-0.1-1,0-1.4,0.3
			c-0.4,0.3-0.6,0.7-0.6,1.3v3.1h-1.7v-6.5h1.7V-1975.1z"/>
		<path class="st3" d="M-163.4-1972.3c0.2,0.8,0.8,1.2,1.8,1.2c0.6,0,1.1-0.2,1.5-0.6l1.4,0.8c-0.6,0.9-1.6,1.4-2.8,1.4
			c-1.1,0-1.9-0.3-2.6-1c-0.7-0.6-1-1.5-1-2.5c0-1,0.3-1.8,1-2.5c0.6-0.7,1.5-1,2.5-1c1,0,1.7,0.3,2.4,1c0.6,0.7,0.9,1.5,0.9,2.4
			c0,0.2,0,0.4-0.1,0.7H-163.4z M-163.4-1973.6h3.3c-0.1-0.4-0.3-0.8-0.6-1c-0.3-0.2-0.6-0.3-1-0.3c-0.5,0-0.8,0.1-1.1,0.3
			C-163.2-1974.3-163.3-1974-163.4-1973.6z"/>
		<path class="st3" d="M-153.8-1974.6h-1.5v2.7c0,0.2,0.1,0.4,0.2,0.5c0.1,0.1,0.3,0.2,0.5,0.2c0.2,0,0.5,0,0.8,0v1.5
			c-1.2,0.1-2,0-2.4-0.3c-0.5-0.3-0.7-1-0.7-1.9v-2.7h-1.1v-1.6h1.1v-1.3l1.7-0.5v1.8h1.5V-1974.6z"/>
		<path class="st3" d="M-151.4-1972.3c0.2,0.8,0.8,1.2,1.8,1.2c0.6,0,1.1-0.2,1.5-0.6l1.4,0.8c-0.6,0.9-1.6,1.4-2.8,1.4
			c-1.1,0-1.9-0.3-2.6-1c-0.7-0.6-1-1.5-1-2.5c0-1,0.3-1.8,1-2.5c0.6-0.7,1.5-1,2.5-1c1,0,1.7,0.3,2.4,1c0.6,0.7,0.9,1.5,0.9,2.4
			c0,0.2,0,0.4-0.1,0.7H-151.4z M-151.4-1973.6h3.3c-0.1-0.4-0.3-0.8-0.6-1c-0.3-0.2-0.6-0.3-1-0.3c-0.5,0-0.8,0.1-1.1,0.3
			C-151.1-1974.3-151.3-1974-151.4-1973.6z M-147.7-1978.8l-1.4,1.8h-1.6l1-1.8H-147.7z"/>
		<path class="st3" d="M-140.2-1973.4c-0.2,0.2-0.5,0.3-0.8,0.3c-0.3,0-0.6-0.1-0.8-0.3s-0.3-0.5-0.3-0.8s0.1-0.6,0.3-0.8
			c0.2-0.2,0.5-0.3,0.8-0.3c0.3,0,0.6,0.1,0.8,0.3c0.2,0.2,0.3,0.5,0.3,0.8S-140-1973.6-140.2-1973.4z"/>
		<path class="st3" d="M-132-1969.5c-0.9,0-1.7-0.2-2.3-0.6c-0.6-0.4-1-1-1.3-1.6l1.5-0.9c0.4,0.9,1.1,1.4,2.1,1.4
			c0.5,0,0.9-0.1,1.1-0.3c0.2-0.2,0.4-0.4,0.4-0.7c0-0.3-0.1-0.6-0.4-0.7s-0.8-0.4-1.5-0.6c-0.4-0.1-0.8-0.2-1-0.4
			c-0.3-0.1-0.6-0.3-0.8-0.5c-0.3-0.2-0.5-0.5-0.6-0.8c-0.1-0.3-0.2-0.7-0.2-1.1c0-0.8,0.3-1.5,0.9-2c0.6-0.5,1.3-0.7,2.1-0.7
			c0.7,0,1.4,0.2,1.9,0.5s1,0.9,1.3,1.5l-1.5,0.9c-0.4-0.8-0.9-1.2-1.7-1.2c-0.4,0-0.7,0.1-0.9,0.3c-0.2,0.2-0.3,0.4-0.3,0.7
			c0,0.3,0.1,0.5,0.4,0.7c0.2,0.2,0.7,0.4,1.4,0.6c0.3,0.1,0.5,0.2,0.6,0.2c0.1,0,0.3,0.1,0.6,0.2s0.4,0.2,0.6,0.3
			c0.1,0.1,0.3,0.2,0.5,0.4c0.2,0.1,0.3,0.3,0.4,0.5c0.1,0.2,0.2,0.3,0.2,0.6c0.1,0.2,0.1,0.5,0.1,0.7c0,0.8-0.3,1.5-0.9,2
			C-130.3-1969.8-131.1-1969.5-132-1969.5z"/>
		<path class="st3" d="M-126.1-1972.3c0.2,0.8,0.8,1.2,1.8,1.2c0.6,0,1.1-0.2,1.5-0.6l1.4,0.8c-0.6,0.9-1.6,1.4-2.8,1.4
			c-1.1,0-1.9-0.3-2.6-1c-0.7-0.6-1-1.5-1-2.5c0-1,0.3-1.8,1-2.5c0.6-0.7,1.5-1,2.5-1c1,0,1.7,0.3,2.4,1c0.6,0.7,0.9,1.5,0.9,2.4
			c0,0.2,0,0.4-0.1,0.7H-126.1z M-126.1-1973.6h3.3c-0.1-0.4-0.3-0.8-0.6-1c-0.3-0.2-0.6-0.3-1-0.3c-0.5,0-0.8,0.1-1.1,0.3
			C-125.8-1974.3-126-1974-126.1-1973.6z M-122.4-1978.8l-1.4,1.8h-1.6l1-1.8H-122.4z"/>
		<path class="st3" d="M-116.9-1969.5c-1,0-1.8-0.3-2.5-1s-1-1.5-1-2.4s0.3-1.8,1-2.4c0.7-0.7,1.5-1,2.5-1c0.6,0,1.2,0.2,1.7,0.5
			c0.5,0.3,0.9,0.7,1.2,1.2l-1.4,0.8c-0.1-0.3-0.3-0.5-0.6-0.6s-0.6-0.2-0.9-0.2c-0.5,0-0.9,0.2-1.2,0.5c-0.3,0.3-0.5,0.8-0.5,1.3
			c0,0.5,0.2,0.9,0.5,1.3c0.3,0.3,0.7,0.5,1.2,0.5c0.3,0,0.6-0.1,0.9-0.2c0.3-0.2,0.5-0.4,0.6-0.6l1.5,0.8c-0.3,0.5-0.7,0.9-1.2,1.2
			C-115.7-1969.7-116.2-1969.5-116.9-1969.5z"/>
		<path class="st3" d="M-108.7-1976.2h1.7v6.5h-1.7v-0.7c-0.4,0.6-1.1,0.9-1.9,0.9c-0.7,0-1.3-0.2-1.8-0.7c-0.5-0.5-0.7-1.1-0.7-2
			v-4h1.7v3.8c0,0.4,0.1,0.8,0.4,1c0.2,0.2,0.5,0.3,0.9,0.3c0.4,0,0.8-0.1,1-0.4s0.4-0.7,0.4-1.2V-1976.2z"/>
		<path class="st3" d="M-103.8-1975.1c0.2-0.4,0.4-0.7,0.8-0.9c0.4-0.2,0.8-0.3,1.2-0.3v1.9c-0.5-0.1-1,0-1.4,0.3
			c-0.4,0.3-0.6,0.7-0.6,1.3v3.1h-1.7v-6.5h1.7V-1975.1z"/>
		<path class="st3" d="M-100-1977c-0.3,0-0.5-0.1-0.7-0.3c-0.2-0.2-0.3-0.4-0.3-0.7s0.1-0.5,0.3-0.7c0.2-0.2,0.4-0.3,0.7-0.3
			c0.3,0,0.5,0.1,0.7,0.3c0.2,0.2,0.3,0.5,0.3,0.7s-0.1,0.5-0.3,0.7C-99.5-1977.1-99.8-1977-100-1977z M-100.9-1969.7v-6.5h1.7v6.5
			H-100.9z"/>
		<path class="st3" d="M-93.9-1974.6h-1.5v2.7c0,0.2,0.1,0.4,0.2,0.5c0.1,0.1,0.3,0.2,0.5,0.2c0.2,0,0.5,0,0.8,0v1.5
			c-1.2,0.1-2,0-2.4-0.3c-0.5-0.3-0.7-1-0.7-1.9v-2.7h-1.1v-1.6h1.1v-1.3l1.7-0.5v1.8h1.5V-1974.6z"/>
		<path class="st3" d="M-91.5-1972.3c0.2,0.8,0.8,1.2,1.8,1.2c0.6,0,1.1-0.2,1.5-0.6l1.4,0.8c-0.6,0.9-1.6,1.4-2.8,1.4
			c-1.1,0-1.9-0.3-2.6-1c-0.7-0.6-1-1.5-1-2.5c0-1,0.3-1.8,1-2.5c0.6-0.7,1.5-1,2.5-1c1,0,1.7,0.3,2.4,1c0.6,0.7,0.9,1.5,0.9,2.4
			c0,0.2,0,0.4-0.1,0.7H-91.5z M-91.6-1973.6h3.3c-0.1-0.4-0.3-0.8-0.6-1c-0.3-0.2-0.6-0.3-1-0.3c-0.5,0-0.8,0.1-1.1,0.3
			C-91.3-1974.3-91.5-1974-91.6-1973.6z M-87.9-1978.8l-1.4,1.8H-91l1-1.8H-87.9z"/>
	</g>
	<g>
		<path class="st3" d="M-129.8-2183.9c-0.9,0.9-2,1.4-3.4,1.4c-1.3,0-2.4-0.5-3.3-1.4c-0.9-0.9-1.4-2-1.4-3.4c0-1.3,0.5-2.4,1.4-3.4
			c0.9-0.9,2-1.4,3.3-1.4c1.3,0,2.4,0.5,3.4,1.4c0.9,0.9,1.4,2,1.4,3.4C-128.4-2185.9-128.9-2184.8-129.8-2183.9z M-135.2-2185.1
			c0.6,0.6,1.3,0.8,2.1,0.8s1.5-0.3,2.1-0.8s0.8-1.3,0.8-2.1s-0.3-1.6-0.8-2.1s-1.3-0.8-2.1-0.8s-1.5,0.3-2.1,0.8s-0.8,1.3-0.8,2.1
			S-135.8-2185.6-135.2-2185.1z"/>
		<path class="st3" d="M-123.5-2189.3c0.9,0,1.6,0.3,2.2,1c0.6,0.7,0.9,1.5,0.9,2.4s-0.3,1.8-0.9,2.4c-0.6,0.7-1.4,1-2.2,1
			c-0.9,0-1.6-0.3-2.1-0.9v3.4h-1.7v-9.1h1.7v0.8C-125.1-2189-124.4-2189.3-123.5-2189.3z M-125.1-2184.6c0.3,0.3,0.8,0.5,1.3,0.5
			c0.5,0,1-0.2,1.3-0.5c0.3-0.3,0.5-0.8,0.5-1.3c0-0.5-0.2-1-0.5-1.3c-0.3-0.3-0.8-0.5-1.3-0.5c-0.5,0-0.9,0.2-1.3,0.5
			s-0.5,0.8-0.5,1.3C-125.6-2185.4-125.4-2184.9-125.1-2184.6z"/>
		<path class="st3" d="M-115.5-2187.6h-1.5v2.7c0,0.2,0.1,0.4,0.2,0.5c0.1,0.1,0.3,0.2,0.5,0.2c0.2,0,0.5,0,0.8,0v1.5
			c-1.2,0.1-2,0-2.4-0.3c-0.5-0.3-0.7-1-0.7-1.9v-2.7h-1.1v-1.6h1.1v-1.3l1.7-0.5v1.8h1.5V-2187.6z"/>
		<path class="st3" d="M-113.5-2189.9c-0.3,0-0.5-0.1-0.7-0.3c-0.2-0.2-0.3-0.4-0.3-0.7c0-0.3,0.1-0.5,0.3-0.7
			c0.2-0.2,0.4-0.3,0.7-0.3c0.3,0,0.5,0.1,0.7,0.3c0.2,0.2,0.3,0.5,0.3,0.7c0,0.3-0.1,0.5-0.3,0.7
			C-113-2190-113.2-2189.9-113.5-2189.9z M-114.3-2182.7v-6.5h1.7v6.5H-114.3z"/>
		<path class="st3" d="M-103.9-2189.3c0.7,0,1.3,0.2,1.8,0.7s0.7,1.1,0.7,2v4h-1.7v-3.9c0-0.4-0.1-0.7-0.3-0.9
			c-0.2-0.2-0.5-0.3-0.8-0.3c-0.4,0-0.7,0.1-0.9,0.4c-0.2,0.3-0.3,0.6-0.3,1.1v3.7h-1.7v-3.9c0-0.4-0.1-0.7-0.3-0.9
			s-0.5-0.3-0.8-0.3c-0.4,0-0.7,0.1-0.9,0.4c-0.2,0.3-0.3,0.6-0.3,1.1v3.7h-1.7v-6.5h1.7v0.7c0.4-0.6,1-0.9,1.8-0.9
			c0.8,0,1.4,0.3,1.8,0.9C-105.4-2189-104.8-2189.3-103.9-2189.3z"/>
		<path class="st3" d="M-99.2-2189.9c-0.3,0-0.5-0.1-0.7-0.3c-0.2-0.2-0.3-0.4-0.3-0.7c0-0.3,0.1-0.5,0.3-0.7
			c0.2-0.2,0.4-0.3,0.7-0.3c0.3,0,0.5,0.1,0.7,0.3c0.2,0.2,0.3,0.5,0.3,0.7c0,0.3-0.1,0.5-0.3,0.7
			C-98.7-2190-98.9-2189.9-99.2-2189.9z M-100.1-2182.7v-6.5h1.7v6.5H-100.1z"/>
		<path class="st3" d="M-95.4-2187.3c0,0.2,0.1,0.3,0.3,0.4s0.5,0.2,0.8,0.3s0.7,0.2,1,0.3c0.3,0.1,0.6,0.3,0.8,0.6s0.3,0.7,0.3,1.1
			c0,0.7-0.2,1.2-0.7,1.5c-0.5,0.4-1.1,0.5-1.9,0.5c-1.3,0-2.2-0.5-2.7-1.5l1.5-0.8c0.2,0.6,0.6,0.8,1.3,0.8c0.6,0,0.9-0.2,0.9-0.6
			c0-0.2-0.1-0.3-0.3-0.4s-0.5-0.2-0.8-0.3c-0.3-0.1-0.7-0.2-1-0.3c-0.3-0.1-0.6-0.3-0.8-0.6c-0.2-0.3-0.3-0.6-0.3-1.1
			c0-0.6,0.2-1.1,0.7-1.5c0.5-0.4,1.1-0.6,1.8-0.6c0.5,0,1,0.1,1.4,0.4c0.4,0.2,0.8,0.6,1,1l-1.4,0.8c-0.2-0.4-0.6-0.7-1-0.7
			c-0.2,0-0.4,0-0.5,0.1C-95.3-2187.6-95.4-2187.5-95.4-2187.3z"/>
		<path class="st3" d="M-86.1-2189.2h1.7v6.5h-1.7v-0.8c-0.5,0.6-1.2,0.9-2.1,0.9c-0.9,0-1.6-0.3-2.2-1s-0.9-1.5-0.9-2.4
			s0.3-1.8,0.9-2.4s1.4-1,2.2-1c0.9,0,1.6,0.3,2.1,0.9V-2189.2z M-89.2-2184.6c0.3,0.3,0.8,0.5,1.3,0.5c0.5,0,1-0.2,1.3-0.5
			c0.3-0.3,0.5-0.8,0.5-1.3c0-0.5-0.2-1-0.5-1.3s-0.8-0.5-1.3-0.5c-0.5,0-0.9,0.2-1.3,0.5s-0.5,0.8-0.5,1.3
			C-89.7-2185.4-89.5-2184.9-89.2-2184.6z"/>
		<path class="st3" d="M-79.2-2187.6h-1.5v2.7c0,0.2,0.1,0.4,0.2,0.5c0.1,0.1,0.3,0.2,0.5,0.2c0.2,0,0.5,0,0.8,0v1.5
			c-1.2,0.1-2,0-2.4-0.3c-0.5-0.3-0.7-1-0.7-1.9v-2.7h-1.1v-1.6h1.1v-1.3l1.7-0.5v1.8h1.5V-2187.6z"/>
		<path class="st3" d="M-77.1-2189.9c-0.3,0-0.5-0.1-0.7-0.3c-0.2-0.2-0.3-0.4-0.3-0.7c0-0.3,0.1-0.5,0.3-0.7
			c0.2-0.2,0.4-0.3,0.7-0.3c0.3,0,0.5,0.1,0.7,0.3c0.2,0.2,0.3,0.5,0.3,0.7c0,0.3-0.1,0.5-0.3,0.7
			C-76.6-2190-76.9-2189.9-77.1-2189.9z M-78-2182.7v-6.5h1.7v6.5H-78z"/>
		<path class="st3" d="M-69.2-2183.5c-0.7,0.7-1.5,1-2.4,1s-1.8-0.3-2.4-1s-1-1.5-1-2.4s0.3-1.8,1-2.4s1.5-1,2.4-1s1.8,0.3,2.4,1
			c0.7,0.7,1,1.5,1,2.4S-68.6-2184.1-69.2-2183.5z M-72.9-2184.6c0.3,0.3,0.8,0.5,1.3,0.5c0.5,0,0.9-0.2,1.3-0.5s0.5-0.8,0.5-1.3
			s-0.2-0.9-0.5-1.3s-0.8-0.5-1.3-0.5c-0.5,0-0.9,0.2-1.3,0.5s-0.5,0.8-0.5,1.3S-73.3-2185-72.9-2184.6z"/>
		<path class="st3" d="M-63.4-2189.3c0.7,0,1.3,0.2,1.8,0.7s0.7,1.1,0.7,2v4h-1.7v-3.8c0-0.4-0.1-0.8-0.4-1
			c-0.2-0.2-0.5-0.3-0.9-0.3c-0.4,0-0.8,0.1-1,0.4c-0.3,0.3-0.4,0.7-0.4,1.2v3.5H-67v-6.5h1.7v0.7C-65-2189-64.3-2189.3-63.4-2189.3
			z"/>
	</g>
	<g>
		<path class="st3" d="M-182.4-2082.4h3.8v1.7h-5.6v-9.1h5.6v1.7h-3.8v1.9h3.4v1.7h-3.4V-2082.4z M-179.4-2092.4l-1.4,1.8h-1.6
			l1-1.8H-179.4z"/>
		<path class="st3" d="M-173.8-2087.4c0.7,0,1.3,0.2,1.8,0.7s0.7,1.1,0.7,2v4h-1.7v-3.8c0-0.4-0.1-0.8-0.4-1
			c-0.2-0.2-0.5-0.3-0.9-0.3c-0.4,0-0.8,0.1-1,0.4c-0.3,0.3-0.4,0.7-0.4,1.2v3.5h-1.7v-6.5h1.7v0.7
			C-175.3-2087.1-174.7-2087.4-173.8-2087.4z"/>
		<path class="st3" d="M-168.5-2083.3c0.2,0.8,0.8,1.2,1.8,1.2c0.6,0,1.1-0.2,1.5-0.7l1.4,0.8c-0.6,0.9-1.6,1.4-2.8,1.4
			c-1.1,0-1.9-0.3-2.6-1c-0.7-0.7-1-1.5-1-2.5c0-1,0.3-1.8,1-2.5c0.6-0.7,1.5-1,2.5-1c1,0,1.7,0.3,2.4,1c0.6,0.7,0.9,1.5,0.9,2.4
			c0,0.2,0,0.4-0.1,0.7H-168.5z M-168.5-2084.6h3.3c-0.1-0.4-0.3-0.8-0.6-1c-0.3-0.2-0.6-0.3-1-0.3c-0.5,0-0.8,0.1-1.1,0.3
			C-168.2-2085.3-168.4-2085-168.5-2084.6z"/>
		<path class="st3" d="M-160.7-2086.1c0.2-0.4,0.4-0.7,0.8-0.9c0.4-0.2,0.8-0.3,1.2-0.3v1.9c-0.5-0.1-1,0-1.4,0.3
			c-0.4,0.3-0.6,0.7-0.6,1.3v3.1h-1.7v-6.5h1.7V-2086.1z"/>
		<path class="st3" d="M-153-2087.2h1.6v6.2c0,1-0.3,1.8-1,2.3c-0.7,0.5-1.5,0.8-2.4,0.8c-0.7,0-1.3-0.1-1.9-0.4s-0.9-0.7-1.2-1.2
			l1.4-0.8c0.3,0.6,0.9,0.9,1.7,0.9c0.5,0,0.9-0.1,1.2-0.4s0.5-0.7,0.5-1.2v-0.7c-0.5,0.7-1.2,1-2.1,1c-0.9,0-1.7-0.3-2.3-1
			c-0.6-0.6-0.9-1.4-0.9-2.4c0-0.9,0.3-1.7,0.9-2.4c0.6-0.7,1.4-1,2.3-1c0.9,0,1.6,0.3,2.1,1V-2087.2z M-156.1-2082.8
			c0.3,0.3,0.8,0.5,1.3,0.5s1-0.2,1.3-0.5c0.3-0.3,0.5-0.8,0.5-1.3c0-0.5-0.2-0.9-0.5-1.3c-0.3-0.3-0.8-0.5-1.3-0.5s-1,0.2-1.3,0.5
			c-0.3,0.3-0.5,0.8-0.5,1.3C-156.6-2083.6-156.5-2083.1-156.1-2082.8z"/>
		<path class="st3" d="M-149-2088c-0.3,0-0.5-0.1-0.7-0.3c-0.2-0.2-0.3-0.4-0.3-0.7c0-0.3,0.1-0.5,0.3-0.7c0.2-0.2,0.4-0.3,0.7-0.3
			c0.3,0,0.5,0.1,0.7,0.3c0.2,0.2,0.3,0.5,0.3,0.7c0,0.3-0.1,0.5-0.3,0.7C-148.5-2088.1-148.7-2088-149-2088z M-149.8-2080.7v-6.5
			h1.7v6.5H-149.8z"/>
		<path class="st3" d="M-145.2-2083.3c0.2,0.8,0.8,1.2,1.8,1.2c0.6,0,1.1-0.2,1.5-0.7l1.4,0.8c-0.6,0.9-1.6,1.4-2.8,1.4
			c-1.1,0-1.9-0.3-2.6-1c-0.7-0.7-1-1.5-1-2.5c0-1,0.3-1.8,1-2.5c0.6-0.7,1.5-1,2.5-1c1,0,1.7,0.3,2.4,1c0.6,0.7,0.9,1.5,0.9,2.4
			c0,0.2,0,0.4-0.1,0.7H-145.2z M-145.2-2084.6h3.3c-0.1-0.4-0.3-0.8-0.6-1c-0.3-0.2-0.6-0.3-1-0.3c-0.5,0-0.8,0.1-1.1,0.3
			C-144.9-2085.3-145.1-2085-145.2-2084.6z"/>
	</g>
</g>
</svg>
