<?xml version="1.0" encoding="UTF-8"?>
<svg width="71px" height="95px" viewBox="0 0 71 95" version="1.1" xmlns="http://www.w3.org/2000/svg" xmlns:xlink="http://www.w3.org/1999/xlink">
    <!-- Generator: Sketch 49.3 (51167) - http://www.bohemiancoding.com/sketch -->
    <title>Logo Footer</title>
    <desc>Created with Sketch.</desc>
    <defs></defs>
    <g id="Symbols" stroke="none" stroke-width="1" fill="none" fill-rule="evenodd">
        <g id="Footer" transform="translate(-150.000000, -76.000000)" fill="#F5F5F5">
            <g id="Logo-Footer">
                <g transform="translate(150.181641, 76.095391)">
                    <path d="M70.4966936,6.4941554 L69.1651995,1.52500829 C68.8722146,0.431775657 67.7381081,-0.222992883 66.6448755,0.0699921108 L61.6757284,1.40137358 C60.5826084,1.69435857 59.9277272,2.82846497 60.2207122,3.92169761 L61.5520937,8.89084472 C61.8451913,9.98396475 62.9791851,10.6388459 64.0724177,10.3458609 L69.0415648,9.01436683 C70.1347975,8.72149444 70.789566,7.58727543 70.4966936,6.4941554" id="Fill-1"></path>
                    <path d="M57.4112879,52.5367472 C57.1183029,51.4436272 55.9841965,50.7888587 54.8910765,51.0817311 L19.7756651,60.4909183 C18.6824325,60.7837907 18.0275514,61.9178971 18.3205364,63.0111297 L19.6342396,67.914068 C19.9272246,69.0071881 21.061331,69.6620692 22.1545637,69.3690842 L23.1483706,69.1027854 C24.2416032,68.8098004 25.3757096,69.4646816 25.668582,70.5579142 L27.0000761,75.5270613 C27.2930611,76.6202939 28.4271675,77.2750625 29.5202875,76.9821901 L49.5295186,71.6206322 C50.6227513,71.3277598 51.2775198,70.1936534 50.9846474,69.1005334 L49.6531533,64.1312737 C49.3601684,63.0380411 50.0149369,61.9039347 51.1081695,61.6110623 L57.269975,59.9600096 C58.3632076,59.6670246 59.0179762,58.5329182 58.7249912,57.4397982 L57.4112879,52.5367472 Z" id="Fill-3"></path>
                    <path d="M46.0320412,84.2749717 C45.7390562,83.181739 44.6049498,82.5269705 43.5118298,82.8198429 L34.3022823,85.2874702 C33.2090496,85.5804552 32.5542811,86.7145616 32.8471535,87.8077942 L34.1608568,92.71062 C34.4537292,93.8038526 35.5879482,94.4586211 36.6811808,94.1657487 L45.8907283,91.6981215 C46.983961,91.4051365 47.6387295,90.2710301 47.3457445,89.1777974 L46.0320412,84.2749717 Z" id="Fill-5"></path>
                    <path d="M36.4758436,38.1497427 C35.0995348,38.1497427 33.7991183,37.8250046 32.6468833,37.2480426 C29.8397672,35.8424578 27.9126196,32.9395192 27.9126196,29.5865188 C27.9126196,29.3699891 27.9206142,29.1553737 27.9364908,28.9430102 L27.9364908,28.9428976 C28.2767677,24.5254901 31.9710585,21.0231822 36.4758436,21.0231822 C39.3580638,21.0231822 41.9072134,22.4468956 43.4592907,24.6294198 C43.4880037,24.6702936 43.5262876,24.7252424 43.5547754,24.7667917 L43.554888,24.7667917 C44.4914942,26.1397226 45.038955,27.7992202 45.038955,29.5865188 C45.038955,31.3199945 44.5239229,32.933101 43.6384372,34.2812599 C42.1082042,36.6111774 39.4716771,38.1497427 36.4758436,38.1497427 Z M67.9155431,20.358167 C67.6225581,19.2649344 66.4885643,18.6101659 65.3953317,18.9030383 L53.80058,22.0098953 L53.800017,22.0100079 C52.7070096,22.3024299 51.573241,21.6477739 51.2804812,20.5546539 L49.8669018,15.6041984 C49.5729034,14.50725 50.2160741,13.4175079 51.2412964,13.1088715 L51.4040033,13.065408 L53.9879463,12.3729185 C55.0810663,12.0800461 55.7358349,10.9459397 55.4429625,9.85270702 L54.1114684,4.88355991 C53.818596,3.79032728 52.684377,3.13555874 51.5911444,3.42854373 L17.4033312,12.5891103 C16.3102111,12.8820953 15.65533,14.0160891 15.948315,15.1093217 L17.2798091,20.0785814 C17.5726815,21.1717015 16.9131837,22.2831753 15.8199511,22.5761603 C15.8199511,22.5761603 15.7834687,22.5859565 15.7359515,22.5986803 L5.95259482,25.2439902 C4.85936219,25.5369752 4.20481885,26.6710816 4.49757864,27.7642016 L5.82896011,32.7332362 C6.1221703,33.8264688 5.46728916,34.9605752 4.37416913,35.2536728 L4.37394393,35.2536728 L1.52494073,36.0171002 C0.431820697,36.3099726 -0.222947843,37.444079 0.0699245509,38.5373117 L1.40141862,43.5064588 C1.69429101,44.5996914 2.82839741,45.25446 3.92163005,44.9615876 L10.4138037,43.218203 C11.5069237,42.9254432 12.6420435,43.5837023 12.9350285,44.6768224 L14.26641,49.6459695 C14.5592824,50.7392021 15.6935014,51.3939706 16.786734,51.1010983 L61.5091706,39.1177643 C62.6024032,38.8247793 63.2571718,37.6906729 62.9642994,36.5974402 L61.6150145,31.5620844 C61.3220295,30.4688517 61.9769107,29.3346327 63.0701433,29.0417603 L67.7742302,27.7813168 C68.8674628,27.4883318 69.5222314,26.3542254 69.2292464,25.2609928 L67.9155431,20.358167 Z" id="Fill-7"></path>
                </g>
            </g>
        </g>
    </g>
</svg>