<?xml version="1.0" encoding="UTF-8"?>
<svg width="264px" height="72px" viewBox="0 0 264 72" version="1.1" xmlns="http://www.w3.org/2000/svg" xmlns:xlink="http://www.w3.org/1999/xlink">
    <!-- Generator: Sketch 49.3 (51167) - http://www.bohemiancoding.com/sketch -->
    <title>Logo</title>
    <desc>Created with Sketch.</desc>
    <defs>
        <polygon id="path-1" points="0 71.3442739 263.675624 71.3442739 263.675624 0.134398544 0 0.134398544"></polygon>
        <path d="M5.1425656,0.187404325 L1.38744516,1.19350931 C0.561459338,1.41482729 0.0665712415,2.27171221 0.287889218,3.09769803 L1.29424542,6.85281848 C1.5155634,7.67880429 2.37244832,8.17369239 3.19843414,7.95237442 L6.95355458,6.94626943 C7.7795404,6.72470024 8.27417728,5.86781531 8.05311052,5.0418295 L7.04675432,1.28670905 C6.86135969,0.594116929 6.22880729,0.134649756 5.54249547,0.134398544 C5.41010663,0.134398544 5.2759593,0.151480976 5.1425656,0.187404325" id="path-3"></path>
        <path d="M27.9131959,0.299193768 L1.3781503,7.40925357 C0.552164486,7.63082276 0.0572763889,8.48770768 0.278594365,9.3136935 L1.27138511,13.0185715 C1.49270308,13.8448085 2.34958801,14.3394454 3.17557382,14.1181274 L3.9266984,13.9169064 C4.75293543,13.6955885 5.60982035,14.1902253 5.83113833,15.0167136 L6.83749453,18.7715828 C7.05881251,19.5975686 7.91569743,20.0924567 8.74193446,19.8711388 L23.8618963,15.8195879 C24.6878821,15.5980187 25.1827702,14.7411338 24.9614522,13.915148 L23.9553472,10.1602787 C23.733778,9.33404169 24.2286661,8.47715677 25.054652,8.25558758 L29.7108707,7.00831885 C30.5371077,6.78674966 31.0319958,5.92986474 30.8104266,5.1036277 L29.8178871,1.39900092 C29.6322412,0.706157584 28.9996888,0.2464392 28.3131258,0.2464392 C28.1809882,0.2464392 28.0468409,0.263521631 27.9131959,0.299193768" id="path-5"></path>
        <path d="M8.26111425,0.165800073 L1.30178179,2.03054847 C0.47604718,2.25211766 -0.0190921296,3.10900258 0.202477059,3.9349884 L1.1952678,7.64036882 C1.38066243,8.33220731 2.01220998,8.79192569 2.69801937,8.79242812 L2.70078271,8.79242812 C2.83266913,8.79217691 2.96656525,8.77509447 3.09945652,8.73942234 L10.058789,6.87467394 C10.885026,6.65335596 11.3796629,5.79647104 11.1583449,4.97048522 L10.1655542,1.26535601 C9.97990834,0.573015101 9.34760715,0.113045504 8.66104412,0.113045504 C8.52890649,0.113045504 8.39475916,0.130127936 8.26111425,0.165800073" id="path-7"></path>
        <path d="M38.9851239,0.213781609 L13.1509603,7.13568345 C12.3249745,7.35700143 11.8300864,8.21388635 12.0516556,9.03987217 L13.0577606,12.7947414 C13.2790786,13.6209784 12.7804223,14.4607809 11.9544365,14.6820989 C11.9544365,14.6820989 11.9268031,14.6893841 11.8908798,14.6991813 L4.49820623,16.6980771 C3.67196919,16.9196462 3.17733231,17.7765312 3.39865029,18.602517 L4.40475528,22.3573862 C4.62632446,23.183372 4.13143637,24.040257 3.30545055,24.2618262 L3.30519934,24.2618262 L1.15231051,24.8388606 C0.463988992,25.0232504 0.00577788134,25.6490201 0,26.3305589 L0,26.3569362 C0.00100484893,26.4848032 0.0180872807,26.6144287 0.0527545687,26.7433006 L1.05911077,30.4981698 C1.28042875,31.3244068 2.13731367,31.8192949 2.96329949,31.597977 L7.86922317,30.2803688 C8.69520899,30.059302 9.55309876,30.556451 9.77441673,31.3826881 L10.7805217,35.1375573 C11.0018397,35.9640456 11.8589758,36.4584312 12.6849617,36.2371132 L46.4797896,27.1819171 C47.3060266,26.9605992 47.8006635,26.103463 47.5793455,25.277226 L46.5599263,21.4723655 C46.3386083,20.6463797 46.8332452,19.7892436 47.659231,19.5681768 L51.2138841,18.61558 C52.0401211,18.394262 52.5350092,17.5371259 52.3136912,16.7108889 L51.3209005,13.0060109 C51.0995825,12.1800251 50.2424464,11.7808488 49.4162094,12.0021668 L40.6546803,14.445457 L40.6544291,14.445457 C39.8284433,14.6966692 38.9715584,14.0764262 38.7504916,13.2501892 L37.682086,9.4616575 C37.4600144,8.63265714 37.9458589,7.78531828 38.7208486,7.55194212 L38.8436914,7.50722634 L40.796364,6.97792217 C41.6223499,6.75660419 42.117238,5.89645351 41.8956688,5.07046769 L40.889815,1.31409119 C40.7041692,0.621499062 40.0713655,0.161027041 39.3848025,0.161027041 C39.2524137,0.161027041 39.1185175,0.178109472 38.9851239,0.213781609 M24.6697948,25.7690995 C22.5485587,24.7069742 21.0925326,22.5131378 21.0925326,19.9796624 C21.0925326,19.8161233 21.0983105,19.6538402 21.1103687,19.4933156 C21.36761,16.1552074 24.1590803,13.5086866 27.5632573,13.5086866 C29.7412674,13.5086866 31.6675627,14.5846286 32.8402214,16.2335856 C32.8618257,16.264736 32.8909663,16.306186 32.9123194,16.3373363 L32.9125706,16.3373363 C33.6202354,17.375094 34.033982,18.6288943 34.033982,19.9796624 C34.033982,21.289483 33.6448542,22.5083648 32.9756248,23.5270304 C31.8192949,25.2880281 29.8269307,26.4503871 27.5632573,26.4503871 C26.5232387,26.4503871 25.5404964,26.205204 24.6697948,25.7690995" id="path-9"></path>
        <polygon id="path-11" points="0.149491262 0.113040367 11.2110822 0.113040367 11.2110822 8.79242812 0.149491262 8.79242812"></polygon>
    </defs>
    <g id="Symbols" stroke="none" stroke-width="1" fill="none" fill-rule="evenodd">
        <g id="Header" transform="translate(-150.000000, -56.000000)">
            <g id="Logo">
                <g transform="translate(150.000000, 55.000000)">
                    <g transform="translate(0.000000, 0.832049)">
                        <g id="Group-20" transform="translate(0.000000, 0.116814)">
                            <path d="M66.8515692,29.004487 L66.8515692,35.3847753 L71.2284399,35.3847753 C72.0298069,35.3847753 72.7181285,35.0717648 73.2936557,34.4447391 C73.8686805,33.8182158 74.1565697,33.0630718 74.1565697,32.1793072 C74.1565697,31.296045 73.8686805,30.545674 73.2936557,29.9291992 C72.7181285,29.3127244 72.0298069,29.004487 71.2284399,29.004487 L66.8515692,29.004487 Z M74.433908,46.604416 L70.0726124,39.1145233 L66.8515692,39.1145233 L66.8515692,46.604416 L62.5980437,46.604416 L62.5980437,25.0282998 L71.2284399,25.0282998 C73.2213066,25.0282998 74.9164867,25.7271722 76.3139803,27.1244147 C77.7112228,28.5219083 78.4100952,30.2065375 78.4100952,32.1793072 C78.4100952,33.5152538 78.0297599,34.7529765 77.2695917,35.89348 C76.5096747,37.0337324 75.502816,37.8916221 74.2495182,38.4666469 L79.02657,46.604416 L74.433908,46.604416 Z" id="Fill-1" fill="#474190"></path>
                            <path d="M84.9292787,41.950006 C85.7200948,42.751373 86.7116295,43.1520565 87.9036315,43.1520565 C89.0951312,43.1520565 90.0921925,42.751373 90.8935595,41.950006 C91.6949265,41.1488902 92.0956101,40.1317318 92.0956101,38.8987822 C92.0956101,37.6655814 91.6949265,36.648423 90.8935595,35.8473072 C90.0921925,35.0459402 89.0951312,34.6450055 87.9036315,34.6450055 C86.7116295,34.6450055 85.7200948,35.0459402 84.9292787,35.8473072 C84.1379602,36.648423 83.7425521,37.6655814 83.7425521,38.8987822 C83.7425521,40.1317318 84.1379602,41.1488902 84.9292787,41.950006 M93.6983441,44.6776684 C92.115707,46.2497545 90.1843874,47.0357976 87.9036315,47.0357976 C85.6228757,47.0357976 83.6963291,46.2497545 82.1242429,44.6776684 C80.552408,43.1060847 79.7663649,41.1795381 79.7663649,38.8987822 C79.7663649,36.6177751 80.552408,34.6912285 82.1242429,33.1193936 C83.6963291,31.5473075 85.6228757,30.7612644 87.9036315,30.7612644 C90.1843874,30.7612644 92.115707,31.5473075 93.6983441,33.1193936 C95.2804787,34.6912285 96.0715461,36.6177751 96.0715461,38.8987822 C96.0715461,41.1795381 95.2804787,43.1060847 93.6983441,44.6776684" id="Fill-3" fill="#474190"></path>
                            <path d="M104.054518,42.0270528 C104.855885,42.8389707 105.873043,43.2446785 107.105993,43.2446785 C108.338943,43.2446785 109.360874,42.8389707 110.172792,42.0270528 C110.984208,41.2156373 111.390418,40.1731065 111.390418,38.8987068 C111.390418,37.6248096 110.984208,36.5820276 110.172792,35.7701097 C109.360874,34.9586942 108.338943,34.5527352 107.105993,34.5527352 C105.873043,34.5527352 104.855885,34.9586942 104.054518,35.7701097 C103.253151,36.5820276 102.852468,37.6248096 102.852468,38.8987068 C102.852468,40.1731065 103.253151,41.2156373 104.054518,42.0270528 M107.845562,30.7614402 C109.921077,30.7614402 111.693128,31.5474833 113.162469,33.1193182 C114.631558,34.6914044 115.366354,36.6176998 115.366354,38.8987068 C115.366354,41.1794627 114.631558,43.1060093 113.162469,44.6778442 C111.693128,46.2499304 109.921077,47.0357223 107.845562,47.0357223 C105.688151,47.0357223 104.023619,46.2858537 102.852468,44.7856143 L102.852468,46.6043909 L98.8762804,46.6043909 L98.8762804,25.0282747 L102.852468,25.0282747 L102.852468,33.0115482 C104.023619,31.5118112 105.688151,30.7614402 107.845562,30.7614402" id="Fill-5" fill="#474190"></path>
                            <path d="M122.53261,41.950006 C123.323426,42.751373 124.31496,43.1520565 125.506963,43.1520565 C126.698462,43.1520565 127.695523,42.751373 128.496639,41.950006 C129.298258,41.1488902 129.69869,40.1317318 129.69869,38.8987822 C129.69869,37.6655814 129.298258,36.648423 128.496639,35.8473072 C127.695523,35.0459402 126.698462,34.6450055 125.506963,34.6450055 C124.31496,34.6450055 123.323426,35.0459402 122.53261,35.8473072 C121.741291,36.648423 121.345883,37.6655814 121.345883,38.8987822 C121.345883,40.1317318 121.741291,41.1488902 122.53261,41.950006 M131.301675,44.6776684 C129.719038,46.2497545 127.78797,47.0357976 125.506963,47.0357976 C123.226207,47.0357976 121.29966,46.2497545 119.727574,44.6776684 C118.155739,43.1060847 117.369696,41.1795381 117.369696,38.8987822 C117.369696,36.6177751 118.155739,34.6912285 119.727574,33.1193936 C121.29966,31.5473075 123.226207,30.7612644 125.506963,30.7612644 C127.78797,30.7612644 129.719038,31.5473075 131.301675,33.1193936 C132.88381,34.6912285 133.674877,36.6177751 133.674877,38.8987822 C133.674877,41.1795381 132.88381,43.1060847 131.301675,44.6776684" id="Fill-7" fill="#474190"></path>
                            <path d="M144.956241,35.0149406 L141.473434,35.0149406 L141.473434,41.426128 C141.473434,41.9604564 141.606577,42.3508402 141.873866,42.5975306 C142.140905,42.8439698 142.53154,42.982639 143.045269,43.0135381 C143.558747,43.0444372 144.195821,43.0394129 144.956241,42.9979629 L144.956241,46.6043657 C142.223051,46.9123519 140.296756,46.6553618 139.176852,45.8336466 C138.056697,45.0121826 137.497247,43.542591 137.497247,41.426128 L137.497247,35.0149406 L134.815556,35.0149406 L134.815556,31.1929977 L137.497247,31.1929977 L137.497247,28.0799757 L141.473434,26.877674 L141.473434,31.1929977 L144.956241,31.1929977 L144.956241,35.0149406 Z" id="Fill-9" fill="#474190"></path>
                            <mask id="mask-2" fill="white">
                                <use xlink:href="#path-1"></use>
                            </mask>
                            <g id="Clip-12"></g>
                            <path d="M147.761276,46.6043909 L151.737212,46.6043909 L151.737212,31.1930228 L147.761276,31.1930228 L147.761276,46.6043909 Z M149.734046,29.3435984 C149.07587,29.3435984 148.505869,29.1021834 148.023291,28.6191023 C147.54021,28.1367748 147.298795,27.5665231 147.298795,26.9085982 C147.298795,26.2511758 147.54021,25.6756486 148.023291,25.182519 C148.505869,24.6893894 149.07587,24.442699 149.734046,24.442699 C150.412068,24.442699 150.992117,24.6893894 151.475198,25.182519 C151.958028,25.6756486 152.199694,26.2511758 152.199694,26.9085982 C152.199694,27.5665231 151.958028,28.1367748 151.475198,28.6191023 C150.992117,29.1021834 150.412068,29.3435984 149.734046,29.3435984 Z" id="Fill-11" fill="#474190" mask="url(#mask-2)"></path>
                            <path d="M162.709886,47.0358227 C160.38768,47.0358227 158.451085,46.2553063 156.89985,44.6932687 C155.348112,43.1319847 154.57262,41.2004138 154.57262,38.8985561 C154.57262,36.5974521 155.348112,34.6658812 156.89985,33.1040948 C158.451085,31.5425595 160.38768,30.7612895 162.709886,30.7612895 C164.209623,30.7612895 165.576469,31.1210254 166.809168,31.840246 C168.042368,32.5597179 168.977129,33.5253777 169.614203,34.7374767 L166.192944,36.7411455 C165.884707,36.1043225 165.416949,35.6006419 164.790426,35.2306063 C164.1634,34.8608219 163.459755,34.6759297 162.679238,34.6759297 C161.487236,34.6759297 160.500726,35.0718402 159.72021,35.8624051 C158.938939,36.6537236 158.549058,37.6656065 158.549058,38.8985561 C158.549058,40.1114088 158.938939,41.1129919 159.72021,41.9038081 C160.500726,42.6951266 161.487236,43.0905346 162.679238,43.0905346 C163.480354,43.0905346 164.194299,42.9109179 164.821325,42.5509308 C165.447848,42.1919485 165.915606,41.6932922 166.223592,41.056218 L169.67575,43.0289876 C168.997728,44.2415891 168.042368,45.2125244 166.809168,45.9417935 C165.576469,46.6708114 164.209623,47.0358227 162.709886,47.0358227" id="Fill-13" fill="#474190" mask="url(#mask-2)"></path>
                            <path d="M175.409092,35.5697428 C175.409092,35.9809773 175.681155,36.3148383 176.226034,36.5715772 C176.77016,36.8288185 177.432857,37.0546583 178.213876,37.249599 C178.994644,37.4450421 179.775412,37.6917326 180.55643,37.9894191 C181.337198,38.287608 181.999896,38.786013 182.544524,39.484383 C183.08865,40.1832555 183.361215,41.056218 183.361215,42.1040242 C183.361215,43.6866613 182.770615,44.9042869 181.589164,45.7566501 C180.40721,46.6092644 178.932846,47.0358227 177.16607,47.0358227 C174.001298,47.0358227 171.843888,45.8136752 170.693336,43.3678729 L174.145494,41.4260024 C174.597174,42.761949 175.604032,43.4296711 177.16607,43.4296711 C178.583912,43.4296711 179.292833,42.98804 179.292833,42.1040242 C179.292833,41.6932922 179.020268,41.3594311 178.475891,41.102441 C177.931263,40.8457021 177.268565,40.6145869 176.487797,40.4088441 C175.706778,40.2038549 174.926011,39.9466136 174.145494,39.6383761 C173.364224,39.3301387 172.701526,38.8422846 172.157401,38.1745625 C171.612772,37.5068404 171.340458,36.6692988 171.340458,35.6621889 C171.340458,34.1418525 171.900159,32.9450774 173.020315,32.0713613 C174.139968,31.1983988 175.532437,30.7612895 177.196718,30.7612895 C178.449765,30.7612895 179.590519,31.0441545 180.617977,31.6091308 C181.645435,32.1743583 182.457102,32.9807496 183.053229,34.0285558 L179.662617,35.8779802 C179.169488,34.830174 178.34727,34.3061453 177.196718,34.3061453 C176.682989,34.3061453 176.256682,34.4191908 175.917545,34.6450306 C175.57866,34.8713728 175.409092,35.1796102 175.409092,35.5697428" id="Fill-14" fill="#474190" mask="url(#mask-2)"></path>
                            <path d="M195.527172,35.7084622 C196.431285,35.7084622 197.180902,35.3954518 197.77728,34.7684261 C198.372904,34.1419027 198.671093,33.3659082 198.671093,32.4411959 C198.671093,31.4963867 198.372904,30.7151167 197.77728,30.0986419 C197.180902,29.4821671 196.431285,29.1739297 195.527172,29.1739297 L191.735877,29.1739297 L191.735877,35.7084622 L195.527172,35.7084622 Z M195.527172,25.1979937 C197.602436,25.1979937 199.349115,25.8966149 200.766957,27.2938573 C202.184799,28.691351 202.89372,30.4068793 202.89372,32.4411959 C202.89372,34.4755126 202.184799,36.1915434 200.766957,37.5885346 C199.349115,38.9862794 197.602436,39.6846494 195.527172,39.6846494 L191.735877,39.6846494 L191.735877,46.7738586 L187.482603,46.7738586 L187.482603,25.1979937 L195.527172,25.1979937 Z" id="Fill-15" fill="#C73462" mask="url(#mask-2)"></path>
                            <polygon id="Fill-16" fill="#C73462" mask="url(#mask-2)" points="205.482813 46.7739591 209.458749 46.7739591 209.458749 24.2733819 205.482813 24.2733819"></polygon>
                            <path d="M217.472671,42.1965708 C218.273787,43.0084887 219.291196,43.4141965 220.523894,43.4141965 C221.757095,43.4141965 222.779027,43.0084887 223.590693,42.1965708 C224.40236,41.3851553 224.808319,40.3423733 224.808319,39.0682249 C224.808319,37.7943276 224.40236,36.7515457 223.590693,35.9396277 C222.779027,35.1282122 221.757095,34.7222532 220.523894,34.7222532 C219.291196,34.7222532 218.273787,35.1282122 217.472671,35.9396277 C216.671304,36.7515457 216.27062,37.7943276 216.27062,39.0682249 C216.27062,40.3423733 216.671304,41.3851553 217.472671,42.1965708 Z M224.808319,31.3625409 L228.784506,31.3625409 L228.784506,46.7739089 L224.808319,46.7739089 L224.808319,44.9551323 C223.616317,46.4553718 221.941988,47.2052403 219.784326,47.2052403 C217.729158,47.2052403 215.967156,46.4194484 214.498067,44.8473623 C213.028978,43.2755273 212.294433,41.3489807 212.294433,39.0682249 C212.294433,36.7872178 213.028978,34.8609224 214.498067,33.2888363 C215.967156,31.7170013 217.729158,30.9309582 219.784326,30.9309582 C221.941988,30.9309582 223.616317,31.6813292 224.808319,33.1810662 L224.808319,31.3625409 Z" id="Fill-17" fill="#C73462" mask="url(#mask-2)"></path>
                            <path d="M239.726306,47.2053408 C237.4041,47.2053408 235.467505,46.4248243 233.91627,44.8627867 C232.364532,43.3015027 231.58904,41.3699318 231.58904,39.0680741 C231.58904,36.7669701 232.364532,34.8353992 233.91627,33.2736128 C235.467505,31.7120776 237.4041,30.9308075 239.726306,30.9308075 C241.226043,30.9308075 242.592889,31.2905434 243.825587,32.0097641 C245.058788,32.7292359 245.993549,33.6948957 246.630623,34.9069947 L243.209364,36.9106635 C242.901126,36.2738405 242.433369,35.77016 241.806846,35.4001243 C241.17982,35.0303399 240.476175,34.8454477 239.695658,34.8454477 C238.503656,34.8454477 237.517146,35.2413582 236.73663,36.0319231 C235.955359,36.8232416 235.565478,37.8351245 235.565478,39.0680741 C235.565478,40.2809268 235.955359,41.28251 236.73663,42.0733261 C237.517146,42.8646446 238.503656,43.2600526 239.695658,43.2600526 C240.496774,43.2600526 241.210719,43.0804359 241.837745,42.7204488 C242.464268,42.3614665 242.932026,41.8628102 243.240012,41.225736 L246.69217,43.1985057 C246.014148,44.4111071 245.058788,45.3820424 243.825587,46.1113115 C242.592889,46.8403294 241.226043,47.2053408 239.726306,47.2053408" id="Fill-18" fill="#C73462" mask="url(#mask-2)"></path>
                            <path d="M251.839685,37.6194337 L259.699613,37.6194337 C259.473271,36.5716275 259.006016,35.7908598 258.297095,35.2768796 C257.588174,34.763653 256.781532,34.5064117 255.877419,34.5064117 C254.808762,34.5064117 253.925249,34.778977 253.226627,35.3231027 C252.528006,35.867982 252.065525,36.6331745 251.839685,37.6194337 Z M251.901483,40.7018078 C252.43556,42.6333786 253.884301,43.5990384 256.247455,43.5990384 C257.768042,43.5990384 258.918594,43.0855606 259.699613,42.0578514 L262.905081,43.9072758 C261.384242,46.1063877 259.144685,47.2054412 256.185908,47.2054412 C253.637611,47.2054412 251.593246,46.4347221 250.052059,44.8937863 C248.510871,43.3525992 247.740404,41.4107287 247.740404,39.0681746 C247.740404,36.74622 248.500321,34.8098761 250.021411,33.2581381 C251.541496,31.7069026 253.493666,30.930908 255.877419,30.930908 C258.137575,30.930908 260.002575,31.712178 261.471915,33.2734621 C262.940753,34.8352485 263.675549,36.7670706 263.675549,39.0681746 C263.675549,39.5821548 263.624051,40.126783 263.521556,40.7018078 L251.901483,40.7018078 Z" id="Fill-19" fill="#C73462" mask="url(#mask-2)"></path>
                        </g>
                        <g id="Group-23" transform="translate(45.218202, 0.116814)">
                            <mask id="mask-4" fill="white">
                                <use xlink:href="#path-3"></use>
                            </mask>
                            <g id="Clip-22"></g>
                            <path d="M5.1425656,0.187404325 L1.38744516,1.19350931 C0.561459338,1.41482729 0.0665712415,2.27171221 0.287889218,3.09769803 L1.29424542,6.85281848 C1.5155634,7.67880429 2.37244832,8.17369239 3.19843414,7.95237442 L6.95355458,6.94626943 C7.7795404,6.72470024 8.27417728,5.86781531 8.05311052,5.0418295 L7.04675432,1.28670905 C6.86135969,0.594116929 6.22880729,0.134649756 5.54249547,0.134398544 C5.41010663,0.134398544 5.2759593,0.151480976 5.1425656,0.187404325" id="Fill-21" mask="url(#mask-4)"></path>
                        </g>
                        <g id="Group-26" transform="translate(13.565461, 38.552285)">
                            <mask id="mask-6" fill="white">
                                <use xlink:href="#path-5"></use>
                            </mask>
                            <g id="Clip-25"></g>
                            <path d="M27.9131959,0.299193768 L1.3781503,7.40925357 C0.552164486,7.63082276 0.0572763889,8.48770768 0.278594365,9.3136935 L1.27138511,13.0185715 C1.49270308,13.8448085 2.34958801,14.3394454 3.17557382,14.1181274 L3.9266984,13.9169064 C4.75293543,13.6955885 5.60982035,14.1902253 5.83113833,15.0167136 L6.83749453,18.7715828 C7.05881251,19.5975686 7.91569743,20.0924567 8.74193446,19.8711388 L23.8618963,15.8195879 C24.6878821,15.5980187 25.1827702,14.7411338 24.9614522,13.915148 L23.9553472,10.1602787 C23.733778,9.33404169 24.2286661,8.47715677 25.054652,8.25558758 L29.7108707,7.00831885 C30.5371077,6.78674966 31.0319958,5.92986474 30.8104266,5.1036277 L29.8178871,1.39900092 C29.6322412,0.706157584 28.9996888,0.2464392 28.3131258,0.2464392 C28.1809882,0.2464392 28.0468409,0.263521631 27.9131959,0.299193768" id="Fill-24" mask="url(#mask-6)"></path>
                        </g>
                        <g id="Group-29" transform="translate(24.618799, 62.668659)">
                            <mask id="mask-8" fill="white">
                                <use xlink:href="#path-7"></use>
                            </mask>
                            <g id="Clip-28"></g>
                            <path d="M8.26111425,0.165800073 L1.30178179,2.03054847 C0.47604718,2.25211766 -0.0190921296,3.10900258 0.202477059,3.9349884 L1.1952678,7.64036882 C1.38066243,8.33220731 2.01220998,8.79192569 2.69801937,8.79242812 L2.70078271,8.79242812 C2.83266913,8.79217691 2.96656525,8.77509447 3.09945652,8.73942234 L10.058789,6.87467394 C10.885026,6.65335596 11.3796629,5.79647104 11.1583449,4.97048522 L10.1655542,1.26535601 C9.97990834,0.573015101 9.34760715,0.113045504 8.66104412,0.113045504 C8.52890649,0.113045504 8.39475916,0.130127936 8.26111425,0.165800073" id="Fill-27" mask="url(#mask-8)"></path>
                        </g>
                        <g id="Group-32" transform="translate(0.000000, 2.628936)">
                            <mask id="mask-10" fill="white">
                                <use xlink:href="#path-9"></use>
                            </mask>
                            <g id="Clip-31"></g>
                            <path d="M38.9851239,0.213781609 L13.1509603,7.13568345 C12.3249745,7.35700143 11.8300864,8.21388635 12.0516556,9.03987217 L13.0577606,12.7947414 C13.2790786,13.6209784 12.7804223,14.4607809 11.9544365,14.6820989 C11.9544365,14.6820989 11.9268031,14.6893841 11.8908798,14.6991813 L4.49820623,16.6980771 C3.67196919,16.9196462 3.17733231,17.7765312 3.39865029,18.602517 L4.40475528,22.3573862 C4.62632446,23.183372 4.13143637,24.040257 3.30545055,24.2618262 L3.30519934,24.2618262 L1.15231051,24.8388606 C0.463988992,25.0232504 0.00577788134,25.6490201 0,26.3305589 L0,26.3569362 C0.00100484893,26.4848032 0.0180872807,26.6144287 0.0527545687,26.7433006 L1.05911077,30.4981698 C1.28042875,31.3244068 2.13731367,31.8192949 2.96329949,31.597977 L7.86922317,30.2803688 C8.69520899,30.059302 9.55309876,30.556451 9.77441673,31.3826881 L10.7805217,35.1375573 C11.0018397,35.9640456 11.8589758,36.4584312 12.6849617,36.2371132 L46.4797896,27.1819171 C47.3060266,26.9605992 47.8006635,26.103463 47.5793455,25.277226 L46.5599263,21.4723655 C46.3386083,20.6463797 46.8332452,19.7892436 47.659231,19.5681768 L51.2138841,18.61558 C52.0401211,18.394262 52.5350092,17.5371259 52.3136912,16.7108889 L51.3209005,13.0060109 C51.0995825,12.1800251 50.2424464,11.7808488 49.4162094,12.0021668 L40.6546803,14.445457 L40.6544291,14.445457 C39.8284433,14.6966692 38.9715584,14.0764262 38.7504916,13.2501892 L37.682086,9.4616575 C37.4600144,8.63265714 37.9458589,7.78531828 38.7208486,7.55194212 L38.8436914,7.50722634 L40.796364,6.97792217 C41.6223499,6.75660419 42.117238,5.89645351 41.8956688,5.07046769 L40.889815,1.31409119 C40.7041692,0.621499062 40.0713655,0.161027041 39.3848025,0.161027041 C39.2524137,0.161027041 39.1185175,0.178109472 38.9851239,0.213781609 M24.6697948,25.7690995 C22.5485587,24.7069742 21.0925326,22.5131378 21.0925326,19.9796624 C21.0925326,19.8161233 21.0983105,19.6538402 21.1103687,19.4933156 C21.36761,16.1552074 24.1590803,13.5086866 27.5632573,13.5086866 C29.7412674,13.5086866 31.6675627,14.5846286 32.8402214,16.2335856 C32.8618257,16.264736 32.8909663,16.306186 32.9123194,16.3373363 L32.9125706,16.3373363 C33.6202354,17.375094 34.033982,18.6288943 34.033982,19.9796624 C34.033982,21.289483 33.6448542,22.5083648 32.9756248,23.5270304 C31.8192949,25.2880281 29.8269307,26.4503871 27.5632573,26.4503871 C26.5232387,26.4503871 25.5404964,26.205204 24.6697948,25.7690995" id="Fill-30" mask="url(#mask-10)"></path>
                        </g>
                        <g id="Group-50" transform="translate(0.000000, 0.116814)">
                            <path d="M45.5061161,3.09784876 C45.2847981,2.27161173 45.779435,1.41472681 46.605672,1.19340883 L50.3605413,0.18730384 C51.1867783,-0.0340141362 52.0436632,0.460622749 52.2649812,1.28685978 L53.2713374,5.04172901 C53.4926554,5.86796604 52.9977673,6.72485096 52.1717815,6.94616894 L48.416661,7.95227393 C47.5906752,8.17384312 46.7335391,7.67895502 46.5122211,6.85271799 L45.5061161,3.09784876 Z" id="Fill-33" fill="#C73462"></path>
                            <path d="M13.0575596,15.306914 C13.2788776,16.133151 12.7804725,16.9729535 11.9544867,17.1942715 L38.8437416,10.0073407 L40.7961631,9.48406564 C41.6224001,9.26274766 42.1172882,8.40586274 41.895719,7.57962571 L40.889614,3.82475647 C40.6682961,2.99851944 39.8114111,2.50388256 38.9851741,2.72520053 L13.1510106,9.6476048 C12.3247736,9.86892278 11.8301367,10.7258077 12.0514546,11.5520447 L13.0575596,15.306914 Z" id="Fill-35" fill="#A23E7D"></path>
                            <path d="M38.6202381,46.6911596 L43.2764568,45.4436396 C44.1024426,45.2220704 44.5973307,44.3651855 44.3760127,43.5391997 L43.383222,39.8343217 C43.161904,39.0080847 42.3047679,38.5131966 41.4787821,38.7347657 L14.9434852,45.8448255 C14.1174994,46.0661435 13.6226113,46.9232797 13.8441805,47.7492655 L14.83672,51.4541435 C15.0582892,52.2803805 15.9151741,52.7750174 16.74116,52.5536994 L17.4922845,52.3524784 L38.6202381,46.6911596 Z" id="Fill-37" fill="#474190"></path>
                            <path d="M38.6202381,46.6911596 C37.7940011,46.9127287 37.2993642,47.7696137 37.5206821,48.5955995 L38.5267871,52.3504687 C38.7481051,53.1767057 38.2534682,54.0338419 37.4272312,54.2549086 L22.3072694,58.3064595 C21.4810323,58.5277775 20.6241474,58.0328894 20.4028294,57.2069036 L19.3967245,53.4520344 C19.1754065,52.6257973 18.3182703,52.1311604 17.4922845,52.3524784 L38.6202381,46.6911596 Z" id="Fill-39" fill="#40549C"></path>
                            <g id="Group-43" transform="translate(24.618799, 62.551846)">
                                <mask id="mask-12" fill="white">
                                    <use xlink:href="#path-11"></use>
                                </mask>
                                <g id="Clip-42"></g>
                                <path d="M0.20230121,3.93503864 C-0.019016766,3.10905283 0.475871331,2.2521679 1.30185715,2.03084993 L8.26118961,0.165850316 C9.08717543,-0.0554676608 9.94431157,0.439420436 10.1656295,1.26540625 L11.1581691,4.97053546 C11.3797383,5.79652128 10.8848502,6.65340621 10.0588643,6.87497539 L3.09953188,8.73972379 C2.27354606,8.96104177 1.41640993,8.46615367 1.19509195,7.64016785 L0.20230121,3.93503864 Z" id="Fill-41" fill="#3D70AF" mask="url(#mask-12)"></path>
                            </g>
                            <path d="M47.6593315,22.080073 L51.2139846,21.1274763 C52.0399704,20.9061583 52.5348585,20.0492734 52.3135405,19.2230363 L51.3207498,15.5181583 C51.0994318,14.6921725 50.2425469,14.1972844 49.4163098,14.4186024 L40.6547808,16.7664319 L32.9124198,18.8497349 C33.6200847,19.8872415 34.0340825,21.1410417 34.0340825,22.4918099 C34.0340825,23.8016305 33.6447035,25.0205122 32.9757253,26.0391778 L47.6593315,22.080073 Z M24.6696441,28.281247 C22.5486592,27.2191217 21.0923819,25.0255365 21.0923819,22.4918099 C21.0923819,22.3280195 21.098411,22.1659876 21.110218,22.005463 L3.30504861,26.7742248 L1.15241099,27.3510081 C0.326425174,27.5723261 -0.168462923,28.429211 0.0528550536,29.255448 L1.05896004,33.0103173 C1.28027802,33.8365543 2.13741415,34.3314424 2.96339997,34.1098732 L24.6696441,28.281247 Z" id="Fill-44" fill="#79297C"></path>
                            <path d="M7.86907244,32.792667 C8.69530947,32.571349 9.55294803,33.0687492 9.77426601,33.894735 L10.7806222,37.6496043 C11.0019402,38.4760925 11.8588251,38.9704782 12.6850621,38.7491602 L46.4798901,29.6939641 C47.3058759,29.4726461 47.800764,28.6157612 47.579446,27.7895242 L46.5597756,23.9844125 C46.3384576,23.1584267 46.8330945,22.3012905 47.6593315,22.0799726 L32.9757253,26.0393285 C31.8193954,27.7998239 29.8270312,28.9624341 27.5631066,28.9624341 C26.5230879,28.9624341 25.5405969,28.7172509 24.6696441,28.2811465 L7.86907244,32.792667 Z" id="Fill-46" fill="#673B8F"></path>
                            <path d="M38.7503911,15.666675 C38.9717091,16.492912 39.828594,16.9875489 40.6548311,16.7662309 L32.9124701,18.849534 C32.8908658,18.8181324 32.8619764,18.7766824 32.8403722,18.7457833 C31.6674623,17.096575 29.7411669,16.0208842 27.5631568,16.0208842 C24.1592311,16.0208842 21.3675095,18.6671539 21.1102682,22.005262 L3.30535006,26.7740238 C4.13133588,26.5527059 4.62622398,25.6958209 4.40465479,24.8695839 L3.3985498,21.1147147 C3.17748304,20.2884776 3.67211992,19.4315927 4.49810574,19.2102747 L11.8910305,17.2111278 C12.7170163,16.990061 38.7207481,10.0402746 38.7207481,10.0402746 C37.9460096,10.2733996 37.4601651,11.0968733 37.6822367,11.9258737 L38.7503911,15.666675 Z" id="Fill-48" fill="#8F397B"></path>
                        </g>
                    </g>
                </g>
            </g>
        </g>
    </g>
</svg>