<?xml version="1.0" encoding="UTF-8"?>
<svg width="175px" height="161px" viewBox="0 0 175 161" version="1.1" xmlns="http://www.w3.org/2000/svg" xmlns:xlink="http://www.w3.org/1999/xlink">
    <!-- Generator: Sketch 49.3 (51167) - http://www.bohemiancoding.com/sketch -->
    <title>favoriser</title>
    <desc>Created with Sketch.</desc>
    <defs>
        <polygon id="path-1" points="0.8061 0.469 55.2621 0.469 55.2621 54.9256 0.8061 54.9256"></polygon>
        <polygon id="path-3" points="0.6107 0.0873 55.067 0.0873 55.067 54.5443 0.6107 54.5443"></polygon>
        <polygon id="path-5" points="0.8061 0.5433 55.2621 0.5433 55.2621 55 0.8061 55"></polygon>
    </defs>
    <g id="Le-Cluster" stroke="none" stroke-width="1" fill="none" fill-rule="evenodd">
        <g id="favoriser" transform="translate(0.131640, -0.648875)">
            <g id="Group-3" transform="translate(59.000000, 0.531000)">
                <mask id="mask-2" fill="white">
                    <use xlink:href="#path-1"></use>
                </mask>
                <g id="Clip-2"></g>
                <path d="M55.2621,43.3226 C55.2621,49.7046 50.0401,54.9256 43.6591,54.9256 L12.4081,54.9256 C6.0271,54.9256 0.8061,49.7046 0.8061,43.3226 L0.8061,12.0726 C0.8061,5.6906 6.0271,0.4686 12.4081,0.4686 L43.6591,0.4686 C50.0401,0.4686 55.2621,5.6906 55.2621,12.0726 L55.2621,43.3226 Z" id="Fill-1" fill="#C73462" mask="url(#mask-2)"></path>
            </g>
            <g id="Group-6" transform="translate(119.000000, 52.531000)">
                <mask id="mask-4" fill="white">
                    <use xlink:href="#path-3"></use>
                </mask>
                <g id="Clip-5"></g>
                <path d="M55.0677,42.9413 C55.0677,49.3223 49.8457,54.5443 43.4637,54.5443 L12.2137,54.5443 C5.8327,54.5443 0.6107,49.3223 0.6107,42.9413 L0.6107,11.6903 C0.6107,5.3093 5.8327,0.0873 12.2137,0.0873 L43.4637,0.0873 C49.8457,0.0873 55.0677,5.3093 55.0677,11.6903 L55.0677,42.9413 Z" id="Fill-4" fill="#8F397B" mask="url(#mask-4)"></path>
            </g>
            <path d="M54.4564,95.4723 C54.4564,101.8533 49.2344,107.0753 42.8534,107.0753 L11.6024,107.0753 C5.2214,107.0753 0.0004,101.8533 0.0004,95.4723 L0.0004,64.2213 C0.0004,57.8403 5.2214,52.6183 11.6024,52.6183 L42.8534,52.6183 C49.2344,52.6183 54.4564,57.8403 54.4564,64.2213 L54.4564,95.4723 Z" id="Fill-7" fill="#40549C"></path>
            <g id="Group-11" transform="translate(59.000000, 106.531000)">
                <mask id="mask-6" fill="white">
                    <use xlink:href="#path-5"></use>
                </mask>
                <g id="Clip-10"></g>
                <path d="M55.2621,43.3973 C55.2621,49.7793 50.0401,55.0003 43.6591,55.0003 L12.4081,55.0003 C6.0271,55.0003 0.8061,49.7793 0.8061,43.3973 L0.8061,12.1463 C0.8061,5.7653 6.0271,0.5433 12.4081,0.5433 L43.6591,0.5433 C50.0401,0.5433 55.2621,5.7653 55.2621,12.1463 L55.2621,43.3973 Z" id="Fill-9" fill="#673B8F" mask="url(#mask-6)"></path>
            </g>
            <path d="M132.7406,74.0645 C128.2286,78.5775 120.8446,78.5775 116.3326,74.0645 L94.2346,51.9665 C89.7216,47.4545 89.7216,40.0705 94.2346,35.5585 L116.3326,13.4605 C120.8446,8.9485 128.2286,8.9485 132.7406,13.4605 L154.8386,35.5585 C159.3506,40.0705 159.3506,47.4545 154.8386,51.9665 L132.7406,74.0645 Z" id="Fill-12" fill="#A23E7D"></path>
            <path d="M57.7347,149.0709 C53.2227,153.5829 45.8387,153.5829 41.3267,149.0709 L19.2287,126.9729 C14.7157,122.4609 14.7157,115.0769 19.2287,110.5639 L41.3267,88.4669 C45.8387,83.9539 53.2227,83.9539 57.7347,88.4669 L79.8327,110.5639 C84.3447,115.0769 84.3447,122.4609 79.8327,126.9729 L57.7347,149.0709 Z" id="Fill-14" fill="#474190"></path>
            <path d="M94.2347,126.9732 C89.7217,122.4602 89.7217,115.0772 94.2347,110.5642 L116.3327,88.4672 C120.8447,83.9542 128.2287,83.9542 132.7407,88.4672 L154.8387,110.5642 C159.3507,115.0772 159.3507,122.4602 154.8387,126.9732 L132.7407,149.0712 C128.2287,153.5822 120.8447,153.5822 116.3327,149.0712 L94.2347,126.9732 Z" id="Fill-16" fill="#79297C"></path>
            <path d="M19.2289,51.9669 C14.7159,47.4549 14.7159,40.0709 19.2289,35.5579 L41.3269,13.4609 C45.8389,8.9479 53.2229,8.9479 57.7349,13.4609 L79.8329,35.5579 C84.3449,40.0709 84.3449,47.4549 79.8329,51.9669 L57.7349,74.0649 C53.2229,78.5769 45.8389,78.5769 41.3269,74.0649 L19.2289,51.9669 Z" id="Fill-18" fill="#3D70AF"></path>
            <path d="M94.2347,51.9669 L97.7237,55.4569 L102.6597,55.4569 C109.0407,55.4569 114.2617,50.2359 114.2617,43.8539 L114.2617,15.5309 L94.2347,35.5579 C89.7217,40.0709 89.7217,47.4549 94.2347,51.9669" id="Fill-20" fill="#8F397B"></path>
            <path d="M119.6107,64.2213 L119.6107,76.3463 C123.9107,78.3523 129.2047,77.6003 132.7407,74.0643 L154.1867,52.6183 L131.2147,52.6183 C124.8327,52.6183 119.6107,57.8403 119.6107,64.2213" id="Fill-22" fill="#79297C"></path>
            <path d="M54.4564,95.4723 L54.4564,86.1843 C50.1574,84.1793 44.8624,84.9303 41.3264,88.4663 L22.7184,107.0753 L42.8534,107.0753 C49.2344,107.0753 54.4564,101.8533 54.4564,95.4723" id="Fill-24" fill="#3D70AF"></path>
            <path d="M79.8324,110.5641 L76.3434,107.0751 L71.4084,107.0751 C65.0264,107.0751 59.8064,112.2961 59.8064,118.6771 L59.8064,147.0011 L79.8324,126.9731 C84.3454,122.4601 84.3454,115.0771 79.8324,110.5641" id="Fill-26" fill="#40549C"></path>
            <path d="M119.6107,86.1847 L119.6107,95.4727 C119.6107,101.8537 124.8327,107.0747 131.2147,107.0747 L151.3487,107.0747 L132.7407,88.4667 C129.2047,84.9307 123.9107,84.1787 119.6107,86.1847" id="Fill-28" fill="#673B8F"></path>
            <path d="M102.6595,107.0748 L97.7235,107.0748 L94.2345,110.5638 C89.7215,115.0768 89.7215,122.4608 94.2345,126.9728 L114.2625,147.0008 L114.2625,118.6778 C114.2625,112.2958 109.0405,107.0748 102.6595,107.0748" id="Fill-30" fill="#8F397B"></path>
            <path d="M71.4085,55.4566 L76.3435,55.4566 L79.8325,51.9666 C84.3455,47.4546 84.3455,40.0706 79.8325,35.5586 L59.8055,15.5316 L59.8055,43.8536 C59.8055,50.2356 65.0265,55.4566 71.4085,55.4566" id="Fill-32" fill="#A23E7D"></path>
            <path d="M54.4564,76.3468 L54.4564,64.2218 C54.4564,57.8398 49.2344,52.6188 42.8534,52.6188 L19.8804,52.6188 L41.3264,74.0648 C44.8624,77.6008 50.1574,78.3528 54.4564,76.3468" id="Fill-34" fill="#474190"></path>
        </g>
    </g>
</svg>