<?xml version="1.0" encoding="UTF-8"?>
<svg width="416px" height="331px" viewBox="0 0 416 331" version="1.1" xmlns="http://www.w3.org/2000/svg" xmlns:xlink="http://www.w3.org/1999/xlink">
    <!-- Generator: Sketch 49.3 (51167) - http://www.bohemiancoding.com/sketch -->
    <title>mission-adhérent</title>
    <desc>Created with Sketch.</desc>
    <defs>
        <linearGradient x1="-1.11022302e-14%" y1="50%" x2="100%" y2="50%" id="linearGradient-1">
            <stop stop-color="#4B77B7" offset="0%"></stop>
            <stop stop-color="#3D67AB" offset="100%"></stop>
        </linearGradient>
    </defs>
    <g id="Missions" stroke="none" stroke-width="1" fill="none" fill-rule="evenodd">
        <g id="Missions4" transform="translate(-874.000000, -439.000000)" fill="url(#linearGradient-1)">
            <g id="Group" transform="translate(734.000000, 439.538042)">
                <g id="Group-Copy-3" transform="translate(-734.000000, -55.626205)">
                    <g id="mission-adhérent" transform="translate(770.637178, -269.500000)">
                        <path d="M1588.84142,398.250887 C1581.98745,372.676236 1555.45925,357.35884 1529.8846,364.210181 L1258.64157,436.890762 L1258.6284,436.893396 C1233.05902,443.7342 1206.53609,428.419439 1199.68738,402.847422 L1166.61867,287.038429 C1159.74098,261.376852 1174.78707,235.883859 1198.77071,228.663742 L1202.57701,227.646973 L1263.02475,211.447148 C1288.59676,204.595807 1303.91416,178.064972 1297.06282,152.490321 L1265.91437,36.2440639 C1259.06303,10.6694133 1232.52956,-4.64798232 1206.95491,2.20599245 L407.178769,216.504654 C381.606752,223.358629 366.286722,249.88683 373.140697,275.461481 L404.289141,391.710372 C411.140482,417.282388 395.712453,443.283766 370.137803,450.137741 C370.137803,450.137741 369.284349,450.366909 368.172751,450.664565 L139.304783,512.547896 C113.730132,519.401871 98.4180052,545.932707 105.266712,571.504723 L136.412522,687.748346 C143.271765,713.322997 127.951735,739.853832 102.379718,746.710441 L102.37445,746.710441 L35.7259992,764.56976 C10.1539826,771.421101 -5.16341293,797.951936 1.68792772,823.526587 L32.8363719,939.772844 C39.6877125,965.347495 66.218548,980.66489 91.7931986,973.81355 L243.668534,933.029502 C269.240551,926.180796 295.795093,941.579849 302.649068,967.151865 L333.794878,1083.39812 C340.646219,1108.97277 367.179688,1124.29017 392.754339,1117.43883 L1438.97329,837.105465 C1464.54794,830.25149 1479.86533,803.720655 1473.01399,778.146004 L1441.44936,660.350886 C1434.59538,634.776235 1449.91541,608.242765 1475.49006,601.391425 L1585.53561,571.905109 C1611.11026,565.051134 1626.42765,538.520299 1619.57368,512.945648 L1588.84142,398.250887 Z" id="Combined-Shape-Copy"></path>
                    </g>
                </g>
            </g>
        </g>
    </g>
</svg>