<?xml version="1.0" encoding="UTF-8"?>
<svg width="477px" height="331px" viewBox="0 0 477 331" version="1.1" xmlns="http://www.w3.org/2000/svg" xmlns:xlink="http://www.w3.org/1999/xlink">
    <!-- Generator: Sketch 49.3 (51167) - http://www.bohemiancoding.com/sketch -->
    <title>mission-client</title>
    <desc>Created with Sketch.</desc>
    <defs>
        <linearGradient x1="37.4974654%" y1="58.8466767%" x2="69.2221352%" y2="65.486852%" id="linearGradient-1">
            <stop stop-color="#4F4B98" offset="0%"></stop>
            <stop stop-color="#474390" offset="100%"></stop>
        </linearGradient>
    </defs>
    <g id="Missions" stroke="none" stroke-width="1" fill="none" fill-rule="evenodd">
        <g id="Missions4" transform="translate(-229.000000, -439.000000)" fill="url(#linearGradient-1)">
            <g id="Group-6" transform="translate(149.000000, 439.538042)">
                <g id="mission-client" transform="translate(-23.000000, -324.931697)">
                    <path d="M1589.01419,397.750887 C1582.16021,372.176236 1555.63201,356.85884 1530.05736,363.710181 L1258.81434,436.390762 L1258.80117,436.393396 C1233.23179,443.2342 1206.70885,427.919439 1199.86015,402.347422 L1166.79143,286.538429 C1159.91375,260.876852 1174.95983,235.383859 1198.94347,228.163742 L1202.74977,227.146973 L1263.19751,210.947148 C1288.76953,204.095807 1304.08692,177.564972 1297.23558,151.990321 L1266.08714,35.7440639 C1259.2358,10.1694133 1232.70233,-5.14798232 1207.12768,1.70599245 L407.351532,216.004654 C381.779516,222.858629 366.459486,249.38683 373.313461,274.961481 L404.461905,391.210372 C411.313246,416.782388 395.885217,442.783766 370.310567,449.637741 C370.310567,449.637741 369.457112,449.866909 368.345515,450.164565 L139.477547,512.047896 C113.902896,518.901871 98.590769,545.432707 105.439476,571.004723 L136.585286,687.248346 C143.444529,712.822997 128.124499,739.353832 102.552482,746.210441 L102.547214,746.210441 L35.898763,764.06976 C10.3267465,770.921101 -4.99064908,797.451936 1.86069157,823.026587 L33.0091357,939.272844 C39.8604764,964.847495 66.3913118,980.16489 91.9659625,973.31355 L243.841298,932.529502 C269.413315,925.680796 295.967857,941.079849 302.821832,966.651865 L333.967642,1082.89812 C340.818983,1108.47277 367.352452,1123.79017 392.927103,1116.93883 L1439.14605,836.605465 C1464.7207,829.75149 1480.0381,803.220655 1473.18676,777.646004 L1441.62212,659.850886 C1434.76815,634.276235 1450.08818,607.742765 1475.66283,600.891425 L1585.70837,571.405109 C1611.28302,564.551134 1626.60042,538.020299 1619.74644,512.445648 L1589.01419,397.750887 Z" id="Combined-Shape"></path>
                </g>
            </g>
        </g>
    </g>
</svg>