<?xml version="1.0" encoding="UTF-8"?>
<svg width="173px" height="178px" viewBox="0 0 173 178" version="1.1" xmlns="http://www.w3.org/2000/svg" xmlns:xlink="http://www.w3.org/1999/xlink">
    <!-- Generator: Sketch 49.3 (51167) - http://www.bohemiancoding.com/sketch -->
    <title>participer</title>
    <desc>Created with Sketch.</desc>
    <defs>
        <polygon id="path-1" points="0.0553 0.0441 20.0113 0.0441 20.0113 20 0.0553 20"></polygon>
        <polygon id="path-3" points="0.0004 0.123 163.9994 0.123 163.9994 158.043702 0.0004 158.043702"></polygon>
        <polygon id="path-5" points="0.0552 0.0442 20.0112 0.0442 20.0112 20 0.0552 20"></polygon>
    </defs>
    <g id="Le-Cluster" stroke="none" stroke-width="1" fill="none" fill-rule="evenodd">
        <g id="participer" transform="translate(0.516713, -0.986285)">
            <g id="Group-3" transform="translate(152.000000, 158.877000)">
                <mask id="mask-2" fill="white">
                    <use xlink:href="#path-1"></use>
                </mask>
                <g id="Clip-2"></g>
                <path d="M15.7593,0.0441 L4.3073,0.0441 C1.9693,0.0441 0.0553,1.9571 0.0553,4.2961 L0.0553,15.7481 C0.0553,18.0871 1.9693,20.0001 4.3073,20.0001 L15.7593,20.0001 C18.0983,20.0001 20.0113,18.0871 20.0113,15.7481 L20.0113,4.2961 C20.0113,1.9571 18.0983,0.0441 15.7593,0.0441" id="Fill-1" fill="#A23E7E" mask="url(#mask-2)"></path>
            </g>
            <g id="Group-6" transform="translate(0.000000, 0.877000)">
                <mask id="mask-4" fill="white">
                    <use xlink:href="#path-3"></use>
                </mask>
                <g id="Clip-5"></g>
                <path d="M158.1284,123.0597 L158.1404,108.1497 C158.1424,104.8257 155.0564,102.1027 151.2804,102.0997 L144.8294,102.0937 C146.5274,102.0937 147.8084,102.0927 147.8084,102.0927 C147.8084,102.0927 147.8264,97.6397 147.8274,96.1007 L147.8394,81.0987 C147.8414,78.1937 151.3884,75.7587 156.0494,75.2197 L158.7714,75.2197 C161.6474,75.2197 163.9994,72.8667 163.9994,69.9907 L163.9994,50.6197 C163.9994,47.7437 161.6474,45.3907 158.7714,45.3907 L151.4714,45.3907 C149.3404,44.7767 147.7624,42.8437 147.7644,40.5447 L147.7744,27.8867 C147.7754,25.1017 145.4744,22.8217 142.6584,22.8197 L121.6434,22.8117 C119.3814,22.2877 117.6794,20.2787 117.6814,17.8877 L117.6904,5.2287 C117.6924,2.4447 115.3914,0.1637 112.5754,0.1627 L61.0434,0.1227 C58.2284,0.1207 55.9224,2.3977 55.9204,5.1827 L55.9114,17.8407 C55.9094,20.2617 54.1644,22.2947 51.8594,22.7837 L43.4604,22.7807 L29.2104,22.7807 C26.3954,22.7787 24.0894,25.0557 24.0874,27.8397 L24.0774,40.4977 C24.0764,42.8587 22.4124,44.8377 20.1934,45.3907 L5.2294,45.3907 C2.3534,45.3907 0.0004,47.7437 0.0004,50.6197 L0.0004,69.9907 C0.0004,72.8667 2.3534,75.2197 5.2294,75.2197 L15.6884,75.2197 C19.9874,75.9217 23.1714,78.2527 23.1704,81.0057 L23.2034,101.9817 L23.1984,101.9817 L23.1984,122.9567 C23.1964,126.2817 26.2834,129.0037 30.0584,129.0067 L32.4824,129.0087 C35.5474,129.6257 37.8774,132.3837 37.8754,135.4957 L37.8624,151.5617 C37.8594,155.0957 40.8644,157.9907 44.5404,157.9937 L109.8114,158.0437 C113.4864,158.0467 116.4954,155.1577 116.4984,151.6217 L116.4984,129.0727 L121.8644,129.0767 L121.8644,143.6217 C121.8674,147.1567 124.8774,150.0457 128.5524,150.0427 L139.5244,149.9927 C143.2004,149.9897 146.2054,147.0957 146.2024,143.5607 L146.1904,135.4957 C146.1884,132.5087 148.3364,129.8537 151.2194,129.0987 L151.2594,129.0987 C155.0344,129.1017 158.1264,126.3837 158.1284,123.0597" id="Fill-4" fill="#A23E7E" mask="url(#mask-4)"></path>
            </g>
            <path d="M122.7964,23.8312 C119.9814,23.8292 117.6794,21.5492 117.6814,18.7642 L117.6914,6.1062 C117.6924,3.3212 115.3914,1.0412 112.5754,1.0392 L61.0434,1.0002 C58.2284,0.9982 55.9224,3.2742 55.9214,6.0592 L55.9114,18.7172 C55.9094,21.5022 53.6044,23.7792 50.7884,23.7762 L122.7964,23.8312 Z" id="Fill-7" fill="#673B8E"></path>
            <path d="M152.8794,46.4889 C150.0644,46.4869 147.7624,44.2069 147.7644,41.4219 L147.7744,28.7639 C147.7754,25.9789 145.4744,23.6989 142.6584,23.6969 L43.4604,23.6579 L29.2104,23.6579 C26.3954,23.6559 24.0894,25.9319 24.0874,28.7169 L24.0774,41.3749 C24.0754,44.1599 21.7704,46.4369 18.9554,46.4339 L152.8794,46.4889 Z" id="Fill-9" fill="#903A7B"></path>
            <path d="M116.4985,152.4992 C116.4955,156.0342 113.4865,158.9242 109.8115,158.9212 L44.5405,158.8702 C40.8655,158.8672 37.8595,155.9732 37.8625,152.4382 L37.8745,136.3722 C37.8775,132.8382 34.8725,129.7572 31.1975,129.7552 L116.4985,129.8042 L116.4985,152.4992 Z" id="Fill-11" fill="#484290"></path>
            <path d="M121.8647,144.4992 C121.8677,148.0332 124.8777,150.9232 128.5517,150.9202 L139.5247,150.8692 C143.2007,150.8662 146.2057,147.9732 146.2027,144.4372 L146.1897,136.3722 C146.1877,132.8382 149.1927,129.7572 152.8677,129.7552 L121.8647,129.8042 L121.8647,144.4992 Z" id="Fill-13" fill="#484290"></path>
            <path d="M158.0103,75.9826 C152.4183,75.9786 147.8413,78.6746 147.8393,81.9756 L147.8273,96.9766 C147.8263,98.5166 147.8083,102.9696 147.8083,102.9696 C147.8083,102.9696 140.6403,102.9726 137.6573,102.9696 L35.3203,102.8926 L23.2033,102.8846 L23.1703,81.8826 C23.1723,78.5826 18.5993,75.8786 13.0093,75.8746 L158.0103,75.9826 Z" id="Fill-15" fill="#903A7B"></path>
            <g id="Group-19" transform="translate(152.000000, 158.877000)">
                <mask id="mask-6" fill="white">
                    <use xlink:href="#path-5"></use>
                </mask>
                <g id="Clip-18"></g>
                <path d="M20.0112,15.7482 C20.0112,18.0872 18.0982,20.0002 15.7592,20.0002 L4.3072,20.0002 C1.9692,20.0002 0.0552,18.0872 0.0552,15.7482 L0.0552,4.2962 C0.0552,1.9572 1.9692,0.0442 4.3072,0.0442 L15.7592,0.0442 C18.0982,0.0442 20.0112,1.9572 20.0112,4.2962 L20.0112,15.7482 Z" id="Fill-17" fill="#A23E7E" mask="url(#mask-6)"></path>
            </g>
            <path d="M129.981,129.9601 L151.259,129.9761 C155.035,129.9791 158.127,127.2611 158.128,123.9371 L158.14,109.0261 C158.142,105.7021 155.055,102.9801 151.28,102.9771 L23.1989978,102.8581 L23.199,123.8341 C23.196,127.1581 26.283,129.8811 30.059,129.8841 L33.423,129.8871 L129.981,129.9601 Z" id="Fill-20" fill="#673B8E"></path>
            <path d="M158.771,76.0963 L5.229,76.0963 C2.353,76.0963 0,73.7433 0,70.8673 L0,51.4963 C0,48.6203 2.353,46.2673 5.229,46.2673 L158.771,46.2673 C161.647,46.2673 164,48.6203 164,51.4963 L164,70.8673 C164,73.7433 161.647,76.0963 158.771,76.0963" id="Fill-22" fill="#A23E7E"></path>
        </g>
    </g>
</svg>