<?xml version="1.0" encoding="UTF-8"?>
<svg width="172px" height="146px" viewBox="0 0 172 146" version="1.1" xmlns="http://www.w3.org/2000/svg" xmlns:xlink="http://www.w3.org/1999/xlink">
    <!-- Generator: Sketch 49.3 (51167) - http://www.bohemiancoding.com/sketch -->
    <title>communiquer</title>
    <desc>Created with Sketch.</desc>
    <defs>
        <polygon id="path-1" points="9.6932109e-05 0.914 170.923 0.914 170.923 115.832003 9.6932109e-05 115.832003"></polygon>
        <polygon id="path-3" points="0 0.827696932 170.922903 0.827696932 170.922903 39.7607017 0 39.7607017"></polygon>
    </defs>
    <g id="Le-Cluster" stroke="none" stroke-width="1" fill="none" fill-rule="evenodd">
        <g id="communiquer" transform="translate(0.502271, -0.648875)">
            <g id="Group-3" transform="translate(0.000000, 0.086000)">
                <mask id="mask-2" fill="white">
                    <use xlink:href="#path-1"></use>
                </mask>
                <g id="Clip-2"></g>
                <path d="M162.4691,37.956 C165.6751,36.622 167.9301,33.461 167.9301,29.771 L167.9301,9.778 C167.9301,4.883 163.9611,0.914 159.0661,0.914 L19.9951,0.914 C15.1001,0.914 11.1311,4.883 11.1311,9.778 L11.1311,29.771 C11.1311,33.356 13.2641,36.437 16.3261,37.833 L8.7131,37.828 C3.9331,37.824 0.0201,41.732 0.0161,46.512 L0.0001,67.947 C-0.0039,72.727 3.9041,76.641 8.6841,76.644 L13.0291,76.647 C17.8081,76.651 21.7161,80.564 21.7121,85.344 L21.6961,107.069 C21.6931,111.849 25.6001,115.763 30.3791,115.767 L117.8611,115.832 C122.6401,115.836 126.5541,111.929 126.5581,107.149 L126.5731,85.423 C126.5771,80.644 130.4911,76.736 135.2711,76.74 L162.2101,76.76 C166.9901,76.764 170.9041,72.856 170.9071,68.077 L170.9231,46.641 C170.9271,41.939 167.1431,38.084 162.4691,37.956" id="Fill-1" fill="#673B8E" mask="url(#mask-2)"></path>
            </g>
            <path d="M143.9437,122.0059 L125.8877,121.9919 C123.7447,121.9899 121.9887,124.4149 121.9867,127.3799 L121.9757,140.6779 C121.9737,143.6439 123.7257,146.0699 125.8697,146.0719 L143.9247,146.0859 C146.0687,146.0879 147.8247,143.6629 147.8267,140.6979 L147.8377,127.3999 C147.8397,124.4349 146.0877,122.0069 143.9437,122.0059" id="Fill-4" fill="#673B8E"></path>
            <path d="M135.2709,76.8257 C130.4909,76.8227 126.5779,80.7297 126.5739,85.5097 L126.5569,107.2347 C126.5539,112.0147 122.6399,115.9227 117.8609,115.9187 L30.3789,115.8527 C25.5999,115.8487 21.6919,111.9347 21.6959,107.1557 L21.7119,85.4297 C21.7159,80.6507 17.8079,76.7367 13.0289,76.7337 L135.2709,76.8257 Z" id="Fill-6" fill="#40549C"></path>
            <g id="Group-10" transform="translate(0.000000, 37.086000)">
                <mask id="mask-4" fill="white">
                    <use xlink:href="#path-3"></use>
                </mask>
                <g id="Clip-9"></g>
                <path d="M135.2709,39.7397 L162.2099,39.7607 C166.9899,39.7637 170.9039,35.8567 170.9069,31.0767 L170.9229,9.6407 C170.9269,4.8617 167.0189,0.9477 162.2399,0.9447 L8.7129,0.8277 C3.9329,0.8237 0.0199,4.7317 0.0159,9.5107 L-0.0001,30.9477 C-0.0031,35.7267 3.9039,39.6407 8.6839,39.6437 L13.0289,39.6477 L135.2709,39.7397 Z" id="Fill-8" fill="#474190" mask="url(#mask-4)"></path>
            </g>
            <path d="M121.9867,127.3799 C121.9887,124.4149 123.7447,121.9899 125.8877,121.9919 L143.9437,122.0049 C146.0877,122.0069 147.8397,124.4349 147.8377,127.3999 L147.8267,140.6979 C147.8247,143.6629 146.0687,146.0879 143.9257,146.0859 L125.8697,146.0719 C123.7257,146.0709 121.9737,143.6429 121.9757,140.6779 L121.9867,127.3799 Z" id="Fill-11" fill="#3D70AF"></path>
            <path d="M11.1312,29.8574 L11.1312,9.8644 C11.1312,4.9684 15.1002,1.0004 19.9952,1.0004 L159.0662,1.0004 C163.9612,1.0004 167.9302,4.9684 167.9302,9.8644 L167.9302,29.8574 C167.9302,34.7534 163.9612,38.7214 159.0662,38.7214 L19.9952,38.7214 C15.1002,38.7214 11.1312,34.7534 11.1312,29.8574" id="Fill-13" fill="#673B8E"></path>
        </g>
    </g>
</svg>