<?xml version="1.0" encoding="UTF-8"?>
<svg width="152px" height="174px" viewBox="0 0 152 174" version="1.1" xmlns="http://www.w3.org/2000/svg" xmlns:xlink="http://www.w3.org/1999/xlink">
    <!-- Generator: Sketch 49.3 (51167) - http://www.bohemiancoding.com/sketch -->
    <title>contribuer</title>
    <desc>Created with Sketch.</desc>
    <defs></defs>
    <g id="Le-Cluster" stroke="none" stroke-width="1" fill="none" fill-rule="evenodd">
        <g id="contribuer" transform="translate(0.771516, 0.013715)">
            <path d="M141.3775,0.0002 L121.3845,0.0002 C116.4885,0.0002 112.5205,3.9692 112.5205,8.8642 L112.5205,25.5932 C111.9375,29.6492 108.4325,32.7962 104.2225,32.7922 L83.2555,32.7762 C78.6425,32.7732 74.8655,36.5442 74.8625,41.1572 L74.8445,64.5512 C73.8925,68.1392 70.6155,70.8062 66.7395,70.8032 L45.7725,70.7872 C41.1605,70.7832 37.3835,74.5552 37.3795,79.1672 L37.3445,87.4682 C37.3395,87.5542 37.3325,95.5562 37.3275,104.2052 C36.1695,107.4592 33.0615,109.8082 29.4225,109.8052 L8.4565,109.7892 C3.8435,109.7862 0.0665,113.5572 0.0635,118.1692 L0.0285,126.4712 C0.0165,126.6572 0.0005,125.5882 0.0005,125.5912 L0.0005,164.9972 C0.0005,169.8932 3.9685,173.8602 8.8645,173.8602 L28.8575,173.8602 L37.3155,173.8602 L37.7215,173.8602 L66.1735,173.8602 L74.7985,173.8602 L75.0375,173.8602 L83.6635,173.8602 L103.6565,173.8602 L112.5205,173.8602 L141.3775,173.8602 C146.2735,173.8602 150.2415,169.8932 150.2415,164.9972 L150.2415,126.7472 L150.2415,126.2812 L150.2415,88.0312 C150.2415,87.7292 150.2265,87.4332 150.1965,87.1392 C150.2265,86.8462 150.2415,86.5482 150.2415,86.2472 L150.2415,47.5802 L150.2415,47.5312 L150.2415,8.8642 C150.2415,3.9692 146.2735,0.0002 141.3775,0.0002" id="Fill-1" fill="#40549C"></path>
            <path d="M37.816,101.425 C37.813,106.037 34.036,109.809 29.423,109.805 L8.457,109.789 C3.844,109.786 0.067,113.557 0.064,118.17 L0.028,126.471 C0.017,126.657 0,125.588 0,125.591 L0,164.997 C0,169.893 3.969,173.861 8.864,173.861 L28.858,173.861 L37.722,173.861 L37.722,142.279 C37.722,142.315 37.727,142.349 37.727,142.384 L37.816,101.425 Z" id="Fill-3" fill="#3D70AF"></path>
            <path d="M141.3775,0.0002 L121.3845,0.0002 C116.4885,0.0002 112.5205,3.9692 112.5205,8.8642 L112.5205,47.5312 L112.5205,47.5802 L112.5205,86.2472 C112.5205,86.5482 112.5365,86.8462 112.5655,87.1392 C112.5365,87.4332 112.5205,87.7292 112.5205,88.0312 L112.5205,126.2812 L112.5205,126.7472 L112.5205,164.9972 L112.5205,173.8602 L141.3775,173.8602 C146.2735,173.8602 150.2415,169.8932 150.2415,164.9972 L150.2415,126.7472 L150.2415,126.2812 L150.2415,88.0312 C150.2415,87.7292 150.2265,87.4332 150.1965,87.1392 C150.2265,86.8462 150.2415,86.5482 150.2415,86.2472 L150.2415,47.5802 L150.2415,47.5312 L150.2415,8.8642 C150.2415,3.9692 146.2735,0.0002 141.3775,0.0002" id="Fill-5" fill="#7A287D"></path>
            <path d="M112.6148,24.4123 C112.6118,29.0243 108.8348,32.7963 104.2218,32.7923 L83.2558,32.7763 C78.6428,32.7733 74.8658,36.5443 74.8628,41.1573 L74.8268,87.4683 C74.8158,87.6553 74.7988,125.5883 74.7988,125.5913 L74.7988,173.8603 L83.6628,173.8603 L103.6568,173.8603 L112.5208,173.8603 L112.5208,142.2793 C112.5208,142.3143 112.5258,142.3493 112.5258,142.3843 L112.6148,24.4123 Z" id="Fill-7" fill="#474190"></path>
            <path d="M75.1324,62.423 C75.1294,67.035 71.3514,70.806 66.7394,70.803 L45.7724,70.787 C41.1604,70.783 37.3834,74.555 37.3794,79.167 L37.3444,87.468 C37.3324,87.655 37.3164,125.588 37.3164,125.591 L37.3164,164.997 L37.3164,173.861 L66.1734,173.861 L75.0374,173.861 L75.0374,142.279 C75.0384,142.315 75.0434,142.349 75.0434,142.384 L75.1324,62.423 Z" id="Fill-9" fill="#40549C"></path>
        </g>
    </g>
</svg>