<?xml version="1.0" encoding="UTF-8"?>
<svg width="205px" height="161px" viewBox="0 0 205 161" version="1.1" xmlns="http://www.w3.org/2000/svg" xmlns:xlink="http://www.w3.org/1999/xlink">
    <!-- Generator: Sketch 49.3 (51167) - http://www.bohemiancoding.com/sketch -->
    <title>federer</title>
    <desc>Created with Sketch.</desc>
    <defs>
        <polygon id="path-1" points="0.6161065 0.779532121 127.295399 0.779532121 127.295399 58.3545484 0.6161065 58.3545484"></polygon>
        <polygon id="path-3" points="0 0.272545353 201.681809 0.272545353 201.681809 130.478184 0 130.478184"></polygon>
        <polygon id="path-5" points="0 0.161626056 201.681809 0.161626056 201.681809 77.0715016 0 77.0715016"></polygon>
    </defs>
    <g id="Le-Cluster" stroke="none" stroke-width="1" fill="none" fill-rule="evenodd">
        <g id="federer" transform="translate(108.741066, 83.851125) rotate(15.000000) translate(-108.741066, -83.851125) translate(7.741066, -7.648875)">
            <g id="Group-3" transform="translate(46.515911, 123.635771)">
                <mask id="mask-2" fill="white">
                    <use xlink:href="#path-1"></use>
                </mask>
                <g id="Clip-2"></g>
                <path d="M122.971496,5.54334434 C122.051501,2.13045781 118.514959,0.0827258869 115.097126,0.997775175 L5.38024347,30.3931153 C1.96241073,31.3081646 -0.0803749807,34.8545988 0.834674307,38.2724316 L4.94003057,53.5908513 C5.85013365,57.0037378 9.39656791,59.0514697 12.8144007,58.1364204 L15.9156758,57.3054567 L103.280625,33.8950336 L122.526337,28.7361341 C125.949116,27.8210848 127.991902,24.2795968 127.076853,20.861764 L122.971496,5.54334434 Z" id="Fill-1" fill="#79297C" mask="url(#mask-2)"></path>
            </g>
            <path d="M86.9474887,32.1215682 C87.8674842,35.5344547 91.404026,37.5821867 94.826805,36.6671374 L123.598922,28.9559923 C127.016755,28.040943 129.059541,24.499455 128.144491,21.0865684 L124.039135,5.76320251 C123.124086,2.35031598 119.582598,0.302584056 116.164765,1.21763334 L87.3926478,8.92877842 C83.9748151,9.84382771 81.9270831,13.3853158 82.8470786,16.8031485 L86.9474887,32.1215682 Z" id="Fill-4" fill="#79297C"></path>
            <g id="Group-8" transform="translate(0.000000, 24.711523)">
                <mask id="mask-4" fill="white">
                    <use xlink:href="#path-3"></use>
                </mask>
                <g id="Clip-7"></g>
                <path d="M201.464176,73.6551617 L197.35882,58.336742 C196.44377,54.9189093 192.902282,52.8761236 189.48445,53.7862267 L170.827336,58.6879231 C168.21079,58.4505049 165.88607,56.6748147 165.16887,54.00386 L160.756848,38.5370539 C159.836853,35.1093288 161.845015,31.7063346 165.05016,30.736877 C165.05016,30.736877 164.347798,30.9248331 163.180492,31.2364445 L165.554674,30.6033293 L173.626893,28.4368883 C177.044725,27.5267852 179.092457,23.9803509 178.177408,20.5674644 L174.012697,5.03635757 C173.102594,1.62347104 169.55616,-0.424260881 166.138327,0.490788407 L59.3248711,29.1145194 C55.9070384,30.0295687 53.8593065,33.5710567 54.779302,36.9888895 L58.9390666,52.5150501 C59.8491696,55.9328828 57.7915453,59.4051239 54.3786588,60.3201732 L55.4223096,60.0431853 C54.7694095,60.2163027 54.2797345,60.3449042 54.1115633,60.3894202 L23.5439709,68.654541 C20.1310843,69.5695903 18.0833524,73.1160246 18.9984017,76.5289111 L23.1581663,92.0550717 C23.7220345,94.1621582 23.0691345,96.2494598 21.7484958,97.8075167 L13.6663848,99.9294418 L4.76320251,102.313516 C1.35031598,103.228565 -0.697415944,106.775 0.217633344,110.187886 L4.37739794,125.714047 C5.29244723,129.13188 8.8388815,131.174665 12.251768,130.259616 L182.218464,85.4667169 L196.918607,81.5295318 C200.331493,80.6144825 202.384171,77.0680483 201.464176,73.6551617" id="Fill-6" fill="#79297C" mask="url(#mask-4)"></path>
            </g>
            <path d="M149.794558,157.532783 L169.045216,152.373883 C172.463049,151.458834 174.505835,147.917346 173.595732,144.499513 L169.485429,129.181093 C168.57038,125.763261 165.028892,123.720475 161.616005,124.635524 L51.8941763,154.030864 C48.4812897,154.945914 46.438504,158.492348 47.3486071,161.905234 L51.4539634,177.223654 C52.3690127,180.641487 55.9154469,182.684273 59.3283335,181.769223 L62.4345548,180.93826 L149.794558,157.532783 Z" id="Fill-9" fill="#673B8F"></path>
            <path d="M82.846584,16.8026539 C81.9265885,13.3897674 83.9792667,9.84333309 87.3921532,8.9282838 L116.164271,1.21713872 C119.582103,0.302089435 123.128538,2.34982135 124.038641,5.7676541 L128.143997,21.0860738 C129.059046,24.4989603 127.01626,28.0404484 123.598428,28.9604439 L94.8263104,36.671589 C91.4035314,37.5866383 87.8669896,35.5389063 86.9469941,32.1210736 L82.846584,16.8026539 Z" id="Fill-11" fill="#C73462"></path>
            <g id="Group-15" transform="translate(0.000000, 78.119859)">
                <mask id="mask-6" fill="white">
                    <use xlink:href="#path-5"></use>
                </mask>
                <g id="Clip-14"></g>
                <path d="M189.484944,0.37986911 C192.897831,-0.535180178 196.444265,1.51255174 197.36426,4.92543827 L201.464671,20.2488042 C202.37972,23.6616907 200.331988,27.2031788 196.919101,28.1182281 L182.218958,32.0603593 L12.2522627,76.8532585 C8.83937612,77.7683078 5.29294185,75.7205759 4.37789257,72.3076893 L0.218127965,56.7815287 C-0.696921322,53.363696 1.3508106,49.8222079 4.76369713,48.9071586 L13.6668794,46.5230843 L189.484944,0.37986911 Z" id="Fill-13" fill="#79297C" mask="url(#mask-6)"></path>
            </g>
            <path d="M58.9365934,77.227068 C59.8516427,80.6399545 57.7940184,84.1171418 54.3761856,85.0321911 L165.557147,55.3153472 L173.62442,53.1538524 C177.047199,52.2388031 179.089984,48.6923689 178.174935,45.2794823 L174.01517,29.7483755 C173.100121,26.335489 169.553687,24.2877571 166.1408,25.2028063 L59.322398,53.8265373 C55.9095115,54.7415866 53.8617796,58.2830747 54.7768288,61.7009074 L58.9365934,77.227068 Z" id="Fill-16" fill="#A23E7D"></path>
            <path d="M165.169364,78.7148887 C166.08936,82.1327214 169.625902,84.1755071 173.043734,83.2604579 L18.6130918,124.640471 C22.0309245,123.725421 24.0786564,120.183933 23.1586609,116.7661 L18.9988963,101.23994 C18.083847,97.8270533 20.131579,94.280619 23.5444655,93.3655697 L54.1120579,85.1004489 C57.5249444,84.1853996 165.050655,55.4528519 165.050655,55.4528519 C161.845509,56.4173633 159.837347,59.8203575 160.752397,63.2480826 L165.169364,78.7148887 Z" id="Fill-18" fill="#8F397B"></path>
        </g>
    </g>
</svg>