<?xml version="1.0" encoding="UTF-8"?>
<svg width="27px" height="34px" viewBox="0 0 27 34" version="1.1" xmlns="http://www.w3.org/2000/svg" xmlns:xlink="http://www.w3.org/1999/xlink">
    <!-- Generator: Sketch 49.3 (51167) - http://www.bohemiancoding.com/sketch -->
    <title>Page 1 Copy 3</title>
    <desc>Created with Sketch.</desc>
    <defs>
        <path d="M0.0543665718,12.4969108 C0.0543665718,15.2226401 0.98656826,17.8046253 2.63635177,19.9568015 L12.3913087,32.7244066 C12.6064979,33.0113254 13.1088906,33.0830552 13.3958094,32.867866 L13.5392689,32.7244066 L23.2942258,19.9568015 C24.9440093,17.8046253 25.876211,15.2226401 25.876211,12.4969108 C25.876211,5.61085792 20.0663885,0.016224579 12.9651465,0.016224579 C5.86418906,0.016224579 0.0543665718,5.61085792 0.0543665718,12.4969108 Z M11.9612151,17.3745316 C9.2354858,16.8006939 7.44224285,14.218424 8.01579595,11.4926948 C8.58991834,8.7669655 11.1719035,6.9740072 13.8976328,7.5475603 C15.9060649,7.9779386 17.4841187,9.48426267 17.8427673,11.4926948 C18.3448753,14.218424 16.551917,16.8724236 13.8976328,17.3745316 C13.5748491,17.4462613 13.2520653,17.4821262 12.9292816,17.4821262 C12.6064979,17.4821262 12.2837142,17.4462613 11.9612151,17.3745316 Z" id="path-1"></path>
        <path d="M0.005408193,2.80542896 L10.0077188,0.148867628 C9.39289268,0.0611979734 8.764973,0.016224579 8.12623695,0.016224579 C5.05637581,0.016224579 2.22760623,1.06199832 0.005408193,2.80542896 Z" id="path-3"></path>
        <path d="M8.59760366,2.59764049 L8.46923024,2.63236678 L0.1343509,4.86538121 L6.41383226,13.0841267 C6.62902141,13.3710456 7.13141408,13.4427753 7.41833295,13.2275862 L7.56179238,13.0841267 L17.3167493,0.316521611 C17.3343971,0.293465631 17.3517603,0.270694292 17.3691234,0.247353669 L8.59760366,2.59764049 Z" id="path-5"></path>
        <path d="M22.184977,0.760278079 C22.1596439,0.765401631 19.7194103,1.41751585 17.1997616,2.0909782 C17.3642845,2.44991143 17.4858265,2.83389313 17.5581255,3.2380844 C18.0602336,5.96381367 16.2672753,8.61781323 13.6129911,9.11992125 C13.2902073,9.19165097 12.9674236,9.22751583 12.6446399,9.22751583 C12.3218561,9.22751583 11.9990724,9.19165097 11.6765733,9.11992125 C9.42875754,8.64656204 7.81540817,6.80806106 7.64006886,4.64933813 L0.0241945476,6.69021938 C0.405614475,8.50424117 1.20545776,10.206968 2.35171003,11.7021911 L5.82718564,16.2510507 L9.89186964,15.1620114 C9.88219182,15.1648578 9.87308329,15.1685582 9.86312083,15.1711199 L23.0505725,11.6483938 C24.6747382,9.50703401 25.5915693,6.94525838 25.5915693,4.24230045 C25.5915693,2.77212588 25.3268525,1.36115679 24.8412537,0.0506662292 L22.184977,0.760278079 Z" id="path-7"></path>
        <path d="M9.22438477,1.51030906 L5.08854033,2.61841934 C2.03120343,4.90238463 0.0543665718,8.47976198 0.0543665718,12.4969108 C0.0543665718,13.3519746 0.146021211,14.1930909 0.32278373,15.0111513 L7.41491725,13.110883 C7.40552407,13.1140141 7.39613089,13.1177144 7.38673771,13.1202762 L7.93097272,12.9751089 C7.88457611,12.4937798 7.90990923,11.9956567 8.01579595,11.4926948 C8.58991834,8.7669655 11.1719035,6.9740072 13.8976328,7.5475603 C15.5289146,7.89710035 16.8761239,8.95625225 17.5168525,10.4178876 L25.1535056,8.38070666 C23.5484109,3.95993584 19.4359071,0.669192723 14.4882644,0.102755667 C11.8601673,0.805251474 9.22466941,1.51030906 9.22438477,1.51030906 Z" id="path-9"></path>
    </defs>
    <g id="Annuaire" stroke="none" stroke-width="1" fill="none" fill-rule="evenodd">
        <g transform="translate(-578.000000, -783.000000)" id="Page-1-Copy-3">
            <g transform="translate(578.500000, 783.000000)">
                <g id="Group-3" transform="translate(0.000000, 0.104464)">
                    <mask id="mask-2" fill="white">
                        <use xlink:href="#path-1"></use>
                    </mask>
                    <g id="Clip-2"></g>
                    <polygon id="Fill-1" fill="#41559D" mask="url(#mask-2)" points="42.0118679 -19.7448572 53.8170993 24.3122755 3.26615007 37.8575218 -8.53908132 -6.19989553"></polygon>
                </g>
                <g id="Group-6" transform="translate(4.838910, 0.104464)">
                    <mask id="mask-4" fill="white">
                        <use xlink:href="#path-3"></use>
                    </mask>
                    <g id="Clip-5"></g>
                    <polygon id="Fill-4" fill="#3E70B0" mask="url(#mask-4)" points="9.28694902 -12.2730116 12.8096752 0.873736276 -9.85549243 6.94685237 -13.3782186 -6.19989553"></polygon>
                </g>
                <g id="Group-9" transform="translate(5.977476, 19.744743)">
                    <mask id="mask-6" fill="white">
                        <use xlink:href="#path-5"></use>
                    </mask>
                    <g id="Clip-8"></g>
                    <polygon id="Fill-7" fill="#7B287D" mask="url(#mask-6)" points="44.3240128 -8.44856525 47.8396229 4.67199561 -2.7113264 18.2172419 -6.22722114 5.09668108"></polygon>
                </g>
                <g id="Group-12" transform="translate(0.284642, 8.359074)">
                    <mask id="mask-8" fill="white">
                        <use xlink:href="#path-7"></use>
                    </mask>
                    <g id="Clip-11"></g>
                    <polygon id="Fill-10" fill="#484290" mask="url(#mask-8)" points="40.5258104 -5.63576407 44.0485365 7.51098383 0.20943939 19.257579 -3.31328675 6.11111577"></polygon>
                </g>
                <g id="Group-15" transform="translate(0.000000, 0.104464)">
                    <mask id="mask-10" fill="white">
                        <use xlink:href="#path-9"></use>
                    </mask>
                    <g id="Clip-14"></g>
                    <polygon id="Fill-13" fill="#41559D" mask="url(#mask-10)" points="27.5982651 -4.88635931 31.1209912 8.2603886 -2.26748454 17.2066784 -5.79021068 4.06021513"></polygon>
                </g>
            </g>
        </g>
    </g>
</svg>